STARTFONT 2.1
COMMENT
COMMENT Converted from OpenType font "SourceSansPro-Light.otf" by "otf2bdf 3.0".
COMMENT
FONT -FreeType-Source Sans Pro Light-Medium-R-Normal--91-660-100-100-P-386-ISO10646-1
SIZE 66 100 100
FONTBOUNDINGBOX 240 113 -42 -26
STARTPROPERTIES 19
FOUNDRY "FreeType"
FAMILY_NAME "Source Sans Pro Light"
WEIGHT_NAME "Medium"
SLANT "R"
SETWIDTH_NAME "Normal"
ADD_STYLE_NAME ""
PIXEL_SIZE 91
POINT_SIZE 660
RESOLUTION_X 100
RESOLUTION_Y 100
SPACING "P"
AVERAGE_WIDTH 386
CHARSET_REGISTRY "ISO10646"
CHARSET_ENCODING "1"
FONT_ASCENT 90
FONT_DESCENT 25
COPYRIGHT "Copyright 2010, 2012, 2014 Adobe Systems Incorporated (http://www.adobe.com/), with Reserved Font Name Source."
_OTF_FONTFILE "SourceSansPro-Light.otf"
_OTF_PSNAME "SourceSansPro-Light"
ENDPROPERTIES
CHARS 1296
STARTCHAR 0020
ENCODING 32
SWIDTH 196 0
DWIDTH 18 0
BBX 0 0 0 0
BITMAP
ENDCHAR
STARTCHAR 0021
ENCODING 33
SWIDTH 261 0
DWIDTH 24 0
BBX 8 62 8 -1
BITMAP
3C
3C
3C
3C
3C
3C
3C
3C
3C
3C
3C
3C
3C
3C
3C
3C
3C
3C
3C
3C
3C
3C
3C
3C
3C
3C
3C
3C
3C
3C
3C
3C
3C
3C
3C
3C
38
38
38
38
38
38
38
38
38
00
00
00
00
00
00
00
00
00
3C
7E
FF
FF
FF
FF
7E
3C
ENDCHAR
STARTCHAR 0022
ENCODING 34
SWIDTH 360 0
DWIDTH 33 0
BBX 17 20 8 44
BITMAP
F00780
F00780
F00780
F00780
F00780
F00780
F00780
F00780
F00780
F00780
F00780
F00780
F00780
F00780
F00780
F00780
F00780
F00780
F00700
E00700
ENDCHAR
STARTCHAR 0023
ENCODING 35
SWIDTH 480 0
DWIDTH 44 0
BBX 38 60 3 0
BITMAP
0007000380
0007000380
0007000780
000F000700
000E000700
000E000700
000E000700
000E000700
000E000700
000E000700
000E000F00
001E000E00
001C000E00
001C000E00
001C000E00
001C000E00
001C000E00
001C001E00
3FFFFFFFFC
3FFFFFFFFC
3FFFFFFFFC
0038001C00
0038001C00
0038001C00
0038001C00
0038001C00
0038001C00
0078003C00
0078003800
0070003800
0070003800
0070003800
0070003800
0070003800
0070003800
00F0007800
00F0007800
FFFFFFFFF0
FFFFFFFFF0
FFFFFFFFF0
00E0007000
00E0007000
00E0007000
00E000F000
01E000F000
01C000E000
01C000E000
01C000E000
01C000E000
01C000E000
01C000E000
01C001E000
03C001E000
03C001C000
038001C000
038001C000
038001C000
038001C000
038001C000
038001C000
ENDCHAR
STARTCHAR 0024
ENCODING 36
SWIDTH 480 0
DWIDTH 44 0
BBX 32 79 6 -10
BITMAP
0001C000
0001C000
0001C000
0001C000
0001C000
0001C000
0001C000
0001C000
0001C000
000FFC00
003FFF80
00FFFFC0
01FF7FF0
03F003F8
07C000FC
0F80003E
1F00001C
1E000008
1E000000
3C000000
3C000000
3C000000
3C000000
3C000000
3C000000
3C000000
3C000000
3E000000
1E000000
1F000000
0F800000
0FC00000
07E00000
03F00000
01FC0000
00FF0000
003FC000
001FF000
0007FC00
0001FF00
00007F80
00001FC0
000007F0
000003F0
000001F8
000000FC
0000007E
0000003E
0000001E
0000001F
0000000F
0000000F
0000000F
0000000F
0000000F
0000000F
0000000F
0000000F
0000000F
0000000F
4000001E
6000001E
F800003E
FC00007C
7F0000F8
1FE003F0
0FFF7FE0
03FFFFC0
00FFFF00
001FF800
0001C000
0001C000
0001C000
0001C000
0001C000
0001C000
0001C000
0001C000
0001C000
ENDCHAR
STARTCHAR 0025
ENCODING 37
SWIDTH 807 0
DWIDTH 74 0
BBX 66 63 4 -1
BITMAP
007F00000000E00000
01FFC0000001E00000
07FFF0000001C00000
0FC1F8000003800000
0F007C000007800000
1E003C000007000000
3C001E00000F000000
3C000F00000E000000
78000F00001E000000
78000F00001C000000
70000780003C000000
F00007800038000000
F00007800078000000
F00003800070000000
F000038000F0000000
E000038000E0000000
E000038001E0000000
E00003C001C0000000
E00003C00380000000
E00003C00780000000
E00003C00700000000
E00003800F00000000
E00003800E00000000
F00003801E00000000
F00003801C00000000
F00007803C003F8000
F00007803801FFE000
700007807803FFF800
780007007007C0FC00
78000F00F00F803C00
3C000F00E01F001E00
3C001E01E01E000F00
1E003C03C03C000F00
1F007C03803C000780
0FC1F8078038000780
07FFF0070078000380
01FFC00F0078000380
007F000E00700003C0
0000001E00700003C0
0000001C00F00003C0
0000003C00F00003C0
0000003800F00001C0
0000007800F00001C0
0000007000F00001C0
000000F000F00001C0
000000E000F00001C0
000001E000F00003C0
000003C000F00003C0
0000038000700003C0
0000078000700003C0
0000070000780003C0
00000F000078000380
00000E000078000780
00001E000038000780
00001C00003C000700
00003C00003C000F00
00003800001E000F00
00007800001F001E00
00007000000F803C00
0000F0000007E0F800
0001E0000003FFF000
0001E0000001FFE000
0003C00000003F8000
ENDCHAR
STARTCHAR 0026
ENCODING 38
SWIDTH 578 0
DWIDTH 53 0
BBX 48 63 3 -1
BITMAP
00003F800000
0001FFE00000
0003FFF00000
000FE1F80000
000F807C0000
001E003C0000
003C003E0000
003C001E0000
0078001E0000
0078001E0000
0078001E0000
0078000E0000
0070001E0000
0070001E0000
0070001E0000
0078001C0000
0078003C0000
007800380000
007800780000
007800F00000
003C01E00000
003C03C00000
003C07800000
001E0F000000
001E3E000000
001E7C000000
000FF8000000
000FF0000000
0007C0000000
000F80000000
003FC000001E
007FE000001E
00F9E000001E
01F1F000001C
03E0F800003C
07C07800003C
0F807C000038
1F003E000078
1E001E000078
3C001F0000F0
3C000F8000F0
780007C001E0
780003E001E0
780001F003C0
F80001F003C0
F00000F80780
F000007C0780
F800003E0F00
F800001F1F00
7800000F9E00
78000007FC00
78000003F800
7C000001F800
3E000001FC00
3E000003FF00
1F000007FF80
0F80001F8FE0
0FE0003F07F0
07F800FE03FC
01FFFFF800FF
00FFFFF0003F
003FFF80000F
0007FC000002
ENDCHAR
STARTCHAR 0027
ENCODING 39
SWIDTH 218 0
DWIDTH 20 0
BBX 4 20 8 44
BITMAP
F0
F0
F0
F0
F0
F0
F0
F0
F0
F0
F0
F0
F0
F0
F0
F0
F0
F0
F0
E0
ENDCHAR
STARTCHAR 0028
ENCODING 40
SWIDTH 283 0
DWIDTH 26 0
BBX 15 83 8 -16
BITMAP
0008
001E
001C
0038
0038
0070
0070
00E0
00E0
01C0
01C0
0380
0380
0780
0700
0700
0F00
0E00
0E00
1E00
1C00
1C00
3C00
3C00
3800
3800
3800
7800
7800
7800
7000
7000
7000
7000
F000
F000
F000
F000
F000
F000
F000
F000
F000
F000
F000
F000
F000
F000
F000
F000
7000
7000
7000
7800
7800
7800
7800
3800
3800
3C00
3C00
1C00
1C00
1E00
0E00
0E00
0F00
0700
0700
0780
0380
03C0
01C0
01C0
01E0
00E0
00F0
0070
0038
0038
001C
001E
0008
ENDCHAR
STARTCHAR 0029
ENCODING 41
SWIDTH 283 0
DWIDTH 26 0
BBX 15 83 3 -16
BITMAP
2000
E000
7000
7800
3800
3C00
1C00
1E00
0E00
0F00
0700
0780
0380
0380
03C0
01C0
01C0
01E0
00E0
00E0
00F0
00F0
0070
0070
0078
0078
0038
0038
0038
003C
003C
003C
003C
001C
001C
001C
001C
001C
001C
001E
001E
001E
001E
001E
001C
001C
001C
001C
001C
001C
003C
003C
003C
003C
0038
0038
0038
0078
0078
0070
0070
00F0
00F0
00E0
00E0
01E0
01C0
01C0
03C0
0380
0380
0700
0700
0F00
0E00
1E00
1C00
3C00
3800
7800
7000
E000
6000
ENDCHAR
STARTCHAR 002A
ENCODING 42
SWIDTH 392 0
DWIDTH 36 0
BBX 24 23 6 42
BITMAP
001C00
003C00
003C00
003C00
003C00
003C00
003C00
603C06
7E3C7E
FFFFFF
3FFFFC
07FFE0
01FF80
00FF00
00FF00
01FF80
03E7C0
03C3C0
07C1E0
0781F0
0F00F0
0E0070
000020
ENDCHAR
STARTCHAR 002B
ENCODING 43
SWIDTH 480 0
DWIDTH 44 0
BBX 38 40 3 10
BITMAP
0000780000
0000780000
0000780000
0000780000
0000780000
0000780000
0000780000
0000780000
0000780000
0000780000
0000780000
0000780000
0000780000
0000780000
0000780000
0000780000
0000780000
0000780000
FFFFFFFFFC
FFFFFFFFFC
FFFFFFFFFC
0000780000
0000780000
0000780000
0000780000
0000780000
0000780000
0000780000
0000780000
0000780000
0000780000
0000780000
0000780000
0000780000
0000780000
0000780000
0000780000
0000780000
0000780000
0000780000
ENDCHAR
STARTCHAR 002C
ENCODING 44
SWIDTH 218 0
DWIDTH 20 0
BBX 10 21 5 -14
BITMAP
0C00
1F00
3F80
3FC0
3FC0
3FC0
3FC0
1FC0
03C0
03C0
03C0
0380
0380
0780
0700
0F00
1E00
3C00
F800
F000
E000
ENDCHAR
STARTCHAR 002D
ENCODING 45
SWIDTH 294 0
DWIDTH 27 0
BBX 20 4 4 21
BITMAP
FFFFF0
FFFFF0
FFFFF0
FFFFF0
ENDCHAR
STARTCHAR 002E
ENCODING 46
SWIDTH 218 0
DWIDTH 20 0
BBX 8 8 6 -1
BITMAP
3C
7E
FF
FF
FF
FF
7E
3C
ENDCHAR
STARTCHAR 002F
ENCODING 47
SWIDTH 360 0
DWIDTH 33 0
BBX 31 80 1 -15
BITMAP
0000000E
0000001E
0000001C
0000001C
0000003C
00000038
00000038
00000078
00000070
000000F0
000000F0
000000E0
000001E0
000001E0
000001C0
000003C0
00000380
00000380
00000780
00000700
00000700
00000F00
00000E00
00000E00
00001E00
00001C00
00003C00
00003C00
00003800
00007800
00007800
00007000
0000F000
0000F000
0000E000
0001E000
0001C000
0001C000
0003C000
00038000
00038000
00078000
00070000
00070000
000F0000
000E0000
001E0000
001E0000
001C0000
003C0000
003C0000
00380000
00780000
00780000
00700000
00F00000
00E00000
00E00000
01E00000
01C00000
01C00000
03C00000
03800000
03800000
07800000
07000000
0F000000
0F000000
0E000000
1E000000
1E000000
1C000000
3C000000
38000000
38000000
78000000
70000000
70000000
F0000000
E0000000
ENDCHAR
STARTCHAR 0030
ENCODING 48
SWIDTH 480 0
DWIDTH 44 0
BBX 35 61 4 -1
BITMAP
0003FC0000
001FFF8000
003FFFC000
007FFFE000
01F803F000
01F000F800
03E0007C00
07C0003E00
0780001E00
0F80001F00
0F00000F00
1F00000F80
1E00000780
1E00000780
3C000007C0
3C000003C0
3C000003C0
3C000003C0
78000003E0
78000001E0
78000001E0
78000001E0
78000001E0
78000001E0
78000001E0
78000001E0
78000001E0
F8000001E0
F8000001E0
F8000001E0
F8000001E0
F8000001E0
F8000001E0
F8000001E0
78000001E0
78000001E0
78000001E0
78000001E0
78000001E0
78000001E0
78000001E0
78000003E0
7C000003C0
3C000003C0
3C000003C0
3C000003C0
3E000007C0
1E00000780
1E00000780
1F00000F80
0F00000F00
0F80001F00
0780001E00
07C0003E00
03E0007C00
01F000F800
01FC03F000
007FFFE000
003FFFC000
001FFF0000
0003FC0000
ENDCHAR
STARTCHAR 0031
ENCODING 49
SWIDTH 480 0
DWIDTH 44 0
BBX 30 59 8 0
BITMAP
0003C000
000FC000
007FC000
03FFC000
1FFFC000
1FFFC000
0007C000
0007C000
0007C000
0007C000
0007C000
0007C000
0007C000
0007C000
0007C000
0007C000
0007C000
0007C000
0007C000
0007C000
0007C000
0007C000
0007C000
0007C000
0007C000
0007C000
0007C000
0007C000
0007C000
0007C000
0007C000
0007C000
0007C000
0007C000
0007C000
0007C000
0007C000
0007C000
0007C000
0007C000
0007C000
0007C000
0007C000
0007C000
0007C000
0007C000
0007C000
0007C000
0007C000
0007C000
0007C000
0007C000
0007C000
0007C000
0007C000
FFFFFFFC
FFFFFFFC
FFFFFFFC
FFFFFFFC
ENDCHAR
STARTCHAR 0032
ENCODING 50
SWIDTH 480 0
DWIDTH 44 0
BBX 36 60 4 0
BITMAP
000FF80000
007FFF0000
01FFFFC000
07FFFFE000
0FE003F000
1F8001F800
3E00007C00
7C00003E00
F800003E00
F000001F00
6000000F00
0000000F00
0000000F00
0000000F80
0000000780
0000000780
0000000780
0000000780
0000000780
0000000F80
0000000F00
0000000F00
0000000F00
0000001F00
0000001E00
0000003E00
0000003C00
0000007C00
0000007800
000000F800
000000F000
000001E000
000003E000
000007C000
0000078000
00000F8000
00001F0000
00003E0000
00007C0000
00007C0000
0000F80000
0001F00000
0003E00000
0007C00000
000F800000
001F000000
003E000000
007E000000
00FC000000
00F8000000
01F0000000
03E0000000
07C0000000
0F80000000
1F00000000
3E00000000
7C0FFFFFF0
FFFFFFFFF0
FFFFFFFFF0
FFFFFFFFF0
ENDCHAR
STARTCHAR 0033
ENCODING 51
SWIDTH 480 0
DWIDTH 44 0
BBX 36 61 3 -1
BITMAP
0003FE0000
003FFFC000
00FFFFF000
01FFFFF800
07F001FC00
0FC0007E00
1F80001F00
3E00001F80
1C00000F80
0800000780
00000007C0
00000007C0
00000003C0
00000003C0
00000003C0
00000003C0
00000003C0
00000003C0
00000007C0
0000000780
0000000F80
0000000F00
0000001F00
0000003E00
0000007C00
000001F800
00000FF000
001FFFC000
001FFF0000
001FFF0000
001FFFE000
00003FF800
000001FC00
0000007E00
0000001F00
0000000F80
00000007C0
00000003E0
00000001E0
00000001E0
00000001F0
00000000F0
00000000F0
00000000F0
00000000F0
00000000F0
00000000F0
00000000F0
00000001F0
00000001E0
20000001E0
70000003E0
F8000007C0
FC000007C0
7E00001F80
1F80003F00
0FF000FE00
07FFFFFC00
01FFFFF000
007FFFC000
0007FE0000
ENDCHAR
STARTCHAR 0034
ENCODING 52
SWIDTH 480 0
DWIDTH 44 0
BBX 40 59 1 0
BITMAP
0000001E00
0000001E00
0000003E00
0000007E00
0000007E00
000000FE00
000001EE00
000003EE00
000003CE00
0000078E00
00000F8E00
00000F0E00
00001E0E00
00003E1E00
00003C1E00
0000781E00
0000F81E00
0000F01E00
0001E01E00
0003C01E00
0007C01E00
0007801E00
000F001E00
001F001E00
001E001E00
003C001E00
0078001E00
0078001E00
00F0001E00
01E0001E00
03E0001E00
03C0001E00
0780001E00
0F80001E00
0F00001E00
1E00001E00
3C00001E00
3C00001E00
7FFFFFFFFF
FFFFFFFFFF
FFFFFFFFFF
0000001E00
0000001E00
0000001E00
0000001E00
0000001E00
0000001E00
0000001E00
0000001E00
0000001E00
0000001E00
0000001E00
0000001E00
0000001E00
0000001E00
0000001E00
0000001E00
0000001E00
0000001E00
ENDCHAR
STARTCHAR 0035
ENCODING 53
SWIDTH 480 0
DWIDTH 44 0
BBX 37 60 3 -1
BITMAP
03FFFFFF80
03FFFFFF80
03FFFFFF80
03FFFFFF80
03C0000000
03C0000000
03C0000000
03C0000000
03C0000000
03C0000000
0380000000
0780000000
0780000000
0780000000
0780000000
0780000000
0780000000
0780000000
0780000000
0780000000
0780000000
0700000000
0703FF0000
071FFFE000
0F7FFFF800
0FFFFFFC00
0FF800FE00
0FC0003F00
0780001F80
0000000FC0
00000007C0
00000003E0
00000003E0
00000001F0
00000001F0
00000000F0
00000000F0
00000000F0
00000000F0
00000000F8
00000000F8
00000000F0
00000000F0
00000000F0
00000000F0
00000000F0
00000001F0
00000001E0
00000001E0
40000003E0
60000007C0
F0000007C0
F800000F80
7E00003F00
3F80007E00
1FE001FC00
07FFFFF800
01FFFFE000
007FFF8000
000FFC0000
ENDCHAR
STARTCHAR 0036
ENCODING 54
SWIDTH 480 0
DWIDTH 44 0
BBX 35 61 5 -1
BITMAP
00007F8000
0003FFF000
000FFFFC00
003FFFFE00
007F003F80
00FC000F80
01F0000780
03E0000300
03C0000000
07C0000000
0F80000000
0F00000000
1F00000000
1E00000000
1E00000000
3C00000000
3C00000000
3C00000000
7800000000
7800000000
7800000000
7800000000
7800000000
F800000000
F000000000
F003FF8000
F01FFFE000
F03FFFF800
F0FE03FC00
F1F0007E00
F3C0003F00
F780001F00
FF00000F80
FE00000780
FC000007C0
F8000003C0
F0000003C0
F0000003E0
F0000001E0
F0000001E0
F0000001E0
F8000001E0
78000001E0
78000001E0
78000001E0
78000001E0
7C000003E0
3C000003C0
3C000003C0
1E000003C0
1E000007C0
0F00000780
0F80000F80
07C0001F00
07E0003E00
03F0007C00
01FC00FC00
00FFFFF000
003FFFE000
000FFF8000
0003FE0000
ENDCHAR
STARTCHAR 0037
ENCODING 55
SWIDTH 480 0
DWIDTH 44 0
BBX 36 59 4 0
BITMAP
FFFFFFFFF0
FFFFFFFFF0
FFFFFFFFF0
FFFFFFFFE0
00000003E0
00000003C0
0000000780
0000000F00
0000000F00
0000001E00
0000003E00
0000003C00
0000007800
0000007800
000000F000
000000F000
000001E000
000001E000
000003C000
000003C000
0000078000
0000078000
00000F0000
00000F0000
00000F0000
00001E0000
00001E0000
00003C0000
00003C0000
00003C0000
00007C0000
0000780000
0000780000
0000780000
0000F80000
0000F00000
0000F00000
0000F00000
0001F00000
0001F00000
0001E00000
0001E00000
0001E00000
0001E00000
0003E00000
0003E00000
0003E00000
0003C00000
0003C00000
0003C00000
0003C00000
0003C00000
0003C00000
0003C00000
0007C00000
0007C00000
0007C00000
0007C00000
0007C00000
ENDCHAR
STARTCHAR 0038
ENCODING 56
SWIDTH 480 0
DWIDTH 44 0
BBX 36 61 4 -1
BITMAP
0003FE0000
001FFFC000
007FFFF000
00FF9FF800
01F800FC00
03E0007E00
07C0001F00
0780000F00
0F80000F80
0F00000780
0F000007C0
1E000003C0
1E000003C0
1E000003C0
1E000003C0
1E000003C0
1E000003C0
1E000003C0
0F000003C0
0F00000380
0F80000780
07C0000780
03E0000F00
03F0000F00
01F8001E00
00FE003C00
007F807C00
001FE0F800
001FF9F000
007FFFE000
00F8FFC000
01E03FE000
03C007F800
078001FC00
0F00007E00
1E00003F00
3C00001F80
3C000007C0
78000007C0
78000003E0
F0000001E0
F0000001F0
F0000000F0
F0000000F0
F0000000F0
F0000000F0
F0000000F0
F0000000F0
F0000000F0
F8000001F0
78000001E0
7C000003E0
3E000003C0
3F000007C0
1F80000F80
0FC0003F00
07F000FE00
03FF8FFC00
00FFFFF000
003FFFC000
0007FE0000
ENDCHAR
STARTCHAR 0039
ENCODING 57
SWIDTH 480 0
DWIDTH 44 0
BBX 35 61 4 -1
BITMAP
000FF00000
003FFE0000
00FFFF8000
03FFFFE000
07E007F000
0FC001F800
0F8000F800
1F00007C00
3E00003E00
3C00001E00
7C00001F00
7800000F00
7800000F80
F800000780
F000000780
F0000003C0
F0000003C0
F0000003C0
F0000003C0
F0000003E0
F0000001E0
F0000001E0
F0000001E0
F8000001E0
78000001E0
78000003E0
7C000007E0
3C00000FE0
3E00001FE0
1F00003DE0
1F8000F9E0
0FC001F1E0
07F80FE1E0
03FFFF81E0
00FFFF01E0
003FF801E0
00000001E0
00000003C0
00000003C0
00000003C0
00000003C0
00000003C0
0000000380
0000000780
0000000780
0000000780
0000000F00
0000000F00
0000001E00
0000001E00
0000003E00
0000007C00
0000007800
180000F800
3C0001F000
7E0007E000
3F801FC000
1FFFFF8000
07FFFE0000
01FFF80000
007FC00000
ENDCHAR
STARTCHAR 003A
ENCODING 58
SWIDTH 218 0
DWIDTH 20 0
BBX 8 43 6 -1
BITMAP
3C
7E
FF
FF
FF
FF
7E
3C
00
00
00
00
00
00
00
00
00
00
00
00
00
00
00
00
00
00
00
00
00
00
00
00
00
00
00
3C
7E
FF
FF
FF
FF
7E
3C
ENDCHAR
STARTCHAR 003B
ENCODING 59
SWIDTH 218 0
DWIDTH 20 0
BBX 10 56 5 -14
BITMAP
1E00
3F00
7F80
7F80
7F80
7F80
3F00
1E00
0000
0000
0000
0000
0000
0000
0000
0000
0000
0000
0000
0000
0000
0000
0000
0000
0000
0000
0000
0000
0000
0000
0000
0000
0000
0000
0000
0C00
1F00
3F80
3FC0
3FC0
3FC0
3FC0
1FC0
03C0
03C0
03C0
0380
0380
0780
0700
0F00
1E00
3C00
F800
F000
E000
ENDCHAR
STARTCHAR 003C
ENCODING 60
SWIDTH 480 0
DWIDTH 44 0
BBX 38 34 3 13
BITMAP
0000000004
000000003C
00000000FC
00000007FC
0000001FF0
000000FFC0
000003FE00
00001FF800
00007FC000
0003FE0000
001FF80000
007FC00000
03FF000000
0FF8000000
7FE0000000
FF00000000
F800000000
F800000000
FF00000000
7FC0000000
0FF8000000
03FE000000
007FC00000
001FF80000
0003FE0000
0000FFC000
00001FF000
000007FE00
000000FF80
0000003FF0
00000007FC
00000001FC
000000003C
000000000C
ENDCHAR
STARTCHAR 003D
ENCODING 61
SWIDTH 480 0
DWIDTH 44 0
BBX 38 22 3 19
BITMAP
FFFFFFFFFC
FFFFFFFFFC
FFFFFFFFFC
0000000000
0000000000
0000000000
0000000000
0000000000
0000000000
0000000000
0000000000
0000000000
0000000000
0000000000
0000000000
0000000000
0000000000
0000000000
0000000000
FFFFFFFFFC
FFFFFFFFFC
FFFFFFFFFC
ENDCHAR
STARTCHAR 003E
ENCODING 62
SWIDTH 480 0
DWIDTH 44 0
BBX 38 34 3 13
BITMAP
8000000000
F000000000
FC00000000
FF80000000
3FE0000000
0FFC000000
01FF000000
007FE00000
000FF80000
0003FF0000
00007FC000
00000FF800
000003FE00
0000007FC0
0000001FF0
00000003FC
000000007C
000000007C
00000003FC
0000000FF8
0000007FC0
000003FF00
00000FF800
00007FE000
0001FF0000
000FFC0000
003FE00000
01FF800000
0FFC000000
3FF0000000
FF80000000
FE00000000
F000000000
C000000000
ENDCHAR
STARTCHAR 003F
ENCODING 63
SWIDTH 403 0
DWIDTH 37 0
BBX 29 64 3 -1
BITMAP
00030000
007FF800
01FFFE00
07FFFF80
0FE03FC0
3F0007C0
7E0003E0
F80001F0
700001F0
200000F8
000000F8
00000078
00000078
00000078
00000078
00000078
00000078
00000078
000000F8
000000F0
000000F0
000001F0
000001E0
000003C0
000007C0
00000780
00000F00
00001F00
00003E00
00003C00
00007800
0000F800
0001F000
0001E000
0003E000
0003C000
00078000
00078000
00078000
000F0000
000F0000
000F0000
000F0000
000F0000
000F0000
000F0000
000F0000
00000000
00000000
00000000
00000000
00000000
00000000
00000000
00000000
00000000
000F0000
001F8000
003FC000
003FC000
003FC000
003FC000
001F8000
000F0000
ENDCHAR
STARTCHAR 0040
ENCODING 64
SWIDTH 818 0
DWIDTH 75 0
BBX 65 71 5 -13
BITMAP
00000003FFC0000000
0000003FFFFE000000
000001FFFFFF800000
000007FF01FFE00000
00001FE00007F80000
00007F000000FC0000
0000FC0000003F0000
0003F00000001F8000
0007E000000007C000
000F8000000003E000
001F0000000001E000
003E0000000000F000
007C0000000000F800
00F800000000007800
00F000000000003C00
01E000000000003C00
03C000000000001E00
03C000000000001E00
078000000000000E00
0F000001FC00000F00
0F00000FFE1C000F00
1E00003FFF9C000700
1E00007F8FBC000700
1C0000F803F8000780
3C0001F001F8000780
3C0003E000F8000780
380003C00078000780
780007800078000780
78000F000070000780
70000F000070000780
70001E0000F0000780
F0001E0000F0000780
F0001C0000F0000780
F0003C0000F0000780
F0003C0000E0000780
E0003C0000E0000700
E000380001E0000700
E000380001E0000F00
E000780001E0000F00
E000780001C0000E00
E000780001C0001E00
E000780003C0001E00
E000380003C0003C00
F0003C0003C0003C00
F0003C0007C0007800
F0003C000FC000F000
F0001E001DE001F000
70001F0079E003E000
70000F81F0F007C000
780007FFE0FC3F8000
780003FFC07FFE0000
380000FF003FFC0000
3C000000000FE00000
3C0000000000000000
1E0000000000000000
1E0000000000000000
0F0000000000000000
0F8000000000000000
078000000000000000
03C000000000000000
03E000000000000000
01F000000000000000
00F800000000000000
007E00000000000000
003F80000006000000
001FC000001E000000
0007F80000FF000000
0001FF800FFC000000
00007FFFFFF0000000
00001FFFFF80000000
000001FFFC00000000
ENDCHAR
STARTCHAR 0041
ENCODING 65
SWIDTH 523 0
DWIDTH 48 0
BBX 46 60 1 0
BITMAP
000007800000
00000FC00000
00000FC00000
00000FC00000
00001FE00000
00001CE00000
00001CF00000
00003CF00000
00003C700000
000038780000
000078780000
000078380000
0000703C0000
0000F03C0000
0000F01C0000
0000E01E0000
0001E01E0000
0001E00E0000
0003C00F0000
0003C00F0000
0003C0078000
000780078000
000780078000
00078003C000
000F0003C000
000F0003C000
000F0001E000
001E0001E000
001E0001E000
001E0000F000
003C0000F000
003C0000F000
007C00007800
007800007800
007800007800
00F800003C00
00FFFFFFFC00
00FFFFFFFE00
01FFFFFFFE00
01FFFFFFFE00
01E000001F00
03C000000F00
03C000000F00
03C000000F80
078000000780
078000000780
0780000007C0
0F00000003C0
0F00000003C0
1F00000003E0
1E00000001E0
1E00000001E0
3E00000001F0
3C00000000F0
3C00000000F8
7C00000000F8
780000000078
78000000007C
F0000000003C
F0000000003C
ENDCHAR
STARTCHAR 0042
ENCODING 66
SWIDTH 578 0
DWIDTH 53 0
BBX 40 60 9 0
BITMAP
FFFFFE0000
FFFFFFE000
FFFFFFF800
F001FFFE00
F00000FF00
F000001F80
F000000FC0
F0000007E0
F0000003E0
F0000001E0
F0000001F0
F0000000F0
F0000000F0
F0000000F0
F0000000F0
F0000000F0
F0000000F0
F0000000F0
F0000000F0
F0000001E0
F0000001E0
F0000003E0
F0000007C0
F000000F80
F000003F00
F00001FE00
F001FFFC00
FFFFFFF000
FFFFFFF800
FFFFFFFF00
F00001FFC0
F000001FE0
F0000007F0
F0000001F8
F0000000FC
F00000007C
F00000003E
F00000001E
F00000001E
F00000001F
F00000000F
F00000000F
F00000000F
F00000000F
F00000000F
F00000000F
F00000001E
F00000001E
F00000001E
F00000003E
F00000007C
F00000007C
F0000001F8
F0000003F0
F000000FE0
F000007FC0
F0007FFF00
FFFFFFFE00
FFFFFFF000
FFFFFF0000
ENDCHAR
STARTCHAR 0043
ENCODING 67
SWIDTH 567 0
DWIDTH 52 0
BBX 43 63 5 -1
BITMAP
000007FC0000
00007FFFC000
0001FFFFF000
0007FFFFF800
001FF003FE00
003FC0007F00
007F00001F80
00FC00000F80
01F800000780
03F000000300
03E000000000
07C000000000
0F8000000000
0F8000000000
1F0000000000
1F0000000000
1E0000000000
3E0000000000
3C0000000000
3C0000000000
7C0000000000
7C0000000000
780000000000
780000000000
780000000000
F80000000000
F80000000000
F80000000000
F80000000000
F80000000000
F00000000000
F00000000000
F00000000000
F80000000000
F80000000000
F80000000000
F80000000000
F80000000000
780000000000
780000000000
780000000000
7C0000000000
7C0000000000
3C0000000000
3E0000000000
3E0000000000
1E0000000000
1F0000000000
1F0000000000
0F8000000000
0F8000000000
07C000000000
03E0000000C0
03F0000001E0
01F8000003E0
00FC000007C0
007F00001F80
003FC0007F00
001FF001FE00
0007FFFFFC00
0003FFFFF000
00007FFFC000
00000FFC0000
ENDCHAR
STARTCHAR 0044
ENCODING 68
SWIDTH 600 0
DWIDTH 55 0
BBX 41 60 9 0
BITMAP
FFFFF0000000
FFFFFF000000
FFFFFFE00000
FFFFFFF80000
F00007FE0000
F00000FF0000
F000003F8000
F000000FC000
F0000007E000
F0000003F000
F0000001F000
F0000000F800
F00000007C00
F00000007C00
F00000003E00
F00000003E00
F00000001E00
F00000001F00
F00000001F00
F00000000F00
F00000000F00
F00000000F80
F00000000F80
F00000000F80
F00000000780
F00000000780
F00000000780
F00000000780
F00000000780
F00000000780
F00000000780
F00000000780
F00000000780
F00000000780
F00000000780
F00000000780
F00000000F80
F00000000F80
F00000000F80
F00000000F00
F00000000F00
F00000001F00
F00000001F00
F00000001E00
F00000003E00
F00000003C00
F00000007C00
F0000000F800
F0000000F800
F0000001F000
F0000003F000
F0000007E000
F000000FC000
F000003F8000
F00000FF0000
F00007FC0000
FFFFFFF80000
FFFFFFE00000
FFFFFF000000
FFFFF0000000
ENDCHAR
STARTCHAR 0045
ENCODING 69
SWIDTH 512 0
DWIDTH 47 0
BBX 34 60 9 0
BITMAP
FFFFFFFF80
FFFFFFFF80
FFFFFFFF80
FFFFFFFF80
F000000000
F000000000
F000000000
F000000000
F000000000
F000000000
F000000000
F000000000
F000000000
F000000000
F000000000
F000000000
F000000000
F000000000
F000000000
F000000000
F000000000
F000000000
F000000000
F000000000
F000000000
F000000000
FFFFFFF000
FFFFFFF000
FFFFFFF000
FFFFFFF000
F000000000
F000000000
F000000000
F000000000
F000000000
F000000000
F000000000
F000000000
F000000000
F000000000
F000000000
F000000000
F000000000
F000000000
F000000000
F000000000
F000000000
F000000000
F000000000
F000000000
F000000000
F000000000
F000000000
F000000000
F000000000
F000000000
FFFFFFFFC0
FFFFFFFFC0
FFFFFFFFC0
FFFFFFFFC0
ENDCHAR
STARTCHAR 0046
ENCODING 70
SWIDTH 480 0
DWIDTH 44 0
BBX 33 60 9 0
BITMAP
FFFFFFFF80
FFFFFFFF80
FFFFFFFF80
FFFFFFFF80
F000000000
F000000000
F000000000
F000000000
F000000000
F000000000
F000000000
F000000000
F000000000
F000000000
F000000000
F000000000
F000000000
F000000000
F000000000
F000000000
F000000000
F000000000
F000000000
F000000000
F000000000
F000000000
F000000000
FFFFFFF000
FFFFFFF000
FFFFFFF000
FFFFFFF000
F000000000
F000000000
F000000000
F000000000
F000000000
F000000000
F000000000
F000000000
F000000000
F000000000
F000000000
F000000000
F000000000
F000000000
F000000000
F000000000
F000000000
F000000000
F000000000
F000000000
F000000000
F000000000
F000000000
F000000000
F000000000
F000000000
F000000000
F000000000
F000000000
ENDCHAR
STARTCHAR 0047
ENCODING 71
SWIDTH 600 0
DWIDTH 55 0
BBX 44 63 5 -1
BITMAP
000003FF0000
00003FFFE000
0001FFFFF800
0007FFFFFE00
000FF800FF00
001FC0001F80
007F00000FE0
00FC000003E0
01F8000001C0
01F000000080
03E000000000
07C000000000
07C000000000
0F8000000000
0F0000000000
1F0000000000
1E0000000000
3E0000000000
3C0000000000
3C0000000000
7C0000000000
7C0000000000
780000000000
780000000000
780000000000
F80000000000
F80000000000
F80000000000
F80000000000
F80000000000
F00000000000
F00000000000
F000007FFFF0
F800007FFFF0
F800007FFFF0
F800007FFFF0
F800000000F0
F800000000F0
7800000000F0
7800000000F0
7800000000F0
7C00000000F0
7C00000000F0
3C00000000F0
3E00000000F0
3E00000000F0
1E00000000F0
1F00000000F0
1F00000000F0
0F80000000F0
0F80000000F0
07C0000000F0
03E0000000F0
03F0000000F0
01F8000000F0
00FC000001F0
007F000007E0
003FC0001FC0
001FF800FF80
0007FFFFFF00
0001FFFFFC00
00007FFFE000
000007FE0000
ENDCHAR
STARTCHAR 0048
ENCODING 72
SWIDTH 643 0
DWIDTH 59 0
BBX 41 60 9 0
BITMAP
F00000000F80
F00000000F80
F00000000F80
F00000000F80
F00000000F80
F00000000F80
F00000000F80
F00000000F80
F00000000F80
F00000000F80
F00000000F80
F00000000F80
F00000000F80
F00000000F80
F00000000F80
F00000000F80
F00000000F80
F00000000F80
F00000000F80
F00000000F80
F00000000F80
F00000000F80
F00000000F80
F00000000F80
F00000000F80
F00000000F80
FFFFFFFFFF80
FFFFFFFFFF80
FFFFFFFFFF80
FFFFFFFFFF80
F00000000F80
F00000000F80
F00000000F80
F00000000F80
F00000000F80
F00000000F80
F00000000F80
F00000000F80
F00000000F80
F00000000F80
F00000000F80
F00000000F80
F00000000F80
F00000000F80
F00000000F80
F00000000F80
F00000000F80
F00000000F80
F00000000F80
F00000000F80
F00000000F80
F00000000F80
F00000000F80
F00000000F80
F00000000F80
F00000000F80
F00000000F80
F00000000F80
F00000000F80
F00000000F80
ENDCHAR
STARTCHAR 0049
ENCODING 73
SWIDTH 240 0
DWIDTH 22 0
BBX 4 60 9 0
BITMAP
F0
F0
F0
F0
F0
F0
F0
F0
F0
F0
F0
F0
F0
F0
F0
F0
F0
F0
F0
F0
F0
F0
F0
F0
F0
F0
F0
F0
F0
F0
F0
F0
F0
F0
F0
F0
F0
F0
F0
F0
F0
F0
F0
F0
F0
F0
F0
F0
F0
F0
F0
F0
F0
F0
F0
F0
F0
F0
F0
F0
ENDCHAR
STARTCHAR 004A
ENCODING 74
SWIDTH 458 0
DWIDTH 42 0
BBX 30 61 4 -1
BITMAP
0000007C
0000007C
0000007C
0000007C
0000007C
0000007C
0000007C
0000007C
0000007C
0000007C
0000007C
0000007C
0000007C
0000007C
0000007C
0000007C
0000007C
0000007C
0000007C
0000007C
0000007C
0000007C
0000007C
0000007C
0000007C
0000007C
0000007C
0000007C
0000007C
0000007C
0000007C
0000007C
0000007C
0000007C
0000007C
0000007C
0000007C
0000007C
0000007C
0000007C
0000007C
0000007C
0000007C
0000007C
0000007C
0000007C
0000007C
00000078
00000078
00000078
20000078
700000F8
F80000F0
7C0001F0
7E0003E0
3F0007E0
1FC01FC0
0FFFFF80
07FFFF00
01FFFC00
003FE000
ENDCHAR
STARTCHAR 004B
ENCODING 75
SWIDTH 556 0
DWIDTH 51 0
BBX 41 60 9 0
BITMAP
F00000007C00
F0000000F800
F0000001F000
F0000003F000
F0000003E000
F0000007C000
F000000F8000
F000001F0000
F000003E0000
F000007C0000
F00000F80000
F00001F80000
F00001F00000
F00003E00000
F00007C00000
F0000F800000
F0001F000000
F0003E000000
F0007E000000
F000FC000000
F000F8000000
F001F0000000
F003E0000000
F007F0000000
F00FF8000000
F01FF8000000
F03E7C000000
F07E3C000000
F07C3E000000
F0F81F000000
F1F01F000000
F3E00F800000
F7C00F800000
FF8007C00000
FF0003C00000
FF0003E00000
FE0001F00000
FC0001F00000
F80000F80000
F00000780000
F000007C0000
F000003E0000
F000003E0000
F000001F0000
F000001F0000
F000000F8000
F00000078000
F0000007C000
F0000003E000
F0000003E000
F0000001F000
F0000001F000
F0000000F800
F00000007800
F00000007C00
F00000003E00
F00000003E00
F00000001F00
F00000001F00
F00000000F80
ENDCHAR
STARTCHAR 004C
ENCODING 76
SWIDTH 469 0
DWIDTH 43 0
BBX 32 60 9 0
BITMAP
F0000000
F0000000
F0000000
F0000000
F0000000
F0000000
F0000000
F0000000
F0000000
F0000000
F0000000
F0000000
F0000000
F0000000
F0000000
F0000000
F0000000
F0000000
F0000000
F0000000
F0000000
F0000000
F0000000
F0000000
F0000000
F0000000
F0000000
F0000000
F0000000
F0000000
F0000000
F0000000
F0000000
F0000000
F0000000
F0000000
F0000000
F0000000
F0000000
F0000000
F0000000
F0000000
F0000000
F0000000
F0000000
F0000000
F0000000
F0000000
F0000000
F0000000
F0000000
F0000000
F0000000
F0000000
F0000000
F0000000
FFFFFFFF
FFFFFFFF
FFFFFFFF
FFFFFFFF
ENDCHAR
STARTCHAR 004D
ENCODING 77
SWIDTH 709 0
DWIDTH 65 0
BBX 47 60 9 0
BITMAP
FC000000007E
FC00000000FE
FE00000000FE
FE00000000FE
EE00000001FE
EF00000001DE
EF00000003DE
E780000003DE
F7800000039E
F7800000079E
F3C00000079E
F3C00000071E
F1C000000F1E
F1E000000F1E
F1E000000E1E
F0E000001E1E
F0F000001E1E
F0F000003C1E
F07800003C1E
F07800003C1E
F0780000781E
F03C0000781E
F03C0000701E
F01C0000F01E
F01E0000F01E
F01E0000E01E
F00E0001E01E
F00F0001E01E
F00F0001C01E
F0078003C01E
F0078003801E
F0038007801E
F003C007801E
F003C007001E
F001C00F001E
F001E00F001E
F001E00E001E
F000E01E001E
F000F01E001E
F000F01C001E
F000783C001E
F0007838001E
F0003838001E
F0003C78001E
F0003C70001E
F0001C70001E
F0001EF0001E
F0001EE0001E
F0000FE0001E
F0000FC0001E
F00007C0001E
F00007C0001E
F0000780001E
F0000000001E
F0000000001E
F0000000001E
F0000000001E
F0000000001E
F0000000001E
F0000000001E
ENDCHAR
STARTCHAR 004E
ENCODING 78
SWIDTH 632 0
DWIDTH 58 0
BBX 40 60 9 0
BITMAP
F80000000F
F80000000F
FC0000000F
FC0000000F
FE0000000F
FF0000000F
EF0000000F
E78000000F
F78000000F
F3C000000F
F3E000000F
F1E000000F
F0F000000F
F0F000000F
F07800000F
F07C00000F
F03C00000F
F03E00000F
F01E00000F
F00F00000F
F00F80000F
F00780000F
F007C0000F
F003C0000F
F001E0000F
F001F0000F
F000F0000F
F000F8000F
F00078000F
F0003C000F
F0003E000F
F0001E000F
F0001F000F
F0000F000F
F00007800F
F00007C00F
F00003C00F
F00003E00F
F00001E00F
F00000F00F
F00000F80F
F00000780F
F000007C07
F000003C07
F000001E07
F000001F07
F000000F07
F000000F87
F000000787
F0000003C7
F0000003C7
F0000001E7
F0000001F7
F0000000F7
F00000007F
F00000007F
F00000003F
F00000003F
F00000001F
F00000000F
ENDCHAR
STARTCHAR 004F
ENCODING 79
SWIDTH 654 0
DWIDTH 60 0
BBX 50 63 5 -1
BITMAP
00000FFC000000
00007FFF800000
0003FFFFF00000
0007FFFFF80000
001FF003FE0000
003F80007F0000
007E00001F8000
00FC00000FC000
01F8000007E000
03F0000003F000
03E0000001F000
07C0000000F800
0F800000007C00
0F800000007C00
1F000000003E00
1F000000003E00
1E000000001E00
3E000000001F00
3C000000001F00
3C000000000F00
7C000000000F80
7C000000000F80
78000000000780
78000000000780
78000000000780
F80000000007C0
F80000000007C0
F80000000007C0
F80000000007C0
F80000000007C0
F00000000007C0
F00000000007C0
F00000000007C0
F80000000007C0
F80000000007C0
F80000000007C0
F80000000007C0
F8000000000780
78000000000780
78000000000780
78000000000F80
7C000000000F80
7C000000000F80
3C000000000F00
3E000000001F00
3E000000001F00
1E000000001E00
1F000000003E00
1F000000003C00
0F800000007C00
0F80000000F800
07C0000000F800
03E0000001F000
03F0000003E000
01F8000007E000
00FC00000FC000
007E00001F8000
003F80007F0000
001FF003FE0000
0007FFFFF80000
0003FFFFE00000
00007FFF800000
00000FFC000000
ENDCHAR
STARTCHAR 0050
ENCODING 80
SWIDTH 545 0
DWIDTH 50 0
BBX 37 60 9 0
BITMAP
FFFFFC0000
FFFFFFE000
FFFFFFF800
FFFFFFFE00
F00001FF00
F000003F80
F000000FC0
F0000007E0
F0000003E0
F0000001F0
F0000000F0
F0000000F0
F0000000F8
F0000000F8
F000000078
F000000078
F000000078
F000000078
F000000078
F000000078
F0000000F8
F0000000F0
F0000000F0
F0000001F0
F0000001E0
F0000003E0
F0000007C0
F000000FC0
F000003F80
F00001FF00
FFFFFFFC00
FFFFFFF000
FFFFFFC000
FFFFFC0000
F000000000
F000000000
F000000000
F000000000
F000000000
F000000000
F000000000
F000000000
F000000000
F000000000
F000000000
F000000000
F000000000
F000000000
F000000000
F000000000
F000000000
F000000000
F000000000
F000000000
F000000000
F000000000
F000000000
F000000000
F000000000
F000000000
ENDCHAR
STARTCHAR 0051
ENCODING 81
SWIDTH 654 0
DWIDTH 60 0
BBX 50 76 5 -14
BITMAP
00000FFC000000
00007FFF800000
0003FFFFF00000
0007FFFFF80000
001FF003FE0000
003F80007F0000
007E00001F8000
00FC00000FC000
01F8000007E000
03F0000003F000
03E0000001F000
07C0000000F800
0F800000007C00
0F800000007C00
1F000000003E00
1F000000003E00
1E000000001E00
3E000000001F00
3C000000001F00
3C000000000F00
7C000000000F80
7C000000000F80
78000000000780
78000000000780
78000000000780
F80000000007C0
F80000000007C0
F80000000007C0
F80000000007C0
F80000000007C0
F00000000007C0
F00000000007C0
F00000000007C0
F80000000007C0
F80000000007C0
F80000000007C0
F80000000007C0
F8000000000780
78000000000780
78000000000780
78000000000780
7C000000000F80
7C000000000F80
3C000000000F00
3C000000001F00
3E000000001F00
1E000000001E00
1F000000003E00
1F000000003C00
0F800000007C00
0F800000007800
07C0000000F800
03E0000001F000
03E0000003F000
01F0000007E000
00FC00000FC000
007E00001F8000
003F80007F0000
001FE001FE0000
000FFF3FF80000
0003FFFFF00000
0000FFFF800000
00001FFC000000
000001E0000000
000001F0000000
000000F8000000
000000F8000000
0000007C000000
0000003F000000
0000001F800000
0000000FE00000
00000007FC0080
00000003FFFF80
00000000FFFFC0
000000003FFFC0
0000000007FE00
ENDCHAR
STARTCHAR 0052
ENCODING 82
SWIDTH 545 0
DWIDTH 50 0
BBX 38 60 9 0
BITMAP
FFFFFF0000
FFFFFFF000
FFFFFFFC00
FFFFFFFE00
F00000FF80
F000001FC0
F0000007E0
F0000003E0
F0000001F0
F0000001F0
F0000000F0
F0000000F8
F0000000F8
F000000078
F000000078
F000000078
F000000078
F000000078
F000000078
F0000000F8
F0000000F8
F0000000F0
F0000001F0
F0000001E0
F0000003E0
F0000007C0
F000001F80
F000007F80
F00003FE00
FFFFFFFC00
FFFFFFF000
FFFFFF8000
F0007C0000
F0003C0000
F0003E0000
F0001F0000
F0001F0000
F0000F8000
F000078000
F00007C000
F00003E000
F00003E000
F00001F000
F00001F000
F00000F800
F000007C00
F000007C00
F000003E00
F000003E00
F000001F00
F000000F80
F000000F80
F0000007C0
F0000007C0
F0000003E0
F0000001F0
F0000001F0
F0000000F8
F0000000F8
F00000007C
ENDCHAR
STARTCHAR 0053
ENCODING 83
SWIDTH 523 0
DWIDTH 48 0
BBX 39 63 5 -1
BITMAP
0001FF8000
000FFFF000
003FFFFE00
00FFFFFF00
01FE007FC0
03F0000FE0
07E00003F0
07C00001F8
0F80000070
0F00000020
1F00000000
1E00000000
1E00000000
1E00000000
3E00000000
3E00000000
3E00000000
1E00000000
1E00000000
1F00000000
1F00000000
0F80000000
07C0000000
07F0000000
03F8000000
01FE000000
00FF800000
003FE00000
001FFC0000
0007FF0000
0000FFC000
00003FF000
00000FFC00
000003FF00
000000FF80
0000001FC0
0000000FE0
00000003F0
00000001F8
00000000FC
000000007C
000000003C
000000003E
000000003E
000000003E
000000001E
000000001E
000000001E
000000001E
000000003E
000000003E
600000003C
F00000007C
F800000078
FC000000F8
7E000001F0
3F800003F0
1FE0000FE0
0FFC007FC0
03FFFFFF00
00FFFFFE00
003FFFF000
0003FF8000
ENDCHAR
STARTCHAR 0054
ENCODING 84
SWIDTH 523 0
DWIDTH 48 0
BBX 42 60 3 0
BITMAP
FFFFFFFFFFC0
FFFFFFFFFFC0
FFFFFFFFFFC0
FFFFFFFFFFC0
00001E000000
00001E000000
00001E000000
00001E000000
00001E000000
00001E000000
00001E000000
00001E000000
00001E000000
00001E000000
00001E000000
00001E000000
00001E000000
00001E000000
00001E000000
00001E000000
00001E000000
00001E000000
00001E000000
00001E000000
00001E000000
00001E000000
00001E000000
00001E000000
00001E000000
00001E000000
00001E000000
00001E000000
00001E000000
00001E000000
00001E000000
00001E000000
00001E000000
00001E000000
00001E000000
00001E000000
00001E000000
00001E000000
00001E000000
00001E000000
00001E000000
00001E000000
00001E000000
00001E000000
00001E000000
00001E000000
00001E000000
00001E000000
00001E000000
00001E000000
00001E000000
00001E000000
00001E000000
00001E000000
00001E000000
00001E000000
ENDCHAR
STARTCHAR 0055
ENCODING 85
SWIDTH 632 0
DWIDTH 58 0
BBX 40 61 9 -1
BITMAP
F00000000F
F00000000F
F00000000F
F00000000F
F00000000F
F00000000F
F00000000F
F00000000F
F00000000F
F00000000F
F00000000F
F00000000F
F00000000F
F00000000F
F00000000F
F00000000F
F00000000F
F00000000F
F00000000F
F00000000F
F00000000F
F00000000F
F00000000F
F00000000F
F00000000F
F00000000F
F00000000F
F00000000F
F00000000F
F00000000F
F00000000F
F00000000F
F00000000F
F00000000F
F00000000F
F00000000F
F00000000F
F00000000F
F00000000F
F00000000F
F00000000F
F00000000F
F00000000F
F80000000F
F80000000F
780000001F
780000001E
7C0000001E
7C0000003E
3E0000003C
3E0000007C
1F00000078
1F800000F8
0FC00001F0
07E00003E0
07F0000FE0
01FE007F80
00FFFFFF00
007FFFFE00
001FFFF000
0001FF8000
ENDCHAR
STARTCHAR 0056
ENCODING 86
SWIDTH 490 0
DWIDTH 45 0
BBX 43 60 1 0
BITMAP
F000000001E0
F000000001E0
F800000001E0
7800000003C0
7800000003C0
7C00000003C0
3C00000007C0
3C0000000780
3E0000000780
1E0000000F80
1E0000000F00
1F0000000F00
0F0000001F00
0F0000001E00
0F0000001E00
078000003E00
078000003C00
078000003C00
03C000007C00
03C000007800
03C000007800
01E00000F800
01E00000F000
01E00000F000
00F00000F000
00F00001E000
00F00001E000
00780001E000
00780003C000
00780003C000
003C0003C000
003C00078000
003C00078000
001E00078000
001E000F0000
001E000F0000
000F000F0000
000F001E0000
000F001E0000
0007001E0000
0007803C0000
0007803C0000
0003803C0000
0003C0380000
0003C0780000
0001C0780000
0001E0700000
0001E0F00000
0000E0F00000
0000F0E00000
0000F1E00000
000071E00000
000079C00000
00007BC00000
00003BC00000
00003F800000
00003F800000
00001F800000
00001F000000
00001F000000
ENDCHAR
STARTCHAR 0057
ENCODING 87
SWIDTH 774 0
DWIDTH 71 0
BBX 65 60 3 0
BITMAP
F0000003E000000780
F0000003E000000F00
F8000007E000000F00
F8000007E000000F00
78000007F000000F00
780000077000000F00
7800000F7000001E00
7C00000F7800001E00
7C00000E7800001E00
3C00000E7800001E00
3C00001E3800003C00
3C00001E3C00003C00
3E00001C3C00003C00
1E00001C3C00003C00
1E00003C1C00003C00
1E00003C1E00007800
1F0000381E00007800
0F0000781E00007800
0F0000780E00007800
0F0000780F00007000
0F0000700F0000F000
0F8000F00F0000F000
078000F0078000F000
078000E0078000F000
078000E0078001E000
078001E0078001E000
03C001E003C001E000
03C001C003C001E000
03C001C003C001C000
03C003C001C003C000
01E003C001E003C000
01E0038001E003C000
01E0078001E003C000
01E0078000E0078000
01E0078000F0078000
00F0070000F0078000
00F00F0000F0078000
00F00F000078070000
00F00F000078070000
00780E0000780F0000
00781E0000780F0000
00781E00003C0F0000
00781C00003C0E0000
00381C00003C0E0000
003C1C00001C1E0000
003C3C00001E1E0000
003C3800001E1C0000
003C3800001E1C0000
001C3800000E1C0000
001E7800000F3C0000
001E7000000F380000
001E7000000F380000
000E70000007380000
000EF0000007780000
000FE0000007F80000
000FE0000007F00000
000FE0000003F00000
0007E0000003F00000
0007C0000003F00000
0007C0000001E00000
ENDCHAR
STARTCHAR 0058
ENCODING 88
SWIDTH 480 0
DWIDTH 44 0
BBX 40 60 2 0
BITMAP
7C0000001E
3C0000003C
3E0000003C
1E00000078
1F00000078
0F800000F0
07800001F0
07C00001E0
03C00003C0
03E00003C0
01E0000780
00F0000780
00F0000F00
0078001F00
007C001E00
003C003C00
003E003C00
001E007800
000F007800
000F00F000
000780E000
0007C1E000
0003C3C000
0001E3C000
0001E78000
0000F78000
0000FF0000
00007E0000
00007E0000
00007E0000
00007E0000
0000FF0000
0000EF0000
0001E78000
0003C7C000
0003C3C000
000781E000
000781E000
000F00F000
000F00F800
001E007800
003C007C00
003C003C00
0078001E00
0078001F00
00F0000F00
01F0000F80
01E0000780
03C00007C0
03C00003C0
07800001E0
07800001F0
0F000000F0
1F000000F8
1E00000078
3C0000007C
3C0000003E
780000001E
F80000001F
F00000000F
ENDCHAR
STARTCHAR 0059
ENCODING 89
SWIDTH 447 0
DWIDTH 41 0
BBX 39 60 1 0
BITMAP
F00000001E
F80000001E
780000003C
780000003C
3C00000078
3C00000078
1E000000F0
1E000000F0
0F000001E0
0F000001E0
07800003C0
07800003C0
03C0000780
03C0000780
01E0000F00
01E0000F00
00F0001E00
00F0001E00
0078003C00
0078003C00
003C007800
003C007800
001E007000
001E00F000
000F00E000
000F01E000
000781C000
000783C000
0003C78000
0003C78000
0001EF0000
0001EF0000
0000FE0000
0000FE0000
00007C0000
00007C0000
00007C0000
00007C0000
00007C0000
00007C0000
00007C0000
00007C0000
00007C0000
00007C0000
00007C0000
00007C0000
00007C0000
00007C0000
00007C0000
00007C0000
00007C0000
00007C0000
00007C0000
00007C0000
00007C0000
00007C0000
00007C0000
00007C0000
00007C0000
00007C0000
ENDCHAR
STARTCHAR 005A
ENCODING 90
SWIDTH 534 0
DWIDTH 49 0
BBX 40 60 5 0
BITMAP
1FFFFFFFFF
1FFFFFFFFF
1FFFFFFFFF
1FFFFFFFFE
000000003C
000000007C
0000000078
00000000F0
00000001F0
00000001E0
00000003C0
00000007C0
0000000780
0000000F80
0000001F00
0000001E00
0000003E00
0000007C00
0000007800
000000F800
000001F000
000001E000
000003E000
000003C000
0000078000
00000F8000
00000F0000
00001E0000
00003E0000
00003C0000
00007C0000
0000F80000
0000F00000
0001F00000
0003E00000
0003C00000
0007C00000
0007800000
000F000000
001F000000
001E000000
003C000000
007C000000
0078000000
00F0000000
01F0000000
01E0000000
03E0000000
07C0000000
0780000000
0F80000000
1F00000000
1E00000000
3E00000000
3C00000000
7800000000
FFFFFFFFFF
FFFFFFFFFF
FFFFFFFFFF
FFFFFFFFFF
ENDCHAR
STARTCHAR 005B
ENCODING 91
SWIDTH 283 0
DWIDTH 26 0
BBX 15 79 9 -14
BITMAP
FFFE
FFFE
FFFE
E000
E000
E000
E000
E000
E000
E000
E000
E000
E000
E000
E000
E000
E000
E000
E000
E000
E000
E000
E000
E000
E000
E000
E000
E000
E000
E000
E000
E000
E000
E000
E000
E000
E000
E000
E000
E000
E000
E000
E000
E000
E000
E000
E000
E000
E000
E000
E000
E000
E000
E000
E000
E000
E000
E000
E000
E000
E000
E000
E000
E000
E000
E000
E000
E000
E000
E000
E000
E000
E000
E000
E000
E000
FFFE
FFFE
FFFE
ENDCHAR
STARTCHAR 005C
ENCODING 92
SWIDTH 360 0
DWIDTH 33 0
BBX 31 80 1 -15
BITMAP
E0000000
E0000000
F0000000
70000000
78000000
78000000
38000000
3C000000
3C000000
1C000000
1E000000
1E000000
0E000000
0F000000
07000000
07000000
07800000
03800000
03800000
03C00000
01C00000
01E00000
01E00000
00E00000
00F00000
00F00000
00700000
00780000
00780000
00380000
003C0000
001C0000
001C0000
001E0000
000E0000
000E0000
000F0000
00070000
00070000
00078000
00038000
0003C000
0003C000
0001C000
0001E000
0001E000
0000E000
0000F000
0000F000
00007000
00007800
00003800
00003800
00003C00
00001C00
00001C00
00001E00
00000E00
00000F00
00000F00
00000700
00000780
00000780
00000380
000003C0
000003C0
000001C0
000001E0
000000E0
000000E0
000000F0
00000070
00000070
00000078
00000038
00000038
0000003C
0000001C
0000001E
0000001E
ENDCHAR
STARTCHAR 005D
ENCODING 93
SWIDTH 283 0
DWIDTH 26 0
BBX 15 79 2 -14
BITMAP
FFFE
FFFE
FFFE
001E
001E
001E
001E
001E
001E
001E
001E
001E
001E
001E
001E
001E
001E
001E
001E
001E
001E
001E
001E
001E
001E
001E
001E
001E
001E
001E
001E
001E
001E
001E
001E
001E
001E
001E
001E
001E
001E
001E
001E
001E
001E
001E
001E
001E
001E
001E
001E
001E
001E
001E
001E
001E
001E
001E
001E
001E
001E
001E
001E
001E
001E
001E
001E
001E
001E
001E
001E
001E
001E
001E
001E
001E
FFFE
FFFE
FFFE
ENDCHAR
STARTCHAR 005E
ENCODING 94
SWIDTH 480 0
DWIDTH 44 0
BBX 32 35 6 26
BITMAP
0003C000
0007E000
0007E000
000FE000
000FF000
000E7000
001E7800
001C7800
003C3800
003C3C00
00381C00
00781E00
00701E00
00F00E00
00F00F00
00E00700
01E00780
01E00780
03C00380
03C003C0
038003C0
078001E0
078001E0
070000E0
0F0000F0
0F0000F0
1E000078
1E000078
1C000078
3C00003C
3C00003C
7800001E
7800001E
7000001E
F000000F
ENDCHAR
STARTCHAR 005F
ENCODING 95
SWIDTH 501 0
DWIDTH 46 0
BBX 44 3 1 -10
BITMAP
FFFFFFFFFFF0
FFFFFFFFFFF0
FFFFFFFFFFF0
ENDCHAR
STARTCHAR 0060
ENCODING 96
SWIDTH 534 0
DWIDTH 49 0
BBX 15 16 14 52
BITMAP
2000
7000
F800
7C00
3E00
1F00
0F80
0780
07C0
03E0
01F0
00F8
007C
003E
001E
000C
ENDCHAR
STARTCHAR 0061
ENCODING 97
SWIDTH 490 0
DWIDTH 45 0
BBX 33 47 5 -1
BITMAP
0003FE0000
001FFFC000
00FFFFE000
03FFFFF000
0FF001F800
1FC0007C00
1F00003E00
1C00003E00
0800001F00
0000001F00
0000000F00
0000000F00
0000000F00
0000000F80
0000000780
0000000780
0000000780
0000000780
000000FF80
00003FFF80
0003FFFF80
001FFF8780
007FE00780
01FF000780
03F8000780
0FE0000780
1F80000780
1F00000780
3E00000780
7C00000780
7800000780
7800000780
7800000780
F800000780
F000000780
F800000780
F800000F80
7800001F80
7800003F80
7C00007F80
7C0001F780
3E0007E780
1F801F8780
1FFBFF0780
07FFFC0780
03FFF00780
007F800000
ENDCHAR
STARTCHAR 0062
ENCODING 98
SWIDTH 545 0
DWIDTH 50 0
BBX 37 67 8 -1
BITMAP
F000000000
F000000000
F000000000
F000000000
F000000000
F000000000
F000000000
F000000000
F000000000
F000000000
F000000000
F000000000
F000000000
F000000000
F000000000
F000000000
F000000000
F000000000
F000000000
F000000000
F000FF0000
F007FFE000
F01FFFF800
F07FFFFC00
F0FC00FE00
F3F0003F00
F7C0001F80
FF80000FC0
FE000007C0
FC000003E0
F8000003E0
F0000001E0
F0000001F0
F0000000F0
F0000000F0
F0000000F8
F0000000F8
F0000000F8
F000000078
F000000078
F000000078
F000000078
F000000078
F000000078
F000000078
F000000078
F000000078
F0000000F8
F0000000F8
F0000000F0
F0000000F0
F0000000F0
F0000001F0
F0000001E0
F0000003E0
F0000003E0
F0000007C0
F000000780
FC00000F80
FE00001F00
FF00003E00
F7C000FC00
F3F801F800
F1FFFFF000
F07FFFE000
F01FFF8000
0003FC0000
ENDCHAR
STARTCHAR 0063
ENCODING 99
SWIDTH 447 0
DWIDTH 41 0
BBX 33 47 5 -1
BITMAP
0000FF0000
000FFFE000
003FFFF800
007FFFFC00
00FE007F00
03F8001F80
03E0000F00
07C0000600
0F80000000
1F00000000
1F00000000
3E00000000
3C00000000
7C00000000
7C00000000
7800000000
7800000000
F800000000
F000000000
F000000000
F000000000
F000000000
F000000000
F000000000
F000000000
F000000000
F000000000
F000000000
F000000000
F800000000
F800000000
7800000000
7800000000
7C00000000
3C00000000
3E00000000
1E00000000
1F00000000
0F80000100
0FC0000380
07E0000780
03F8001F80
01FE007F00
00FFFFFE00
003FFFF800
000FFFE000
0001FF0000
ENDCHAR
STARTCHAR 0064
ENCODING 100
SWIDTH 545 0
DWIDTH 50 0
BBX 36 67 5 -1
BITMAP
00000000F0
00000000F0
00000000F0
00000000F0
00000000F0
00000000F0
00000000F0
00000000F0
00000000F0
00000000F0
00000000F0
00000000F0
00000000F0
00000000F0
00000000F0
00000000F0
00000000F0
00000000F0
00000000F0
00000000F0
0001FF00F0
000FFFC0F0
003FFFF0F0
007FFFFC70
00FE007E70
03F8001FF0
03E00007F0
07C00003F0
0F800001F0
1F000000F0
1F000000F0
3E000000F0
3E000000F0
3C000000F0
7C000000F0
78000000F0
78000000F0
F8000000F0
F8000000F0
F0000000F0
F0000000F0
F0000000F0
F0000000F0
F0000000F0
F0000000F0
F0000000F0
F0000000F0
F0000000F0
F0000000F0
F8000000F0
F8000000F0
78000000F0
78000000F0
7C000000F0
7C000000F0
3C000000F0
3E000000F0
1F000001F0
1F000003F0
0F800007F0
0FC0001F70
07F0003E70
03FC00FC70
01FFFFF070
007FFFE070
001FFF8070
0003FC0000
ENDCHAR
STARTCHAR 0065
ENCODING 101
SWIDTH 480 0
DWIDTH 44 0
BBX 36 47 5 -1
BITMAP
0001FE0000
000FFFC000
003FFFF000
007FFFF800
00FC00FE00
03F0003E00
03E0001F00
07C0000F80
0F80000780
1F000003C0
1E000003C0
3E000003E0
3C000001E0
3C000001E0
78000001E0
78000000E0
78000000F0
F0000000F0
F0000000F0
F0000000F0
F0000000F0
FFFFFFFFF0
FFFFFFFFF0
FFFFFFFFF0
F000000000
F000000000
F000000000
F000000000
F000000000
F800000000
7800000000
7800000000
7800000000
7C00000000
3C00000000
3E00000000
1E00000000
1F00000000
0F80000000
07C0000000
07E0000180
03F8000780
01FE001FC0
007FF7FF80
003FFFFE00
000FFFF000
0000FF8000
ENDCHAR
STARTCHAR 0066
ENCODING 102
SWIDTH 261 0
DWIDTH 24 0
BBX 23 67 3 0
BITMAP
0007F8
001FFE
003FFE
007FFE
00F800
00F000
01F000
01E000
01E000
03C000
03C000
03C000
03C000
03C000
03C000
03C000
03C000
03C000
03C000
03C000
03C000
03C000
03C000
FFFFF0
FFFFF0
FFFFF0
03C000
03C000
03C000
03C000
03C000
03C000
03C000
03C000
03C000
03C000
03C000
03C000
03C000
03C000
03C000
03C000
03C000
03C000
03C000
03C000
03C000
03C000
03C000
03C000
03C000
03C000
03C000
03C000
03C000
03C000
03C000
03C000
03C000
03C000
03C000
03C000
03C000
03C000
03C000
03C000
03C000
ENDCHAR
STARTCHAR 0067
ENCODING 103
SWIDTH 490 0
DWIDTH 45 0
BBX 39 67 5 -21
BITMAP
0007F80000
003FFC0000
007FFFFFFC
01FFFFFFFC
03FE0FFFFC
07F003F000
07C000F800
0F80007C00
1F00003C00
1F00001E00
1E00001E00
3E00000F00
3C00000F00
3C00000F00
3C00000F00
3C00000700
3C00000700
3C00000700
3C00000F00
3C00000F00
3C00000F00
1E00000F00
1E00001E00
1F00001E00
0F00003C00
0780007C00
07E000F800
03F003F000
01FE0FE000
03FFFFC000
07BFFF0000
0F07F80000
0F00000000
1E00000000
1E00000000
1C00000000
3C00000000
3C00000000
1E00000000
1E00000000
1F00000000
0FC0000000
0FFFFFF800
03FFFFFF80
03FFFFFFE0
07BFFFFFF0
0F000007F8
1E000000FC
3C0000007C
780000003C
780000003E
F00000003E
F00000003E
F00000003E
F00000003C
F00000003C
F00000003C
F000000078
F8000000F8
7C000001F0
7E000003E0
3F00000FC0
1FC0003F80
0FFE07FE00
03FFFFFC00
00FFFFE000
000FFE0000
ENDCHAR
STARTCHAR 0068
ENCODING 104
SWIDTH 523 0
DWIDTH 48 0
BBX 33 66 8 0
BITMAP
F000000000
F000000000
F000000000
F000000000
F000000000
F000000000
F000000000
F000000000
F000000000
F000000000
F000000000
F000000000
F000000000
F000000000
F000000000
F000000000
F000000000
F000000000
F000000000
F000000000
F000FF0000
F007FFE000
F01FFFF000
F03FFFF800
F0FC01FC00
F1F0007E00
F3E0003E00
F780001F00
FF00001F00
FE00000F00
FC00000F00
F800000F80
F000000780
F000000780
F000000780
F000000780
F000000780
F000000780
F000000780
F000000780
F000000780
F000000780
F000000780
F000000780
F000000780
F000000780
F000000780
F000000780
F000000780
F000000780
F000000780
F000000780
F000000780
F000000780
F000000780
F000000780
F000000780
F000000780
F000000780
F000000780
F000000780
F000000780
F000000780
F000000780
F000000780
F000000780
ENDCHAR
STARTCHAR 0069
ENCODING 105
SWIDTH 229 0
DWIDTH 21 0
BBX 7 62 7 0
BITMAP
3C
7E
FE
FE
FE
FE
7C
00
00
00
00
00
00
00
00
00
00
00
78
78
78
78
78
78
78
78
78
78
78
78
78
78
78
78
78
78
78
78
78
78
78
78
78
78
78
78
78
78
78
78
78
78
78
78
78
78
78
78
78
78
78
78
ENDCHAR
STARTCHAR 006A
ENCODING 106
SWIDTH 229 0
DWIDTH 21 0
BBX 17 83 -3 -21
BITMAP
000F00
001F80
003F80
003F80
003F80
003F80
001F00
000000
000000
000000
000000
000000
000000
000000
000000
000000
000000
000000
001F00
001F00
001F00
001F00
001F00
001F00
001F00
001F00
001F00
001F00
001F00
001F00
001F00
001F00
001F00
001F00
001F00
001F00
001F00
001F00
001F00
001F00
001F00
001F00
001F00
001F00
001F00
001F00
001F00
001F00
001F00
001F00
001F00
001F00
001F00
001F00
001F00
001F00
001F00
001F00
001F00
001F00
001F00
001F00
001F00
001F00
001F00
001F00
001F00
001F00
001F00
001F00
001F00
001F00
001E00
001E00
001E00
001E00
001E00
003C00
007C00
7BF800
FFF800
FFE000
3F8000
ENDCHAR
STARTCHAR 006B
ENCODING 107
SWIDTH 469 0
DWIDTH 43 0
BBX 33 66 8 0
BITMAP
F000000000
F000000000
F000000000
F000000000
F000000000
F000000000
F000000000
F000000000
F000000000
F000000000
F000000000
F000000000
F000000000
F000000000
F000000000
F000000000
F000000000
F000000000
F000000000
F000000000
F000000000
F000000000
F000003E00
F000007C00
F00000F800
F00000F000
F00001E000
F00003E000
F00007C000
F0000F8000
F0001F0000
F0001E0000
F0003C0000
F0007C0000
F000F80000
F001F00000
F001E00000
F003C00000
F007C00000
F00F800000
F01F800000
F03FC00000
F03FE00000
F079E00000
F0F8F00000
F1F0F80000
F3E0780000
F3C07C0000
F7803C0000
FF001E0000
FE001F0000
FE000F0000
FC00078000
F80007C000
F00003C000
F00003E000
F00001E000
F00000F000
F00000F800
F000007800
F000003C00
F000003E00
F000001E00
F000001F00
F000000F00
F000000780
ENDCHAR
STARTCHAR 006C
ENCODING 108
SWIDTH 240 0
DWIDTH 22 0
BBX 9 67 8 -1
BITMAP
F000
F000
F000
F000
F000
F000
F000
F000
F000
F000
F000
F000
F000
F000
F000
F000
F000
F000
F000
F000
F000
F000
F000
F000
F000
F000
F000
F000
F000
F000
F000
F000
F000
F000
F000
F000
F000
F000
F000
F000
F000
F000
F000
F000
F000
F000
F000
F000
F000
F000
F000
F000
F000
F000
F000
F000
F000
F000
F000
F000
F000
F800
7800
7F00
7F00
3F80
1F80
ENDCHAR
STARTCHAR 006D
ENCODING 109
SWIDTH 807 0
DWIDTH 74 0
BBX 59 46 8 0
BITMAP
0001FE00003FC000
0007FF8000FFF000
F01FFFE003FFFC00
F07FFFF007FFFE00
F0FC03F81F807F00
F1F000F83E001F00
F3C0007C78000F80
F780007CF0000F80
FF00003DE00007C0
FE00003FC00007C0
FC00001F800003C0
F800001F000003C0
F000001F000003E0
F000001F000003E0
F000001F000003E0
F000000F000001E0
F000000F000001E0
F000000F000001E0
F000000F000001E0
F000000F000001E0
F000000F000001E0
F000000F000001E0
F000000F000001E0
F000000F000001E0
F000000F000001E0
F000000F000001E0
F000000F000001E0
F000000F000001E0
F000000F000001E0
F000000F000001E0
F000000F000001E0
F000000F000001E0
F000000F000001E0
F000000F000001E0
F000000F000001E0
F000000F000001E0
F000000F000001E0
F000000F000001E0
F000000F000001E0
F000000F000001E0
F000000F000001E0
F000000F000001E0
F000000F000001E0
F000000F000001E0
F000000F000001E0
F000000F000001E0
ENDCHAR
STARTCHAR 006E
ENCODING 110
SWIDTH 534 0
DWIDTH 49 0
BBX 33 46 8 0
BITMAP
0000FF0000
0007FFE000
F01FFFF000
F03FFFF800
F0FC01FC00
F1F0007E00
F3E0003E00
F780001F00
FF00001F00
FE00000F00
FC00000F00
F800000F80
F000000780
F000000780
F000000780
F000000780
F000000780
F000000780
F000000780
F000000780
F000000780
F000000780
F000000780
F000000780
F000000780
F000000780
F000000780
F000000780
F000000780
F000000780
F000000780
F000000780
F000000780
F000000780
F000000780
F000000780
F000000780
F000000780
F000000780
F000000780
F000000780
F000000780
F000000780
F000000780
F000000780
F000000780
ENDCHAR
STARTCHAR 006F
ENCODING 111
SWIDTH 534 0
DWIDTH 49 0
BBX 39 47 5 -1
BITMAP
0001FF0000
000FFFE000
003FFFF800
007FFFFC00
01FC00FF00
03F0003F80
07E0000FC0
07C00007E0
0F800003E0
1F000001F0
1E000000F0
3E000000F8
3C00000078
7C0000007C
780000003C
780000003C
780000003E
F80000003E
F00000001E
F00000001E
F00000001E
F00000001E
F00000001E
F00000001E
F00000001E
F00000001E
F00000001E
F00000001E
F00000001E
F80000003E
780000003E
780000003C
780000003C
7C0000007C
3C00000078
3E000000F8
1E000000F0
1F000001F0
0F800003E0
07C00007E0
07E0000FC0
03F0001F80
01FE007F00
007FFFFC00
003FFFF800
000FFFE000
0001FF0000
ENDCHAR
STARTCHAR 0070
ENCODING 112
SWIDTH 545 0
DWIDTH 50 0
BBX 37 66 8 -20
BITMAP
0000FF0000
0007FFE000
F01FFFF800
F07FFFFC00
F0FC00FE00
F3F0003F00
F7C0001F80
FF80000FC0
FE000007C0
FC000003E0
F8000003E0
F0000001E0
F0000001F0
F0000000F0
F0000000F0
F0000000F8
F0000000F8
F0000000F8
F000000078
F000000078
F000000078
F000000078
F000000078
F000000078
F000000078
F000000078
F000000078
F0000000F8
F0000000F8
F0000000F0
F0000000F0
F0000000F0
F0000001F0
F0000001E0
F0000003E0
F0000003E0
F0000007C0
F000000780
F800000F80
FE00001F00
FF00003E00
FFC0007C00
F3F801F800
F1FFFFF000
F07FFFE000
F01FFF8000
F003FC0000
F000000000
F000000000
F000000000
F000000000
F000000000
F000000000
F000000000
F000000000
F000000000
F000000000
F000000000
F000000000
F000000000
F000000000
F000000000
F000000000
F000000000
F000000000
F000000000
ENDCHAR
STARTCHAR 0071
ENCODING 113
SWIDTH 545 0
DWIDTH 50 0
BBX 36 66 5 -20
BITMAP
0001FF0000
000FFFE000
003FFFF870
007FFFFC70
00FE007F70
03F8001FF0
03E00007F0
07C00003F0
0F800001F0
1F000000F0
1F000000F0
3E000000F0
3E000000F0
3C000000F0
7C000000F0
78000000F0
78000000F0
F8000000F0
F8000000F0
F0000000F0
F0000000F0
F0000000F0
F0000000F0
F0000000F0
F0000000F0
F0000000F0
F0000000F0
F0000000F0
F0000000F0
F8000000F0
F8000000F0
78000000F0
78000000F0
7C000000F0
7C000000F0
3C000000F0
3E000000F0
1F000001F0
1F000003F0
0F800007F0
0FC0001F70
07F0003E70
03FC00FC70
01FFFFF0F0
007FFFE0F0
001FFF80F0
0003FC00F0
00000000F0
00000000F0
00000000F0
00000000F0
00000000F0
00000000F0
00000000F0
00000000F0
00000000F0
00000000F0
00000000F0
00000000F0
00000000F0
00000000F0
00000000F0
00000000F0
00000000F0
00000000F0
00000000F0
ENDCHAR
STARTCHAR 0072
ENCODING 114
SWIDTH 316 0
DWIDTH 29 0
BBX 21 46 8 0
BITMAP
0003F0
000FF8
F03FF8
F07FF8
F0F808
F1F000
F3C000
F38000
F70000
FF0000
FE0000
FC0000
FC0000
F80000
F80000
F00000
F00000
F00000
F00000
F00000
F00000
F00000
F00000
F00000
F00000
F00000
F00000
F00000
F00000
F00000
F00000
F00000
F00000
F00000
F00000
F00000
F00000
F00000
F00000
F00000
F00000
F00000
F00000
F00000
F00000
F00000
ENDCHAR
STARTCHAR 0073
ENCODING 115
SWIDTH 403 0
DWIDTH 37 0
BBX 31 47 3 -1
BITMAP
000FF000
007FFF00
01FFFFC0
03FFFFE0
07E007F8
0F8000F0
1F000060
1E000000
1E000000
3C000000
3C000000
3C000000
3C000000
3C000000
3E000000
1E000000
1F000000
0FC00000
07E00000
03FC0000
01FF0000
00FFE000
003FF800
0007FE00
0001FF80
00003FE0
00000FF0
000003F8
000000F8
0000007C
0000003C
0000003E
0000003E
0000001E
0000001E
0000001E
0000001E
0000003E
2000003C
7800007C
FC000078
7F0001F8
3FC003F0
0FFF7FE0
07FFFF80
00FFFF00
001FF000
ENDCHAR
STARTCHAR 0074
ENCODING 116
SWIDTH 316 0
DWIDTH 29 0
BBX 24 58 3 -1
BITMAP
01E000
01E000
01E000
01E000
01E000
01E000
01E000
01E000
01E000
01E000
01E000
01E000
01E000
FFFFFE
FFFFFE
FFFFFE
03E000
03E000
03E000
03E000
03E000
03E000
03E000
03E000
03E000
03E000
03E000
03E000
03E000
03E000
03E000
03E000
03E000
03E000
03E000
03E000
03E000
03E000
03E000
03E000
03E000
03E000
03E000
03E000
03E000
03E000
01E000
01E000
01E000
01E000
01E000
01F000
00F800
00FC03
007FFF
003FFF
001FFF
0007F8
ENDCHAR
STARTCHAR 0075
ENCODING 117
SWIDTH 534 0
DWIDTH 49 0
BBX 32 45 8 -1
BITMAP
F000000F
F000000F
F000000F
F000000F
F000000F
F000000F
F000000F
F000000F
F000000F
F000000F
F000000F
F000000F
F000000F
F000000F
F000000F
F000000F
F000000F
F000000F
F000000F
F000000F
F000000F
F000000F
F000000F
F000000F
F000000F
F000000F
F000000F
F000000F
F000000F
F000000F
F000000F
F000000F
F000000F
F000001F
F800003F
7800007F
780000FF
7C0001EF
3E0003CF
3F00078F
1F801F0F
0FFFFE0F
07FFF807
03FFF007
007F8000
ENDCHAR
STARTCHAR 0076
ENCODING 118
SWIDTH 436 0
DWIDTH 40 0
BBX 37 44 1 0
BITMAP
F800000078
7800000078
7800000078
7C000000F0
3C000000F0
3C000000F0
1E000001E0
1E000001E0
1F000001E0
0F000003C0
0F000003C0
0F80000780
0780000780
0780000780
03C0000F00
03C0000F00
03C0000F00
01E0001E00
01E0001E00
01F0001C00
00F0003C00
00F0003C00
0078007800
0078007800
0078007800
003C00F000
003C00F000
003C00E000
001E01E000
001E01E000
000E01C000
000F03C000
000F03C000
0007038000
0007878000
0007878000
0003C70000
0003CF0000
0001CE0000
0001FE0000
0001FE0000
0000FC0000
0000FC0000
0000FC0000
ENDCHAR
STARTCHAR 0077
ENCODING 119
SWIDTH 687 0
DWIDTH 63 0
BBX 58 44 2 0
BITMAP
F800001F000003C0
7800001F000003C0
7800003F800003C0
7C00003F800003C0
7C00003B80000780
3C00003B80000780
3C00007BC0000780
3E000073C0000F00
1E000071C0000F00
1E0000F1E0000F00
1F0000F1E0000F00
0F0000E0E0001E00
0F0000E0E0001E00
0F0001E0F0001E00
0F8001C0F0001C00
078001C070003C00
078003C078003C00
0780038078003C00
03C0038078007800
03C0038038007800
03C007803C007800
01E007003C007000
01E007001C00F000
01E00F001E00F000
01E00F001E00F000
00F00E001E01E000
00F00E000E01E000
00F01E000F01E000
00701C000F01C000
00781C000703C000
00781C000783C000
00783C000783C000
003C380007838000
003C380003878000
003C780003C78000
001C700003C70000
001E700003C70000
001E700001CF0000
000EF00001EF0000
000EE00001EE0000
000FE00000FE0000
000FE00000FE0000
0007C00000FC0000
0007C00000FC0000
ENDCHAR
STARTCHAR 0078
ENCODING 120
SWIDTH 403 0
DWIDTH 37 0
BBX 34 44 2 0
BITMAP
7800000F00
7C00000F00
3E00001E00
1E00003E00
1F00003C00
0F00007800
0780007800
07C000F000
03C001E000
01E001E000
01F003C000
00F0078000
0078078000
007C0F0000
003C0E0000
001E1E0000
001F3C0000
000F3C0000
0007F80000
0007F00000
0003F00000
0003E00000
0007F00000
0007F00000
000F780000
001E3C0000
001E3C0000
003C1E0000
00780F0000
00780F0000
00F0078000
01E007C000
01E003C000
03C001E000
07C001F000
078000F000
0F00007800
1F00007C00
1E00003C00
3C00001E00
3C00001F00
7800000F00
F800000780
F0000007C0
ENDCHAR
STARTCHAR 0079
ENCODING 121
SWIDTH 436 0
DWIDTH 40 0
BBX 38 64 1 -20
BITMAP
F80000003C
7800000078
7800000078
7C00000078
3C000000F0
3E000000F0
1E000000F0
1E000001E0
0F000001E0
0F000003E0
0F800003C0
07800003C0
0780000780
03C0000780
03C0000780
03C0000F00
01E0000F00
01E0000F00
00F0001E00
00F0001E00
00F0001E00
0078003C00
0078003C00
003C003C00
003C007800
003C007800
001E007800
001E00F000
000E00F000
000F00E000
000F01E000
000781E000
000781C000
000383C000
0003C3C000
0003C38000
0001E78000
0001E78000
0000E70000
0000FF0000
0000FF0000
00007E0000
00007E0000
00003E0000
00003C0000
00003C0000
0000380000
0000780000
0000780000
0000700000
0000F00000
0000F00000
0001E00000
0001E00000
0003C00000
0003C00000
0007800000
000F800000
001F000000
007E000000
3FFC000000
3FF8000000
7FE0000000
3F80000000
ENDCHAR
STARTCHAR 007A
ENCODING 122
SWIDTH 403 0
DWIDTH 37 0
BBX 33 44 2 0
BITMAP
1FFFFFFF00
1FFFFFFF00
1FFFFFFE00
0000003E00
0000003C00
0000007800
000000F800
000000F000
000001E000
000003E000
000003C000
0000078000
00000F8000
00000F0000
00001E0000
00003E0000
00003C0000
0000780000
0000F80000
0000F00000
0001E00000
0003E00000
0003C00000
0007800000
000F800000
000F000000
001E000000
003E000000
003C000000
0078000000
00F8000000
01F0000000
01E0000000
03C0000000
07C0000000
0780000000
0F00000000
1F00000000
1E00000000
3C00000000
7FFFFFFF80
7FFFFFFF80
FFFFFFFF80
FFFFFFFF80
ENDCHAR
STARTCHAR 007B
ENCODING 123
SWIDTH 283 0
DWIDTH 26 0
BBX 21 79 3 -14
BITMAP
0007F8
001FF8
003FF8
007C00
007800
00F000
00E000
00E000
00E000
01E000
01E000
01E000
01E000
01E000
01E000
01E000
01E000
00E000
00E000
00E000
00E000
00E000
00E000
00E000
00E000
00E000
00E000
00E000
00E000
00E000
00E000
00E000
00E000
00E000
01E000
01E000
03C000
0FC000
FF0000
FE0000
FF0000
0FC000
03C000
01E000
01E000
00E000
00E000
00E000
00E000
00E000
00E000
00E000
00E000
00E000
00E000
00E000
00E000
00E000
00E000
00E000
00E000
00E000
01E000
01E000
01E000
01E000
01E000
01E000
01E000
01E000
00E000
00E000
00E000
00F000
007800
007C00
003FF8
001FF8
0007F8
ENDCHAR
STARTCHAR 007C
ENCODING 124
SWIDTH 229 0
DWIDTH 21 0
BBX 3 92 9 -23
BITMAP
E0
E0
E0
E0
E0
E0
E0
E0
E0
E0
E0
E0
E0
E0
E0
E0
E0
E0
E0
E0
E0
E0
E0
E0
E0
E0
E0
E0
E0
E0
E0
E0
E0
E0
E0
E0
E0
E0
E0
E0
E0
E0
E0
E0
E0
E0
E0
E0
E0
E0
E0
E0
E0
E0
E0
E0
E0
E0
E0
E0
E0
E0
E0
E0
E0
E0
E0
E0
E0
E0
E0
E0
E0
E0
E0
E0
E0
E0
E0
E0
E0
E0
E0
E0
E0
E0
E0
E0
E0
E0
E0
E0
ENDCHAR
STARTCHAR 007D
ENCODING 125
SWIDTH 283 0
DWIDTH 26 0
BBX 20 79 2 -14
BITMAP
FE0000
FFC000
FFE000
01F000
00F000
007000
007800
007800
003800
003800
003800
003800
003800
003800
003800
003800
003800
003800
003800
003800
003800
003800
003800
007800
007800
007800
007800
007800
007800
007800
007800
007800
007800
003800
003800
003C00
003E00
001F80
000FF0
0003F0
000FF0
001F80
001E00
003C00
003800
003800
007800
007800
007800
007800
007800
007800
007800
007800
007800
007800
003800
003800
003800
003800
003800
003800
003800
003800
003800
003800
003800
003800
003800
003800
003800
007800
007800
007000
00F000
01F000
FFE000
FFC000
FE0000
ENDCHAR
STARTCHAR 007E
ENCODING 126
SWIDTH 480 0
DWIDTH 44 0
BBX 36 11 4 25
BITMAP
01F8000000
07FE000000
0FFF800000
1FBFC00060
3C07E000F0
7801F800E0
F000FC01E0
E0007F07C0
60001FFF80
00000FFF00
000003FC00
ENDCHAR
STARTCHAR 00A0
ENCODING 160
SWIDTH 196 0
DWIDTH 18 0
BBX 0 0 0 0
BITMAP
ENDCHAR
STARTCHAR 00A1
ENCODING 161
SWIDTH 261 0
DWIDTH 24 0
BBX 8 63 8 -17
BITMAP
3C
7E
FF
FF
FF
FF
7E
7C
00
00
00
00
00
00
00
00
00
00
38
38
38
38
38
38
38
3C
3C
3C
3C
3C
3C
3C
3C
3C
3C
3C
3C
3C
3C
3C
3C
3C
3C
3C
3C
3C
3C
3C
3C
3C
3C
3C
3C
3C
3C
3C
3C
3C
3C
3C
3C
3C
3C
ENDCHAR
STARTCHAR 00A2
ENCODING 162
SWIDTH 480 0
DWIDTH 44 0
BBX 34 62 6 -2
BITMAP
0000700000
0000700000
0000700000
0000700000
0000700000
0000700000
0000700000
0000700000
0000700000
0000700000
0000780000
0007FFC000
001FFFF000
007FFFFC00
01FF70FE00
03F8703F00
07E0700F00
0FC0700700
0F80700000
1F00700000
3E00700000
3C00700000
7C00700000
7800700000
7800700000
F800700000
F000700000
F000700000
F000700000
F000700000
F000700000
F000700000
F000700000
F000700000
F000700000
F000700000
F000700000
F800700000
7800700000
7800700000
7C00700000
3C00700000
3E00700000
1F00700000
1F80700100
0FC0700380
07E07007C0
03F8701F80
01FF70FF00
00FFFFFC00
003FFFF000
0007FFC000
0000780000
0000700000
0000700000
0000700000
0000700000
0000700000
0000700000
0000700000
0000700000
0000700000
ENDCHAR
STARTCHAR 00A3
ENCODING 163
SWIDTH 480 0
DWIDTH 44 0
BBX 34 60 5 0
BITMAP
0000FF8000
0007FFF000
000FFFFC00
003FFFFE00
007F003F00
00FC001F80
00F80007C0
01F0000380
01E0000100
03E0000000
03C0000000
03C0000000
03C0000000
07C0000000
0780000000
0780000000
0780000000
07C0000000
07C0000000
03C0000000
03C0000000
03C0000000
03C0000000
03E0000000
01E0000000
01E0000000
01E0000000
00F0000000
00F0000000
00F0000000
FFFFFFE000
FFFFFFE000
FFFFFFE000
0078000000
0078000000
003C000000
003C000000
003C000000
003C000000
003C000000
003C000000
003C000000
003C000000
003C000000
0078000000
0078000000
0078000000
0078000000
00F0000000
00F0000000
01E0000000
01E0000000
03C0000000
0780000000
0F80000000
1F00000000
3FFFFFFFC0
FFFFFFFFC0
FFFFFFFFC0
FFFFFFFFC0
ENDCHAR
STARTCHAR 00A4
ENCODING 164
SWIDTH 480 0
DWIDTH 44 0
BBX 38 39 3 10
BITMAP
6000000010
7000000038
F801FE007C
7C0FFFC0F8
3E3FFFF1F0
1F7FCFFBE0
0FFC00FFC0
07F0003F80
03E0001F00
07C0000F80
0780000780
0F800007C0
0F000003C0
1F000003E0
1E000001E0
1E000001E0
1E000001E0
3E000001E0
3C000001F0
3C000001F0
3C000001F0
3C000001E0
3E000001E0
1E000001E0
1E000001E0
1E000001E0
1F000003C0
0F000003C0
0F80000780
07C0000F80
03E0001F00
07F0003F80
0FF8007FC0
1F7F03FBE0
3E3FFFF1F0
7C1FFFC0F8
F803FF007C
F00000003C
6000000018
ENDCHAR
STARTCHAR 00A5
ENCODING 165
SWIDTH 480 0
DWIDTH 44 0
BBX 38 59 3 0
BITMAP
F00000003C
F800000078
7800000078
3C000000F0
3C000000F0
1E000001E0
1E000001E0
0F000003C0
0F000003C0
0780000780
0780000780
03C0000F00
03C0000F00
01E0001E00
01E0001E00
00F0003C00
00F0003C00
0078007800
0078007800
003C00F000
003C00F000
001E00E000
001E01E000
000F01C000
000F03C000
0007038000
0007878000
0003870000
0003CE0000
0001CE0000
0001FC0000
3FFFFFFFF0
3FFFFFFFF0
3FFFFFFFF0
0000780000
0000780000
0000780000
0000780000
0000780000
0000780000
0000780000
3FFFFFFFF0
3FFFFFFFF0
3FFFFFFFF0
0000780000
0000780000
0000780000
0000780000
0000780000
0000780000
0000780000
0000780000
0000780000
0000780000
0000780000
0000780000
0000780000
0000780000
0000780000
ENDCHAR
STARTCHAR 00A6
ENCODING 166
SWIDTH 229 0
DWIDTH 21 0
BBX 3 92 9 -23
BITMAP
E0
E0
E0
E0
E0
E0
E0
E0
E0
E0
E0
E0
E0
E0
E0
E0
E0
E0
E0
E0
E0
E0
E0
E0
E0
E0
E0
E0
E0
E0
E0
E0
E0
E0
E0
E0
E0
E0
E0
E0
E0
E0
E0
E0
00
00
00
00
00
E0
E0
E0
E0
E0
E0
E0
E0
E0
E0
E0
E0
E0
E0
E0
E0
E0
E0
E0
E0
E0
E0
E0
E0
E0
E0
E0
E0
E0
E0
E0
E0
E0
E0
E0
E0
E0
E0
E0
E0
E0
E0
E0
ENDCHAR
STARTCHAR 00A7
ENCODING 167
SWIDTH 480 0
DWIDTH 44 0
BBX 34 67 5 -5
BITMAP
000FFE0000
003FFFC000
00FFFFE000
01FC07F800
03E000FC00
03C0007800
07C0001000
0780000000
0780000000
0780000000
0780000000
0780000000
0780000000
07C0000000
03C0000000
03E0000000
01F0000000
01FC000000
01FF000000
07FFC00000
0F9FF00000
1F07FC0000
3E01FF0000
7C007FC000
78000FF000
F00003F800
F00000FC00
F000007E00
E000001F00
E000000F80
F000000780
F0000007C0
F0000003C0
F0000003C0
F8000003C0
7C000003C0
7E000003C0
3F000003C0
1F800003C0
0FE00003C0
07F80003C0
01FF000780
00FFC00F80
001FF01F00
0007FC3E00
0001FFFC00
00007FF800
00001FE000
000007E000
000003F000
000001F000
000000F800
0000007800
0000007800
0000007800
0000003800
0000003800
0000007800
0000007800
1800007800
3E0000F000
3F0001F000
1FC007E000
0FFE3FC000
03FFFF8000
00FFFE0000
001FF00000
ENDCHAR
STARTCHAR 00A8
ENCODING 168
SWIDTH 534 0
DWIDTH 49 0
BBX 23 7 13 55
BITMAP
380038
7C007C
FE00FE
FE00FE
FE00FE
FC007C
780038
ENDCHAR
STARTCHAR 00A9
ENCODING 169
SWIDTH 741 0
DWIDTH 68 0
BBX 58 61 5 -1
BITMAP
0000007F80000000
00000FFFFC000000
00007FFFFF800000
0001FF003FE00000
0007F00003F80000
000FC00000FC0000
001F0000003F0000
007C0000000F8000
00F800000007C000
01F000000003E000
03E000000001F000
03C000000000F000
0780000000007800
0F00003FC0003C00
0E0001FFF0001C00
1E0007FFFC001E00
1C000FF9FE000E00
3C001F801F000F00
38003E000F800700
78007C0003000780
7000F80000000380
7000F00000000380
7001E00000000380
F001E000000003C0
E003C000000001C0
E003C000000001C0
E003C000000001C0
E003C000000001C0
E0038000000001C0
E0078000000001C0
E0078000000001C0
E0078000000001C0
E003C000000001C0
E003C000000001C0
E003C000000001C0
E003C000000001C0
F003C000000003C0
F001E000000003C0
7001E00000000380
7001F00000000380
7800F00000000780
3800780001800700
38007C0003C00700
3C003F000F800F00
1C001FC07F000E00
1E000FFFFE001E00
0F0003FFF8003C00
0F0000FFE0003C00
0780000000007800
03C000000000F000
01E000000001E000
01F000000003E000
00F800000007C000
007C0000000F8000
001F0000003E0000
000FC00000FC0000
0007F00003F80000
0001FE001FE00000
00007FFFFF800000
00000FFFFC000000
000000FFC0000000
ENDCHAR
STARTCHAR 00AA
ENCODING 170
SWIDTH 338 0
DWIDTH 31 0
BBX 22 31 4 36
BITMAP
007F00
03FFC0
0FFFF0
3F81F0
7C0078
300078
00003C
00003C
00003C
00001C
00001C
00001C
000FFC
00FFFC
03FE1C
0FC01C
3F001C
3C001C
78001C
F0001C
F0001C
E0001C
E0001C
F0001C
F0003C
F000FC
7801FC
7E079C
3FFF1C
1FFC1C
03F000
ENDCHAR
STARTCHAR 00AB
ENCODING 171
SWIDTH 403 0
DWIDTH 37 0
BBX 27 33 4 7
BITMAP
00080040
001C00E0
003C01E0
003C03E0
007803C0
00F00780
01E00F00
03C01E00
07C03E00
0F807C00
0F00F800
1E00F000
3E01F000
7C03E000
F807C000
F0078000
F0070000
F0078000
F807C000
7C03E000
3E01F000
1E00F000
0F00F800
0F807C00
07C03E00
03C01E00
01E00F00
00F00780
007803C0
007803C0
003C01E0
001C00E0
00080040
ENDCHAR
STARTCHAR 00AC
ENCODING 172
SWIDTH 480 0
DWIDTH 44 0
BBX 38 22 3 10
BITMAP
FFFFFFFFFC
FFFFFFFFFC
FFFFFFFFFC
000000003C
000000003C
000000003C
000000003C
000000003C
000000003C
000000003C
000000003C
000000003C
000000003C
000000003C
000000003C
000000003C
000000003C
000000003C
000000003C
000000003C
000000003C
000000003C
ENDCHAR
STARTCHAR 00AD
ENCODING 173
SWIDTH 294 0
DWIDTH 27 0
BBX 20 4 4 21
BITMAP
FFFFF0
FFFFF0
FFFFF0
FFFFF0
ENDCHAR
STARTCHAR 00AE
ENCODING 174
SWIDTH 403 0
DWIDTH 37 0
BBX 33 36 2 30
BITMAP
0000800000
001FFC0000
00FFFF8000
01F80FC000
03C003E000
0F8000F000
0E00007800
1C00003C00
3C3F801E00
383FF80E00
703FFC0F00
70381E0700
60380E0700
E0380E0380
E0380E0380
E0380E0380
E0380E0380
E0381E0380
E03FFC0380
E03FF00380
E038700380
E038380380
E038380380
E0381C0700
70381E0700
70380E0700
78380F0E00
3800001E00
3C00001C00
1E00003C00
0F00007800
07C001F000
03F007E000
01FFFF8000
007FFE0000
000FF00000
ENDCHAR
STARTCHAR 00AF
ENCODING 175
SWIDTH 534 0
DWIDTH 49 0
BBX 23 3 13 56
BITMAP
FFFFFE
FFFFFE
FFFFFE
ENDCHAR
STARTCHAR 00B0
ENCODING 176
SWIDTH 316 0
DWIDTH 29 0
BBX 21 22 4 41
BITMAP
00F800
07FF00
0FFF80
1F07C0
3C01E0
7800E0
7000F0
F00070
E00078
E00078
E00038
E00038
E00038
E00078
F00070
700070
7800F0
3C01E0
3F07C0
1FFF80
07FF00
01F800
ENDCHAR
STARTCHAR 00B1
ENCODING 177
SWIDTH 480 0
DWIDTH 44 0
BBX 38 51 3 0
BITMAP
0000780000
0000780000
0000780000
0000780000
0000780000
0000780000
0000780000
0000780000
0000780000
0000780000
0000780000
0000780000
0000780000
0000780000
0000780000
0000780000
0000780000
0000780000
0000780000
FFFFFFFFFC
FFFFFFFFFC
FFFFFFFFFC
0000780000
0000780000
0000780000
0000780000
0000780000
0000780000
0000780000
0000780000
0000780000
0000780000
0000780000
0000780000
0000780000
0000780000
0000780000
0000780000
0000780000
0000780000
0000780000
0000000000
0000000000
0000000000
0000000000
0000000000
0000000000
0000000000
FFFFFFFFFC
FFFFFFFFFC
FFFFFFFFFC
ENDCHAR
STARTCHAR 00B2
ENCODING 178
SWIDTH 360 0
DWIDTH 33 0
BBX 25 37 4 37
BITMAP
00FF0000
03FFC000
0FFFE000
1F03F000
3E00F800
78007800
F0003C00
60003C00
20003C00
00001C00
00001C00
00001C00
00001C00
00001C00
00003C00
00003C00
00003800
00007800
00007000
0000F000
0001E000
0003C000
0007C000
00078000
000F0000
001E0000
003C0000
00780000
00F00000
01E00000
03C00000
07800000
0F000000
1E000000
7FFFFF80
7FFFFF80
7FFFFF80
ENDCHAR
STARTCHAR 00B3
ENCODING 179
SWIDTH 360 0
DWIDTH 33 0
BBX 24 38 4 36
BITMAP
00FF00
03FFC0
0FFFF0
1F81F8
3E0078
7C003C
38003C
10001E
00001E
00001E
00001E
00001E
00001C
00003C
000078
0000F0
0003E0
00FFC0
00FF00
00FFE0
0007F8
0000FC
00003E
00001E
00000F
00000F
000007
000007
000007
20000F
E0000F
F0000E
78001E
3E003C
1F81FC
0FFFF0
03FFE0
00FF00
ENDCHAR
STARTCHAR 00B4
ENCODING 180
SWIDTH 534 0
DWIDTH 49 0
BBX 15 16 20 52
BITMAP
0010
001C
003E
007C
00F8
01F0
03E0
03C0
0780
0F80
1F00
3E00
7C00
F800
F000
6000
ENDCHAR
STARTCHAR 00B5
ENCODING 181
SWIDTH 545 0
DWIDTH 50 0
BBX 38 60 8 -16
BITMAP
F000000F00
F000000F00
F000000F00
F000000F00
F000000F00
F000000F00
F000000F00
F000000F00
F000000F00
F000000F00
F000000F00
F000000F00
F000000F00
F000000F00
F000000F00
F000000F00
F000000F00
F000000F00
F000000F00
F000000F00
F000000F00
F000000F00
F000000F00
F000000F00
F000000F00
F000000F00
F000000F00
F000000F00
F800000F00
F800000F00
F800000F00
F800000F00
F800000F00
F800001F00
F800003F00
FC00003F00
FC00007700
FE0000E700
FE0001C700
FF0007C700
F7C00F8780
F7FFFF07FC
F3FFFC03FC
F0FFF803FC
F03FC000FC
F000000000
F000000000
F000000000
F000000000
F000000000
F000000000
F000000000
F000000000
F000000000
F000000000
F000000000
F000000000
F000000000
F000000000
F800000000
ENDCHAR
STARTCHAR 00B6
ENCODING 182
SWIDTH 512 0
DWIDTH 47 0
BBX 34 68 4 -8
BITMAP
0001FF83C0
001FFF83C0
007FFF83C0
01FFFF83C0
03FFFF83C0
07FFFF83C0
0FFFFF83C0
1FFFFF83C0
3FFFFF83C0
3FFFFF83C0
7FFFFF83C0
7FFFFF83C0
7FFFFF83C0
FFFFFF83C0
FFFFFF83C0
FFFFFF83C0
FFFFFF83C0
FFFFFF83C0
FFFFFF83C0
FFFFFF83C0
FFFFFF83C0
FFFFFF83C0
FFFFFF83C0
FFFFFF83C0
FFFFFF83C0
7FFFFF83C0
7FFFFF83C0
7FFFFF83C0
3FFFFF83C0
3FFFFF83C0
1FFFFF83C0
0FFFFF83C0
07FFFF83C0
03FFFF83C0
01FFFF83C0
007FFF83C0
000FFF83C0
0000FF83C0
00000003C0
00000003C0
00000003C0
00000003C0
00000003C0
00000003C0
00000003C0
00000003C0
00000003C0
00000003C0
00000003C0
00000003C0
00000003C0
00000003C0
00000003C0
00000003C0
00000003C0
00000003C0
00000003C0
00000003C0
00000003C0
00000003C0
00000003C0
00000003C0
00000003C0
00000003C0
00000003C0
00000003C0
00000003C0
00000003C0
ENDCHAR
STARTCHAR 00B7
ENCODING 183
SWIDTH 218 0
DWIDTH 20 0
BBX 8 8 6 26
BITMAP
3C
7E
FF
FF
FF
FF
7E
3C
ENDCHAR
STARTCHAR 00B8
ENCODING 184
SWIDTH 534 0
DWIDTH 49 0
BBX 14 20 18 -20
BITMAP
0380
0380
0780
0700
0F00
0E00
1F80
1FE0
03F0
00F8
0078
003C
003C
0038
0078
00F8
07F0
FFC0
FF00
F000
ENDCHAR
STARTCHAR 00B9
ENCODING 185
SWIDTH 360 0
DWIDTH 33 0
BBX 11 36 9 37
BITMAP
01E0
03E0
1FE0
FFE0
FFE0
FFE0
01E0
01E0
01E0
01E0
01E0
01E0
01E0
01E0
01E0
01E0
01E0
01E0
01E0
01E0
01E0
01E0
01E0
01E0
01E0
01E0
01E0
01E0
01E0
01E0
01E0
01E0
01E0
01E0
01E0
01E0
ENDCHAR
STARTCHAR 00BA
ENCODING 186
SWIDTH 360 0
DWIDTH 33 0
BBX 27 31 3 36
BITMAP
003F8000
01FFF000
03FFF800
07C07C00
0F001E00
1E000F00
3C000780
3C000780
780003C0
780003C0
700001C0
F00001C0
F00001E0
F00001E0
F00001E0
F00001E0
F00001E0
F00001E0
F00001E0
F00001C0
700001C0
780003C0
780003C0
3C000780
3C000780
1E000F00
0F801E00
0FE07C00
03FFF800
01FFF000
003F8000
ENDCHAR
STARTCHAR 00BB
ENCODING 187
SWIDTH 403 0
DWIDTH 37 0
BBX 28 33 5 7
BITMAP
20020000
E0070000
F0078000
7803C000
3C01E000
1E00F000
1F00F800
0F807800
07803C00
03C01E00
03E01F00
01F00F80
00F807C0
007C03E0
003E03E0
003E01F0
001E00F0
003E01F0
003E01F0
007C03E0
00F807C0
01F00F80
01E00F00
03C01E00
07803C00
0F807C00
0F00F800
1E00F000
3C01E000
7803C000
70078000
E0070000
60030000
ENDCHAR
STARTCHAR 00BC
ENCODING 188
SWIDTH 763 0
DWIDTH 70 0
BBX 59 62 7 -1
BITMAP
00000000001C0000
01E00000003C0000
03E0000000380000
1FE0000000700000
FFE0000000F00000
FFE0000000E00000
FFE0000001E00000
01E0000001C00000
01E0000003C00000
01E0000003800000
01E0000007800000
01E0000007000000
01E000000F000000
01E000000E000000
01E000001E000000
01E000003C000000
01E0000038000000
01E0000078000000
01E0000070000000
01E00000F0000000
01E00000E0000000
01E00001E0000000
01E00001C0000000
01E00003C0000000
01E0000380000000
01E0000780003C00
01E0000F00007C00
01E0000E00007C00
01E0001E0000FC00
01E0001C0001FC00
01E0003C0001DC00
01E0003800039C00
01E0007800079C00
01E0007000071C00
01E000F0000E3C00
01E000E0001E3C00
000001E0001C3C00
000001C000383C00
000003C000783C00
0000078000703C00
0000070000E03C00
00000F0001E03C00
00000E0003C03C00
00001E0003803C00
00001C0007803C00
00003C000F003C00
000038000E003C00
000078001E003C00
000070003FFFFFE0
0000F0003FFFFFE0
0001E0003FFFFFE0
0001C00000003C00
0003C00000003C00
0003800000003C00
0007800000003C00
0007000000003C00
000F000000003C00
000E000000003C00
001E000000003C00
001C000000003C00
003C000000003C00
0078000000000000
ENDCHAR
STARTCHAR 00BD
ENCODING 189
SWIDTH 785 0
DWIDTH 72 0
BBX 60 62 7 -1
BITMAP
0000000000700000
01E0000000E00000
03E0000001E00000
1FE0000001C00000
FFE0000003C00000
FFE0000003800000
FFE0000007800000
01E0000007000000
01E000000F000000
01E000000E000000
01E000001E000000
01E000001C000000
01E0000038000000
01E0000078000000
01E0000070000000
01E00000F0000000
01E00000E0000000
01E00001E0000000
01E00001C0000000
01E00003C0000000
01E0000380000000
01E0000780000000
01E0000700000000
01E0000F00000000
01E0001E000FE000
01E0001C003FFC00
01E0003C00FFFE00
01E0003801F87F00
01E0007803E01F80
01E0007007800780
01E000F00F0007C0
01E000E0060003C0
01E001E0020003C0
01E001C0000003C0
01E003C0000001C0
01E00380000001C0
00000700000001C0
00000F00000001C0
00000E00000003C0
00001E00000003C0
00001C0000000380
00003C0000000780
0000380000000F00
0000780000000F00
0000700000001E00
0000F00000003C00
0000E00000007C00
0001E00000007800
0003C0000000F000
000380000001E000
000780000003C000
0007000000078000
000F0000000F0000
000E0000001E0000
001E0000003C0000
001C000000780000
003C000001F00000
0038000003E00000
0078000007FFFFF0
00F0000007FFFFF0
00E0000007FFFFF0
01E0000000000000
ENDCHAR
STARTCHAR 00BE
ENCODING 190
SWIDTH 785 0
DWIDTH 72 0
BBX 64 63 4 -1
BITMAP
007F000000003800
03FFC00000007800
07FFF00000007000
1F83F8000000F000
3E0078000000E000
7C003C000001E000
38003C000001C000
10001E000003C000
00001E0000038000
00001E0000078000
00001E0000070000
00001E00000F0000
00001C00000E0000
00003C00001E0000
00003C00001C0000
0000F80000380000
0001F00000780000
000FE00000700000
00FF800000F00000
00FFC00000E00000
00FFF00001E00000
0001F80001C00000
00007C0003C00000
00001E0003800000
00000F0007800000
00000F0007000000
000007000F0001C0
000007000E0003C0
000007001E0007C0
00000F003C0007C0
60000F0038000FC0
F0000F0078001FC0
78001E0070001DC0
3E003C00F00039C0
1F80FC00E00079C0
0FFFF001E00071C0
03FFE001C000E1C0
00FF0003C001C1C0
000000038001C1C0
00000007800381C0
00000007000781C0
0000000F000701C0
0000000E000E01C0
0000001E001E01C0
0000003C001C01C0
00000038003801C0
00000078007801C0
00000070007001C0
000000F000F001C0
000000E001FFFFFF
000001E001FFFFFF
000001C001FFFFFF
000003C0000001C0
00000380000001C0
00000780000001C0
00000700000001C0
00000F00000001C0
00001E00000001C0
00001E00000001C0
00003C00000001C0
00003800000001C0
00007800000001C0
0000700000000000
ENDCHAR
STARTCHAR 00BF
ENCODING 191
SWIDTH 403 0
DWIDTH 37 0
BBX 28 65 5 -19
BITMAP
00078000
000FC000
001FC000
001FE000
001FE000
001FC000
000FC000
000F8000
00000000
00000000
00000000
00000000
00000000
00000000
00000000
00000000
00000000
00000000
00078000
00078000
00078000
00078000
00078000
00078000
00078000
00078000
000F0000
000F0000
001E0000
001E0000
003C0000
007C0000
00780000
00F80000
01F00000
01E00000
03C00000
07C00000
0F800000
0F000000
1E000000
3E000000
3C000000
7C000000
78000000
78000000
F0000000
F0000000
F0000000
F0000000
F0000000
F0000000
F0000000
F0000000
F8000000
F8000000
7C000070
7C0000F0
3E0003E0
1F8007C0
1FE03F80
0FFFFF00
03FFFC00
00FFF000
00060000
ENDCHAR
STARTCHAR 00C0
ENCODING 192
SWIDTH 523 0
DWIDTH 48 0
BBX 46 78 1 0
BITMAP
000100000000
000380000000
0003C0000000
0007E0000000
0003F0000000
0001F8000000
00007C000000
00003E000000
00001F000000
00000F800000
000007C00000
000003E00000
000000C00000
000000000000
000000000000
000000000000
000000000000
000000000000
000007800000
00000FC00000
00000FC00000
00000FC00000
00001FE00000
00001CE00000
00001CF00000
00003CF00000
00003C700000
000038780000
000078780000
000078380000
0000703C0000
0000F03C0000
0000F01C0000
0000E01E0000
0001E01E0000
0001E00E0000
0003C00F0000
0003C00F0000
0003C0078000
000780078000
000780078000
00078003C000
000F0003C000
000F0003C000
000F0001E000
001E0001E000
001E0001E000
001E0000F000
003C0000F000
003C0000F000
007C00007800
007800007800
007800007800
00F800003C00
00FFFFFFFC00
00FFFFFFFE00
01FFFFFFFE00
01FFFFFFFE00
01E000001F00
03C000000F00
03C000000F00
03C000000F80
078000000780
078000000780
0780000007C0
0F00000003C0
0F00000003C0
1F00000003E0
1E00000001E0
1E00000001E0
3E00000001F0
3C00000000F0
3C00000000F8
7C00000000F8
780000000078
78000000007C
F0000000003C
F0000000003C
ENDCHAR
STARTCHAR 00C1
ENCODING 193
SWIDTH 523 0
DWIDTH 48 0
BBX 46 77 1 1
BITMAP
000000030000
000000078000
0000000F8000
0000001F0000
0000003E0000
0000007C0000
000000F00000
000003E00000
000007C00000
00000F800000
00001F000000
00000E000000
000000000000
000000000000
000000000000
000000000000
000000000000
000007800000
00000FC00000
00000FC00000
00000FC00000
00001FE00000
00001CE00000
00001CF00000
00003CF00000
00003C700000
000038780000
000078780000
000078380000
0000703C0000
0000F03C0000
0000F01C0000
0000E01E0000
0001E01E0000
0001E00E0000
0003C00F0000
0003C00F0000
0003C0078000
000780078000
000780078000
00078003C000
000F0003C000
000F0003C000
000F0001E000
001E0001E000
001E0001E000
001E0000F000
003C0000F000
003C0000F000
007C00007800
007800007800
007800007800
00F800003C00
00FFFFFFFC00
00FFFFFFFE00
01FFFFFFFE00
01FFFFFFFE00
01E000001F00
03C000000F00
03C000000F00
03C000000F80
078000000780
078000000780
0780000007C0
0F00000003C0
0F00000003C0
1F00000003E0
1E00000001E0
1E00000001E0
3E00000001F0
3C00000000F0
3C00000000F8
7C00000000F8
780000000078
78000000007C
F0000000003C
F0000000003C
ENDCHAR
STARTCHAR 00C2
ENCODING 194
SWIDTH 523 0
DWIDTH 48 0
BBX 46 76 1 0
BITMAP
00000FC00000
00001FE00000
00003FF00000
00007CF80000
0000F87C0000
0001F03E0000
0003E01F0000
0007C0078000
000F0003C000
001E0001E000
001C0000E000
000800004000
000000000000
000000000000
000000000000
000000000000
000007800000
00000FC00000
00000FC00000
00000FC00000
00001FE00000
00001CE00000
00001CF00000
00003CF00000
00003C700000
000038780000
000078780000
000078380000
0000703C0000
0000F03C0000
0000F01C0000
0000E01E0000
0001E01E0000
0001E00E0000
0003C00F0000
0003C00F0000
0003C0078000
000780078000
000780078000
00078003C000
000F0003C000
000F0003C000
000F0001E000
001E0001E000
001E0001E000
001E0000F000
003C0000F000
003C0000F000
007C00007800
007800007800
007800007800
00F800003C00
00FFFFFFFC00
00FFFFFFFE00
01FFFFFFFE00
01FFFFFFFE00
01E000001F00
03C000000F00
03C000000F00
03C000000F80
078000000780
078000000780
0780000007C0
0F00000003C0
0F00000003C0
1F00000003E0
1E00000001E0
1E00000001E0
3E00000001F0
3C00000000F0
3C00000000F8
7C00000000F8
780000000078
78000000007C
F0000000003C
F0000000003C
ENDCHAR
STARTCHAR 00C3
ENCODING 195
SWIDTH 523 0
DWIDTH 48 0
BBX 46 76 1 0
BITMAP
0007E0001C00
000FF8001C00
001FFE001C00
003F7F003C00
00781F803C00
007007C07800
007003F0F800
00F001FFF000
00E000FFE000
00E0003FC000
000000000000
000000000000
000000000000
000000000000
000000000000
000000000000
000007800000
00000FC00000
00000FC00000
00000FC00000
00001FE00000
00001CE00000
00001CF00000
00003CF00000
00003C700000
000038780000
000078780000
000078380000
0000703C0000
0000F03C0000
0000F01C0000
0000E01E0000
0001E01E0000
0001E00E0000
0003C00F0000
0003C00F0000
0003C0078000
000780078000
000780078000
00078003C000
000F0003C000
000F0003C000
000F0001E000
001E0001E000
001E0001E000
001E0000F000
003C0000F000
003C0000F000
007C00007800
007800007800
007800007800
00F800003C00
00FFFFFFFC00
00FFFFFFFE00
01FFFFFFFE00
01FFFFFFFE00
01E000001F00
03C000000F00
03C000000F00
03C000000F80
078000000780
078000000780
0780000007C0
0F00000003C0
0F00000003C0
1F00000003E0
1E00000001E0
1E00000001E0
3E00000001F0
3C00000000F0
3C00000000F8
7C00000000F8
780000000078
78000000007C
F0000000003C
F0000000003C
ENDCHAR
STARTCHAR 00C4
ENCODING 196
SWIDTH 523 0
DWIDTH 48 0
BBX 46 73 1 0
BITMAP
000600018000
000F8007E000
001F8007E000
001FC007E000
001F8007E000
001F8007E000
000F0003C000
000000000000
000000000000
000000000000
000000000000
000000000000
000000000000
000007800000
00000FC00000
00000FC00000
00000FC00000
00001FE00000
00001CE00000
00001CF00000
00003CF00000
00003C700000
000038780000
000078780000
000078380000
0000703C0000
0000F03C0000
0000F01C0000
0000E01E0000
0001E01E0000
0001E00E0000
0003C00F0000
0003C00F0000
0003C0078000
000780078000
000780078000
00078003C000
000F0003C000
000F0003C000
000F0001E000
001E0001E000
001E0001E000
001E0000F000
003C0000F000
003C0000F000
007C00007800
007800007800
007800007800
00F800003C00
00FFFFFFFC00
00FFFFFFFE00
01FFFFFFFE00
01FFFFFFFE00
01E000001F00
03C000000F00
03C000000F00
03C000000F80
078000000780
078000000780
0780000007C0
0F00000003C0
0F00000003C0
1F00000003E0
1E00000001E0
1E00000001E0
3E00000001F0
3C00000000F0
3C00000000F8
7C00000000F8
780000000078
78000000007C
F0000000003C
F0000000003C
ENDCHAR
STARTCHAR 00C5
ENCODING 197
SWIDTH 523 0
DWIDTH 48 0
BBX 46 80 1 0
BITMAP
00001FE00000
00003FF80000
0000787C0000
0000E01C0000
0000E01E0000
0001C00E0000
0001C00E0000
0001C00E0000
0001C00E0000
0001C00E0000
0000E00E0000
0000E01C0000
000078780000
00003FF00000
00001FE00000
000000000000
000000000000
000000000000
000000000000
000000000000
000007800000
00000FC00000
00000FC00000
00000FC00000
00001FE00000
00001CE00000
00001CF00000
00003CF00000
00003C700000
000038780000
000078780000
000078380000
0000703C0000
0000F03C0000
0000F01C0000
0000E01E0000
0001E01E0000
0001E00E0000
0003C00F0000
0003C00F0000
0003C0078000
000780078000
000780078000
00078003C000
000F0003C000
000F0003C000
000F0001E000
001E0001E000
001E0001E000
001E0000F000
003C0000F000
003C0000F000
007C00007800
007800007800
007800007800
00F800003C00
00FFFFFFFC00
00FFFFFFFE00
01FFFFFFFE00
01FFFFFFFE00
01E000001F00
03C000000F00
03C000000F00
03C000000F80
078000000780
078000000780
0780000007C0
0F00000003C0
0F00000003C0
1F00000003E0
1E00000001E0
1E00000001E0
3E00000001F0
3C00000000F0
3C00000000F8
7C00000000F8
780000000078
78000000007C
F0000000003C
F0000000003C
ENDCHAR
STARTCHAR 00C6
ENCODING 198
SWIDTH 807 0
DWIDTH 74 0
BBX 68 60 2 0
BITMAP
000000007FFFFFFFE0
000000007FFFFFFFE0
00000000FFFFFFFFE0
00000001FFFFFFFFE0
00000001EF00000000
00000003CF00000000
00000003CF00000000
000000078F00000000
000000078F00000000
0000000F0F00000000
0000000F0F00000000
0000001E0F00000000
0000003C0F00000000
0000003C0F00000000
000000780F00000000
000000780F00000000
000000F00F00000000
000000F00F00000000
000001E00F00000000
000001E00F00000000
000003C00F00000000
000007C00F00000000
000007800F00000000
00000F800F00000000
00000F000F00000000
00001E000F00000000
00001E000FFFFFFC00
00003C000FFFFFFC00
00007C000FFFFFFC00
000078000FFFFFFC00
0000F8000F00000000
0000F0000F00000000
0001F0000F00000000
0001E0000F00000000
0003E0000F00000000
0003C0000F00000000
0007C0000F00000000
000FFFFFFF00000000
000FFFFFFF00000000
001FFFFFFF00000000
001E00000F00000000
003E00000F00000000
003C00000F00000000
007C00000F00000000
007800000F00000000
00F800000F00000000
01F000000F00000000
01E000000F00000000
03E000000F00000000
03C000000F00000000
07C000000F00000000
078000000F00000000
0F8000000F00000000
0F0000000F00000000
1E0000000F00000000
3E0000000F00000000
3C0000000FFFFFFFF0
7C0000000FFFFFFFF0
780000000FFFFFFFF0
F80000000FFFFFFFF0
ENDCHAR
STARTCHAR 00C7
ENCODING 199
SWIDTH 567 0
DWIDTH 52 0
BBX 43 82 5 -20
BITMAP
000007FC0000
00007FFFC000
0001FFFFF000
0007FFFFF800
001FF003FE00
003FC0007F00
007F00001F80
00FC00000F80
01F800000780
03F000000300
03E000000000
07C000000000
0F8000000000
0F8000000000
1F0000000000
1F0000000000
1E0000000000
3E0000000000
3C0000000000
3C0000000000
7C0000000000
7C0000000000
780000000000
780000000000
780000000000
F80000000000
F80000000000
F80000000000
F80000000000
F80000000000
F00000000000
F00000000000
F00000000000
F80000000000
F80000000000
F80000000000
F80000000000
F80000000000
780000000000
780000000000
780000000000
7C0000000000
7C0000000000
3C0000000000
3E0000000000
3E0000000000
1E0000000000
1F0000000000
1F0000000000
0F8000000000
0F8000000000
07C000000000
03E0000000C0
03F0000001E0
01F8000003E0
00FC000007C0
007F00001F80
003FC0007F00
001FF001FE00
0007FFFFF800
0003FFFFF000
00007FFFC000
00000FFC0000
000000F00000
000000E00000
000000E00000
000001C00000
000001C00000
000003F00000
000003FC0000
0000007E0000
0000001F0000
0000000F0000
000000070000
000000070000
000000070000
0000000F0000
0000001E0000
000000FE0000
00003FF80000
00001FE00000
00001E000000
ENDCHAR
STARTCHAR 00C8
ENCODING 200
SWIDTH 512 0
DWIDTH 47 0
BBX 34 77 9 1
BITMAP
00C0000000
01E0000000
01F0000000
00F8000000
007C000000
003E000000
001F000000
0007800000
0003C00000
0001F00000
0000F80000
0000700000
0000000000
0000000000
0000000000
0000000000
0000000000
FFFFFFFF80
FFFFFFFF80
FFFFFFFF80
FFFFFFFF80
F000000000
F000000000
F000000000
F000000000
F000000000
F000000000
F000000000
F000000000
F000000000
F000000000
F000000000
F000000000
F000000000
F000000000
F000000000
F000000000
F000000000
F000000000
F000000000
F000000000
F000000000
F000000000
FFFFFFF000
FFFFFFF000
FFFFFFF000
FFFFFFF000
F000000000
F000000000
F000000000
F000000000
F000000000
F000000000
F000000000
F000000000
F000000000
F000000000
F000000000
F000000000
F000000000
F000000000
F000000000
F000000000
F000000000
F000000000
F000000000
F000000000
F000000000
F000000000
F000000000
F000000000
F000000000
F000000000
FFFFFFFFC0
FFFFFFFFC0
FFFFFFFFC0
FFFFFFFFC0
ENDCHAR
STARTCHAR 00C9
ENCODING 201
SWIDTH 512 0
DWIDTH 47 0
BBX 34 78 9 0
BITMAP
0000008000
000001C000
000003C000
000007E000
00000FC000
00001F8000
00003E0000
00007C0000
0000F80000
0001F00000
0003E00000
0007C00000
0003000000
0000000000
0000000000
0000000000
0000000000
0000000000
FFFFFFFF80
FFFFFFFF80
FFFFFFFF80
FFFFFFFF80
F000000000
F000000000
F000000000
F000000000
F000000000
F000000000
F000000000
F000000000
F000000000
F000000000
F000000000
F000000000
F000000000
F000000000
F000000000
F000000000
F000000000
F000000000
F000000000
F000000000
F000000000
F000000000
FFFFFFF000
FFFFFFF000
FFFFFFF000
FFFFFFF000
F000000000
F000000000
F000000000
F000000000
F000000000
F000000000
F000000000
F000000000
F000000000
F000000000
F000000000
F000000000
F000000000
F000000000
F000000000
F000000000
F000000000
F000000000
F000000000
F000000000
F000000000
F000000000
F000000000
F000000000
F000000000
F000000000
FFFFFFFFC0
FFFFFFFFC0
FFFFFFFFC0
FFFFFFFFC0
ENDCHAR
STARTCHAR 00CA
ENCODING 202
SWIDTH 512 0
DWIDTH 47 0
BBX 34 76 9 0
BITMAP
0003E00000
0007F80000
000FFC0000
001F3E0000
003E1F0000
007C0F8000
00F807C000
01E003E000
03C000F000
0780007800
0700003800
0200001000
0000000000
0000000000
0000000000
0000000000
FFFFFFFF80
FFFFFFFF80
FFFFFFFF80
FFFFFFFF80
F000000000
F000000000
F000000000
F000000000
F000000000
F000000000
F000000000
F000000000
F000000000
F000000000
F000000000
F000000000
F000000000
F000000000
F000000000
F000000000
F000000000
F000000000
F000000000
F000000000
F000000000
F000000000
FFFFFFF000
FFFFFFF000
FFFFFFF000
FFFFFFF000
F000000000
F000000000
F000000000
F000000000
F000000000
F000000000
F000000000
F000000000
F000000000
F000000000
F000000000
F000000000
F000000000
F000000000
F000000000
F000000000
F000000000
F000000000
F000000000
F000000000
F000000000
F000000000
F000000000
F000000000
F000000000
F000000000
FFFFFFFFC0
FFFFFFFFC0
FFFFFFFFC0
FFFFFFFFC0
ENDCHAR
STARTCHAR 00CB
ENCODING 203
SWIDTH 512 0
DWIDTH 47 0
BBX 34 73 9 0
BITMAP
0180006000
07E001F000
07E001F800
07E003F800
07E001F800
07E001F800
03C000F000
0000000000
0000000000
0000000000
0000000000
0000000000
0000000000
FFFFFFFF80
FFFFFFFF80
FFFFFFFF80
FFFFFFFF80
F000000000
F000000000
F000000000
F000000000
F000000000
F000000000
F000000000
F000000000
F000000000
F000000000
F000000000
F000000000
F000000000
F000000000
F000000000
F000000000
F000000000
F000000000
F000000000
F000000000
F000000000
F000000000
FFFFFFF000
FFFFFFF000
FFFFFFF000
FFFFFFF000
F000000000
F000000000
F000000000
F000000000
F000000000
F000000000
F000000000
F000000000
F000000000
F000000000
F000000000
F000000000
F000000000
F000000000
F000000000
F000000000
F000000000
F000000000
F000000000
F000000000
F000000000
F000000000
F000000000
F000000000
F000000000
F000000000
FFFFFFFFC0
FFFFFFFFC0
FFFFFFFFC0
FFFFFFFFC0
ENDCHAR
STARTCHAR 00CC
ENCODING 204
SWIDTH 240 0
DWIDTH 22 0
BBX 14 78 1 0
BITMAP
2000
7000
F800
FC00
7E00
3F00
1F80
07C0
03E0
01F0
00F8
007C
0038
0000
0000
0000
0000
0000
00F0
00F0
00F0
00F0
00F0
00F0
00F0
00F0
00F0
00F0
00F0
00F0
00F0
00F0
00F0
00F0
00F0
00F0
00F0
00F0
00F0
00F0
00F0
00F0
00F0
00F0
00F0
00F0
00F0
00F0
00F0
00F0
00F0
00F0
00F0
00F0
00F0
00F0
00F0
00F0
00F0
00F0
00F0
00F0
00F0
00F0
00F0
00F0
00F0
00F0
00F0
00F0
00F0
00F0
00F0
00F0
00F0
00F0
00F0
00F0
ENDCHAR
STARTCHAR 00CD
ENCODING 205
SWIDTH 240 0
DWIDTH 22 0
BBX 14 78 7 0
BITMAP
0010
0038
007C
00FC
01F8
03F0
07E0
0F80
1F00
3E00
7C00
F800
6000
0000
0000
0000
0000
0000
3C00
3C00
3C00
3C00
3C00
3C00
3C00
3C00
3C00
3C00
3C00
3C00
3C00
3C00
3C00
3C00
3C00
3C00
3C00
3C00
3C00
3C00
3C00
3C00
3C00
3C00
3C00
3C00
3C00
3C00
3C00
3C00
3C00
3C00
3C00
3C00
3C00
3C00
3C00
3C00
3C00
3C00
3C00
3C00
3C00
3C00
3C00
3C00
3C00
3C00
3C00
3C00
3C00
3C00
3C00
3C00
3C00
3C00
3C00
3C00
ENDCHAR
STARTCHAR 00CE
ENCODING 206
SWIDTH 240 0
DWIDTH 22 0
BBX 24 76 -1 0
BITMAP
007E00
00FF00
01FF80
03E7C0
07C3E0
0F81F0
1F00F8
3C007C
78001E
F0000F
E00007
400002
000000
000000
000000
000000
003C00
003C00
003C00
003C00
003C00
003C00
003C00
003C00
003C00
003C00
003C00
003C00
003C00
003C00
003C00
003C00
003C00
003C00
003C00
003C00
003C00
003C00
003C00
003C00
003C00
003C00
003C00
003C00
003C00
003C00
003C00
003C00
003C00
003C00
003C00
003C00
003C00
003C00
003C00
003C00
003C00
003C00
003C00
003C00
003C00
003C00
003C00
003C00
003C00
003C00
003C00
003C00
003C00
003C00
003C00
003C00
003C00
003C00
003C00
003C00
ENDCHAR
STARTCHAR 00CF
ENCODING 207
SWIDTH 240 0
DWIDTH 22 0
BBX 24 73 -1 0
BITMAP
30000C
FC003F
FC003F
FC003F
FC003F
FC003F
78001E
000000
000000
000000
000000
000000
000000
003C00
003C00
003C00
003C00
003C00
003C00
003C00
003C00
003C00
003C00
003C00
003C00
003C00
003C00
003C00
003C00
003C00
003C00
003C00
003C00
003C00
003C00
003C00
003C00
003C00
003C00
003C00
003C00
003C00
003C00
003C00
003C00
003C00
003C00
003C00
003C00
003C00
003C00
003C00
003C00
003C00
003C00
003C00
003C00
003C00
003C00
003C00
003C00
003C00
003C00
003C00
003C00
003C00
003C00
003C00
003C00
003C00
003C00
003C00
003C00
ENDCHAR
STARTCHAR 00D0
ENCODING 208
SWIDTH 621 0
DWIDTH 57 0
BBX 49 60 3 0
BITMAP
00FFFFF0000000
00FFFFFF000000
00FFFFFFE00000
00FFFFFFF80000
00F00007FE0000
00F00000FF0000
00F000003F8000
00F000000FC000
00F0000007E000
00F0000003F000
00F0000001F000
00F0000000F800
00F0000000FC00
00F00000007C00
00F00000003E00
00F00000003E00
00F00000001E00
00F00000001F00
00F00000001F00
00F00000000F00
00F00000000F00
00F00000000F80
00F00000000F80
00F00000000F80
00F00000000780
00F00000000780
00F00000000780
FFFFFFE0000780
FFFFFFE0000780
FFFFFFE0000780
00F00000000780
00F00000000780
00F00000000780
00F00000000780
00F00000000780
00F00000000780
00F00000000F80
00F00000000F80
00F00000000F80
00F00000000F00
00F00000000F00
00F00000001F00
00F00000001F00
00F00000001E00
00F00000003E00
00F00000003C00
00F00000007C00
00F0000000F800
00F0000000F800
00F0000001F000
00F0000003F000
00F0000007E000
00F000000FC000
00F000003F8000
00F00000FF0000
00F00007FC0000
00FFFFFFF80000
00FFFFFFE00000
00FFFFFF000000
00FFFFF0000000
ENDCHAR
STARTCHAR 00D1
ENCODING 209
SWIDTH 632 0
DWIDTH 58 0
BBX 40 76 9 0
BITMAP
001F800070
007FE00070
00FFF000F0
01FBF800E0
01E07E01E0
03C03F01E0
03801FC3C0
038007FF80
038003FF80
038000FE00
0000000000
0000000000
0000000000
0000000000
0000000000
0000000000
F80000000F
F80000000F
FC0000000F
FC0000000F
FE0000000F
FF0000000F
EF0000000F
E78000000F
F78000000F
F3C000000F
F3E000000F
F1E000000F
F0F000000F
F0F000000F
F07800000F
F07C00000F
F03C00000F
F03E00000F
F01E00000F
F00F00000F
F00F80000F
F00780000F
F007C0000F
F003C0000F
F001E0000F
F001F0000F
F000F0000F
F000F8000F
F00078000F
F0003C000F
F0003E000F
F0001E000F
F0001F000F
F0000F000F
F00007800F
F00007C00F
F00003C00F
F00003E00F
F00001E00F
F00000F00F
F00000F80F
F00000780F
F000007C07
F000003C07
F000001E07
F000001F07
F000000F07
F000000F87
F000000787
F0000003C7
F0000003C7
F0000001E7
F0000001F7
F0000000F7
F00000007F
F00000007F
F00000003F
F00000003F
F00000001F
F00000000F
ENDCHAR
STARTCHAR 00D2
ENCODING 210
SWIDTH 654 0
DWIDTH 60 0
BBX 50 79 5 0
BITMAP
0000C000000000
0001E000000000
0001F000000000
0000F800000000
00007C00000000
00003E00000000
00001F00000000
00000780000000
000003C0000000
000001E0000000
000000F0000000
00000070000000
00000020000000
00000000000000
00000000000000
00000000000000
00000FFC000000
00007FFF800000
0003FFFFF00000
0007FFFFF80000
001FF003FE0000
003F80007F0000
007E00001F8000
00FC00000FC000
01F8000007E000
03F0000003F000
03E0000001F000
07C0000000F800
0F800000007C00
0F800000007C00
1F000000003E00
1F000000003E00
1E000000001E00
3E000000001F00
3C000000001F00
3C000000000F00
7C000000000F80
7C000000000F80
78000000000780
78000000000780
78000000000780
F80000000007C0
F80000000007C0
F80000000007C0
F80000000007C0
F80000000007C0
F00000000007C0
F00000000007C0
F00000000007C0
F80000000007C0
F80000000007C0
F80000000007C0
F80000000007C0
F8000000000780
78000000000780
78000000000780
78000000000F80
7C000000000F80
7C000000000F80
3C000000000F00
3E000000001F00
3E000000001F00
1E000000001E00
1F000000003E00
1F000000003C00
0F800000007C00
0F80000000F800
07C0000000F800
03E0000001F000
03F0000003E000
01F8000007E000
00FC00000FC000
007E00001F8000
003F80007F0000
001FF003FE0000
0007FFFFF80000
0003FFFFE00000
00007FFF800000
00000FFC000000
ENDCHAR
STARTCHAR 00D3
ENCODING 211
SWIDTH 654 0
DWIDTH 60 0
BBX 50 80 5 -1
BITMAP
00000000800000
00000001C00000
00000003C00000
00000007E00000
0000000FC00000
0000001F800000
0000003F000000
0000007C000000
000000F8000000
000001F0000000
000003E0000000
000007C0000000
00000300000000
00000000000000
00000000000000
00000000000000
00000000000000
00000FFC000000
00007FFF800000
0003FFFFF00000
0007FFFFF80000
001FF003FE0000
003F80007F0000
007E00001F8000
00FC00000FC000
01F8000007E000
03F0000003F000
03E0000001F000
07C0000000F800
0F800000007C00
0F800000007C00
1F000000003E00
1F000000003E00
1E000000001E00
3E000000001F00
3C000000001F00
3C000000000F00
7C000000000F80
7C000000000F80
78000000000780
78000000000780
78000000000780
F80000000007C0
F80000000007C0
F80000000007C0
F80000000007C0
F80000000007C0
F00000000007C0
F00000000007C0
F00000000007C0
F80000000007C0
F80000000007C0
F80000000007C0
F80000000007C0
F8000000000780
78000000000780
78000000000780
78000000000F80
7C000000000F80
7C000000000F80
3C000000000F00
3E000000001F00
3E000000001F00
1E000000001E00
1F000000003E00
1F000000003C00
0F800000007C00
0F80000000F800
07C0000000F800
03E0000001F000
03F0000003E000
01F8000007E000
00FC00000FC000
007E00001F8000
003F80007F0000
001FF003FE0000
0007FFFFF80000
0003FFFFE00000
00007FFF800000
00000FFC000000
ENDCHAR
STARTCHAR 00D4
ENCODING 212
SWIDTH 654 0
DWIDTH 60 0
BBX 50 78 5 -1
BITMAP
000003F0000000
000007F8000000
00000FFC000000
00001F3E000000
00003E1F000000
00007C0F800000
0000F807C00000
0001E003E00000
0003C000F00000
00078000780000
00070000380000
00020000100000
00000000000000
00000000000000
00000000000000
00000FFC000000
00007FFF800000
0003FFFFF00000
0007FFFFF80000
001FF003FE0000
003F80007F0000
007E00001F8000
00FC00000FC000
01F8000007E000
03F0000003F000
03E0000001F000
07C0000000F800
0F800000007C00
0F800000007C00
1F000000003E00
1F000000003E00
1E000000001E00
3E000000001F00
3C000000001F00
3C000000000F00
7C000000000F80
7C000000000F80
78000000000780
78000000000780
78000000000780
F80000000007C0
F80000000007C0
F80000000007C0
F80000000007C0
F80000000007C0
F00000000007C0
F00000000007C0
F00000000007C0
F80000000007C0
F80000000007C0
F80000000007C0
F80000000007C0
F8000000000780
78000000000780
78000000000780
78000000000F80
7C000000000F80
7C000000000F80
3C000000000F00
3E000000001F00
3E000000001F00
1E000000001E00
1F000000003E00
1F000000003C00
0F800000007C00
0F80000000F800
07C0000000F800
03E0000001F000
03F0000003E000
01F8000007E000
00FC00000FC000
007E00001F8000
003F80007F0000
001FF003FE0000
0007FFFFF80000
0003FFFFE00000
00007FFF800000
00000FFC000000
ENDCHAR
STARTCHAR 00D5
ENCODING 213
SWIDTH 654 0
DWIDTH 60 0
BBX 50 78 5 -1
BITMAP
0001F800070000
0007FE00070000
000FFF00070000
000FBFC00F0000
001E07E00E0000
001C03F01E0000
003C00FC3C0000
0038007FFC0000
0038003FF80000
0038000FE00000
00000000000000
00000000000000
00000000000000
00000000000000
00000000000000
00000FFC000000
00007FFF800000
0003FFFFF00000
0007FFFFF80000
001FF003FE0000
003F80007F0000
007E00001F8000
00FC00000FC000
01F8000007E000
03F0000003F000
03E0000001F000
07C0000000F800
0F800000007C00
0F800000007C00
1F000000003E00
1F000000003E00
1E000000001E00
3E000000001F00
3C000000001F00
3C000000000F00
7C000000000F80
7C000000000F80
78000000000780
78000000000780
78000000000780
F80000000007C0
F80000000007C0
F80000000007C0
F80000000007C0
F80000000007C0
F00000000007C0
F00000000007C0
F00000000007C0
F80000000007C0
F80000000007C0
F80000000007C0
F80000000007C0
F8000000000780
78000000000780
78000000000780
78000000000F80
7C000000000F80
7C000000000F80
3C000000000F00
3E000000001F00
3E000000001F00
1E000000001E00
1F000000003E00
1F000000003C00
0F800000007C00
0F80000000F800
07C0000000F800
03E0000001F000
03F0000003E000
01F8000007E000
00FC00000FC000
007E00001F8000
003F80007F0000
001FF003FE0000
0007FFFFF80000
0003FFFFE00000
00007FFF800000
00000FFC000000
ENDCHAR
STARTCHAR 00D6
ENCODING 214
SWIDTH 654 0
DWIDTH 60 0
BBX 50 75 5 -1
BITMAP
00018000600000
0007E001F80000
0007E001F80000
0007E003F80000
0007E001F80000
0007E001F80000
0003C000F00000
00000000000000
00000000000000
00000000000000
00000000000000
00000000000000
00000FFC000000
00007FFF800000
0003FFFFF00000
0007FFFFF80000
001FF003FE0000
003F80007F0000
007E00001F8000
00FC00000FC000
01F8000007E000
03F0000003F000
03E0000001F000
07C0000000F800
0F800000007C00
0F800000007C00
1F000000003E00
1F000000003E00
1E000000001E00
3E000000001F00
3C000000001F00
3C000000000F00
7C000000000F80
7C000000000F80
78000000000780
78000000000780
78000000000780
F80000000007C0
F80000000007C0
F80000000007C0
F80000000007C0
F80000000007C0
F00000000007C0
F00000000007C0
F00000000007C0
F80000000007C0
F80000000007C0
F80000000007C0
F80000000007C0
F8000000000780
78000000000780
78000000000780
78000000000F80
7C000000000F80
7C000000000F80
3C000000000F00
3E000000001F00
3E000000001F00
1E000000001E00
1F000000003E00
1F000000003C00
0F800000007C00
0F80000000F800
07C0000000F800
03E0000001F000
03F0000003E000
01F8000007E000
00FC00000FC000
007E00001F8000
003F80007F0000
001FF003FE0000
0007FFFFF80000
0003FFFFE00000
00007FFF800000
00000FFC000000
ENDCHAR
STARTCHAR 00D7
ENCODING 215
SWIDTH 480 0
DWIDTH 44 0
BBX 34 36 5 12
BITMAP
2000000100
7000000380
F8000007C0
7800000F80
3C00001F00
1E00003E00
0F00003C00
0F80007800
07C000F000
03E001E000
01F003E000
00F807C000
007C0F8000
003E1F0000
001F3E0000
000FFC0000
0007F80000
0003F00000
0003F00000
0007F80000
000FFC0000
001F3E0000
003E1F0000
007C0F8000
00F807C000
01F003E000
03E001F000
07C000F800
0F80007C00
1F00003E00
3E00001F00
7C00000F80
F800000780
F0000003C0
6000000180
0000000100
ENDCHAR
STARTCHAR 00D8
ENCODING 216
SWIDTH 654 0
DWIDTH 60 0
BBX 50 65 5 -2
BITMAP
00000000000200
000007FC000380
00007FFFC00780
0001FFFFF00F00
0007FFFFFC0F00
000FF003FE1E00
003F80007F3C00
007F00001FF800
00FC00000FF800
01F8000003F000
01F0000001F000
03E0000003F800
07C0000003F800
07C0000007FC00
0F8000000F3C00
0F0000001E3E00
1F0000001E1E00
1E0000003C1F00
1E000000781F00
3E000000F00F00
3C000000F00F80
3C000001E00F80
7C000003C00780
7C000007C00780
780000078007C0
7800000F0007C0
7800001E0007C0
7800003E0007C0
7800003C0003C0
780000780003C0
F80000F00003C0
F80001F00003C0
F80001E00003C0
F80003C00003C0
F80007800003C0
78000F800003C0
78000F000003C0
78001E000007C0
78003C000007C0
78003C000007C0
7C0078000007C0
7C00F000000780
3C01E000000780
3C01E000000F80
3E03C000000F80
3E078000000F00
1E0F0000001F00
1F0F0000001F00
1F1E0000001E00
0FBC0000003E00
0FFC0000007C00
07F80000007C00
07F0000000F800
03E0000001F800
03F0000001F000
03F8000003E000
07FC00000FC000
0F7F00001F8000
1F3FC0007F0000
1E0FF003FE0000
3C07FFFFFC0000
7801FFFFF00000
F8007FFFC00000
70000FFC000000
20000000000000
ENDCHAR
STARTCHAR 00D9
ENCODING 217
SWIDTH 632 0
DWIDTH 58 0
BBX 40 79 9 -1
BITMAP
0008000000
001C000000
001E000000
003F000000
001F800000
000FC00000
0007E00000
0001F00000
0000F80000
00007C0000
00003E0000
00001F0000
0000060000
0000000000
0000000000
0000000000
0000000000
0000000000
F00000000F
F00000000F
F00000000F
F00000000F
F00000000F
F00000000F
F00000000F
F00000000F
F00000000F
F00000000F
F00000000F
F00000000F
F00000000F
F00000000F
F00000000F
F00000000F
F00000000F
F00000000F
F00000000F
F00000000F
F00000000F
F00000000F
F00000000F
F00000000F
F00000000F
F00000000F
F00000000F
F00000000F
F00000000F
F00000000F
F00000000F
F00000000F
F00000000F
F00000000F
F00000000F
F00000000F
F00000000F
F00000000F
F00000000F
F00000000F
F00000000F
F00000000F
F00000000F
F80000000F
F80000000F
780000001F
780000001E
7C0000001E
7C0000003E
3E0000003C
3E0000007C
1F00000078
1F800000F8
0FC00001F0
07E00003E0
07F0000FE0
01FE007F80
00FFFFFF00
007FFFFE00
001FFFF000
0001FF8000
ENDCHAR
STARTCHAR 00DA
ENCODING 218
SWIDTH 632 0
DWIDTH 58 0
BBX 40 78 9 0
BITMAP
0000001800
0000003C00
0000007C00
000000F800
000003F000
000007E000
00000F8000
00001F0000
00003E0000
00007C0000
0000F80000
0000700000
0000000000
0000000000
0000000000
0000000000
0000000000
F00000000F
F00000000F
F00000000F
F00000000F
F00000000F
F00000000F
F00000000F
F00000000F
F00000000F
F00000000F
F00000000F
F00000000F
F00000000F
F00000000F
F00000000F
F00000000F
F00000000F
F00000000F
F00000000F
F00000000F
F00000000F
F00000000F
F00000000F
F00000000F
F00000000F
F00000000F
F00000000F
F00000000F
F00000000F
F00000000F
F00000000F
F00000000F
F00000000F
F00000000F
F00000000F
F00000000F
F00000000F
F00000000F
F00000000F
F00000000F
F00000000F
F00000000F
F00000000F
F80000000F
F80000000F
780000001F
780000001E
7C0000001E
7C0000003E
3E0000003C
3E0000007C
1F00000078
1F800000F8
0FC00001F0
07E00003E0
07F0000FE0
01FE007F80
00FFFFFF00
007FFFFE00
001FFFF000
0001FF8000
ENDCHAR
STARTCHAR 00DB
ENCODING 219
SWIDTH 632 0
DWIDTH 58 0
BBX 40 77 9 -1
BITMAP
00007E0000
0000FF0000
0001FF8000
0003E7C000
0007C3E000
000F81F000
001F00F800
003E003C00
0078001E00
00F0000F00
00E0000700
0040000200
0000000000
0000000000
0000000000
0000000000
F00000000F
F00000000F
F00000000F
F00000000F
F00000000F
F00000000F
F00000000F
F00000000F
F00000000F
F00000000F
F00000000F
F00000000F
F00000000F
F00000000F
F00000000F
F00000000F
F00000000F
F00000000F
F00000000F
F00000000F
F00000000F
F00000000F
F00000000F
F00000000F
F00000000F
F00000000F
F00000000F
F00000000F
F00000000F
F00000000F
F00000000F
F00000000F
F00000000F
F00000000F
F00000000F
F00000000F
F00000000F
F00000000F
F00000000F
F00000000F
F00000000F
F00000000F
F00000000F
F80000000F
F80000000F
780000001F
780000001E
7C0000001E
7C0000003E
3E0000003C
3E0000007C
1F00000078
1F800000F8
0FC00001F0
07E00003E0
07F0000FE0
01FE007F80
00FFFFFF00
007FFFFE00
001FFFF000
0001FF8000
ENDCHAR
STARTCHAR 00DC
ENCODING 220
SWIDTH 632 0
DWIDTH 58 0
BBX 40 74 9 -1
BITMAP
0030000C00
007C003F00
00FC003F00
00FC003F00
00FC003F00
00FC003F00
0078001E00
0000000000
0000000000
0000000000
0000000000
0000000000
0000000000
F00000000F
F00000000F
F00000000F
F00000000F
F00000000F
F00000000F
F00000000F
F00000000F
F00000000F
F00000000F
F00000000F
F00000000F
F00000000F
F00000000F
F00000000F
F00000000F
F00000000F
F00000000F
F00000000F
F00000000F
F00000000F
F00000000F
F00000000F
F00000000F
F00000000F
F00000000F
F00000000F
F00000000F
F00000000F
F00000000F
F00000000F
F00000000F
F00000000F
F00000000F
F00000000F
F00000000F
F00000000F
F00000000F
F00000000F
F00000000F
F00000000F
F00000000F
F00000000F
F80000000F
F80000000F
780000001F
780000001E
7C0000001E
7C0000003E
3E0000003C
3E0000007C
1F00000078
1F800000F8
0FC00001F0
07E00003E0
07F0000FE0
01FE007F80
00FFFFFF00
007FFFFE00
001FFFF000
0001FF8000
ENDCHAR
STARTCHAR 00DD
ENCODING 221
SWIDTH 447 0
DWIDTH 41 0
BBX 39 77 1 1
BITMAP
0000003000
0000007800
000000FC00
000001F000
000003E000
000007C000
00000F8000
00001F0000
00003C0000
0000780000
0000F00000
0000E00000
0000400000
0000000000
0000000000
0000000000
0000000000
F00000001E
F80000001E
780000003C
780000003C
3C00000078
3C00000078
1E000000F0
1E000000F0
0F000001E0
0F000001E0
07800003C0
07800003C0
03C0000780
03C0000780
01E0000F00
01E0000F00
00F0001E00
00F0001E00
0078003C00
0078003C00
003C007800
003C007800
001E007000
001E00F000
000F00E000
000F01E000
000781C000
000783C000
0003C78000
0003C78000
0001EF0000
0001EF0000
0000FE0000
0000FE0000
00007C0000
00007C0000
00007C0000
00007C0000
00007C0000
00007C0000
00007C0000
00007C0000
00007C0000
00007C0000
00007C0000
00007C0000
00007C0000
00007C0000
00007C0000
00007C0000
00007C0000
00007C0000
00007C0000
00007C0000
00007C0000
00007C0000
00007C0000
00007C0000
00007C0000
00007C0000
ENDCHAR
STARTCHAR 00DE
ENCODING 222
SWIDTH 567 0
DWIDTH 52 0
BBX 38 60 9 0
BITMAP
F000000000
F000000000
F000000000
F000000000
F000000000
F000000000
F000000000
F000000000
F000000000
F000000000
F000000000
FFFFFF0000
FFFFFFF000
FFFFFFFC00
FFFFFFFF00
F00000FF80
F000001FC0
F0000007E0
F0000003F0
F0000001F0
F0000000F8
F000000078
F000000078
F00000007C
F00000007C
F00000003C
F00000003C
F00000003C
F00000003C
F00000003C
F00000007C
F00000007C
F000000078
F000000078
F0000000F8
F0000000F0
F0000001F0
F0000003E0
F0000007C0
F000001FC0
F00000FF00
FFFFFFFE00
FFFFFFF800
FFFFFFE000
FFFFFE0000
F000000000
F000000000
F000000000
F000000000
F000000000
F000000000
F000000000
F000000000
F000000000
F000000000
F000000000
F000000000
F000000000
F000000000
F000000000
ENDCHAR
STARTCHAR 00DF
ENCODING 223
SWIDTH 545 0
DWIDTH 50 0
BBX 39 68 8 -1
BITMAP
000FF00000
007FFE0000
01FFFF0000
03FFFF8000
07E00FC000
0FC003E000
0F0001F000
1F0000F000
3E0000F000
3C0000F800
3C00007800
7C00007800
7800007800
7800007800
7800007800
780000F000
780000F000
F80000F000
F00001E000
F00003E000
F00003C000
F00007C000
F0000F8000
F0001F0000
F0001E0000
F0003C0000
F0007C0000
F000780000
F000780000
F000F00000
F000F00000
F000F00000
F000F00000
F000F00000
F000F00000
F000F80000
F000F80000
F0007C0000
F0007E0000
F0003F8000
F0001FE000
F00007F800
F00003FE00
F00000FF00
F000003FC0
F000000FE0
F0000007F0
F0000001F8
F0000000F8
F00000007C
F00000003C
F00000003E
F00000001E
F00000001E
F00000001E
F00000001E
F00000001E
F00000001E
F00000003E
F00000003C
F00000003C
F003800078
F003C000F8
F007F003F0
F001FFBFE0
F000FFFFC0
F0003FFF00
000007F800
ENDCHAR
STARTCHAR 00E0
ENCODING 224
SWIDTH 490 0
DWIDTH 45 0
BBX 33 69 5 0
BITMAP
0030000000
00F8000000
00FC000000
007E000000
003F000000
001F000000
000F800000
0007C00000
0003E00000
0001F00000
0000F80000
00007C0000
00001E0000
00000E0000
0000040000
0000000000
0000000000
0000000000
0000000000
0000000000
0000000000
0000000000
0003FE0000
001FFFC000
00FFFFE000
03FFFFF000
0FF001F800
1FC0007C00
1F00003E00
1C00003E00
0800001F00
0000001F00
0000000F00
0000000F00
0000000F00
0000000F80
0000000780
0000000780
0000000780
0000000780
000000FF80
00003FFF80
0003FFFF80
001FFF8780
007FE00780
01FF000780
03F8000780
0FE0000780
1F80000780
1F00000780
3E00000780
7C00000780
7800000780
7800000780
7800000780
F800000780
F000000780
F800000780
F800000F80
7800001F80
7800003F80
7C00007F80
7C0001F780
3E0007E780
1F801F8780
1FFBFF0780
07FFFC0780
03FFF00780
007F800000
ENDCHAR
STARTCHAR 00E1
ENCODING 225
SWIDTH 490 0
DWIDTH 45 0
BBX 33 69 5 0
BITMAP
0000006000
000000F000
000001F000
000003E000
000007C000
00000F8000
00001F0000
00003E0000
00003C0000
0000780000
0000F00000
0001E00000
0003C00000
0003800000
0001000000
0000000000
0000000000
0000000000
0000000000
0000000000
0000000000
0000000000
0003FE0000
001FFFC000
00FFFFE000
03FFFFF000
0FF001F800
1FC0007C00
1F00003E00
1C00003E00
0800001F00
0000001F00
0000000F00
0000000F00
0000000F00
0000000F80
0000000780
0000000780
0000000780
0000000780
000000FF80
00003FFF80
0003FFFF80
001FFF8780
007FE00780
01FF000780
03F8000780
0FE0000780
1F80000780
1F00000780
3E00000780
7C00000780
7800000780
7800000780
7800000780
F800000780
F000000780
F800000780
F800000F80
7800001F80
7800003F80
7C00007F80
7C0001F780
3E0007E780
1F801F8780
1FFBFF0780
07FFFC0780
03FFF00780
007F800000
ENDCHAR
STARTCHAR 00E2
ENCODING 226
SWIDTH 490 0
DWIDTH 45 0
BBX 33 70 5 -1
BITMAP
0000F00000
0000F80000
0001FC0000
0003FE0000
0007DF0000
000F8F0000
000F078000
001E03C000
003C01E000
007801F000
00F000F000
00E0007800
01E0003C00
03C0001E00
0380000C00
0000000000
0000000000
0000000000
0000000000
0000000000
0000000000
0000000000
0000000000
0003FE0000
001FFFC000
00FFFFE000
03FFFFF000
0FF001F800
1FC0007C00
1F00003E00
1C00003E00
0800001F00
0000001F00
0000000F00
0000000F00
0000000F00
0000000F80
0000000780
0000000780
0000000780
0000000780
000000FF80
00003FFF80
0003FFFF80
001FFF8780
007FE00780
01FF000780
03F8000780
0FE0000780
1F80000780
1F00000780
3E00000780
7C00000780
7800000780
7800000780
7800000780
F800000780
F000000780
F800000780
F800000F80
7800001F80
7800003F80
7C00007F80
7C0001F780
3E0007E780
1F801F8780
1FFBFF0780
07FFFC0780
03FFF00780
007F800000
ENDCHAR
STARTCHAR 00E3
ENCODING 227
SWIDTH 490 0
DWIDTH 45 0
BBX 33 67 5 -1
BITMAP
007C000380
01FF000380
03FF800380
07C7C00380
0781E00380
0F00F00780
0E00780700
0E003C0F00
0E003F1E00
0E001FFE00
1E0007FC00
1C0001F000
0000000000
0000000000
0000000000
0000000000
0000000000
0000000000
0000000000
0000000000
0003FE0000
001FFFC000
00FFFFE000
03FFFFF000
0FF001F800
1FC0007C00
1F00003E00
1C00003E00
0800001F00
0000001F00
0000000F00
0000000F00
0000000F00
0000000F80
0000000780
0000000780
0000000780
0000000780
000000FF80
00003FFF80
0003FFFF80
001FFF8780
007FE00780
01FF000780
03F8000780
0FE0000780
1F80000780
1F00000780
3E00000780
7C00000780
7800000780
7800000780
7800000780
F800000780
F000000780
F800000780
F800000F80
7800001F80
7800003F80
7C00007F80
7C0001F780
3E0007E780
1F801F8780
1FFBFF0780
07FFFC0780
03FFF00780
007F800000
ENDCHAR
STARTCHAR 00E4
ENCODING 228
SWIDTH 490 0
DWIDTH 45 0
BBX 33 64 5 -1
BITMAP
0070007000
00F800F800
01F801FC00
01FC01FC00
01FC01FC00
01F800F800
00F0007000
0000000000
0000000000
0000000000
0000000000
0000000000
0000000000
0000000000
0000000000
0000000000
0000000000
0003FE0000
001FFFC000
00FFFFE000
03FFFFF000
0FF001F800
1FC0007C00
1F00003E00
1C00003E00
0800001F00
0000001F00
0000000F00
0000000F00
0000000F00
0000000F80
0000000780
0000000780
0000000780
0000000780
000000FF80
00003FFF80
0003FFFF80
001FFF8780
007FE00780
01FF000780
03F8000780
0FE0000780
1F80000780
1F00000780
3E00000780
7C00000780
7800000780
7800000780
7800000780
F800000780
F000000780
F800000780
F800000F80
7800001F80
7800003F80
7C00007F80
7C0001F780
3E0007E780
1F801F8780
1FFBFF0780
07FFFC0780
03FFF00780
007F800000
ENDCHAR
STARTCHAR 00E5
ENCODING 229
SWIDTH 490 0
DWIDTH 45 0
BBX 33 69 5 -1
BITMAP
0001FC0000
0007FF0000
000FDF8000
001E03C000
001C01C000
003800E000
003800E000
003800E000
003000E000
003000E000
003800E000
003800E000
003C01C000
001C03C000
000F078000
0007FF0000
0003FC0000
0000000000
0000000000
0000000000
0000000000
0000000000
0003FE0000
001FFFC000
00FFFFE000
03FFFFF000
0FF001F800
1FC0007C00
1F00003E00
1C00003E00
0800001F00
0000001F00
0000000F00
0000000F00
0000000F00
0000000F80
0000000780
0000000780
0000000780
0000000780
000000FF80
00003FFF80
0003FFFF80
001FFF8780
007FE00780
01FF000780
03F8000780
0FE0000780
1F80000780
1F00000780
3E00000780
7C00000780
7800000780
7800000780
7800000780
F800000780
F000000780
F800000780
F800000F80
7800001F80
7800003F80
7C00007F80
7C0001F780
3E0007E780
1F801F8780
1FFBFF0780
07FFFC0780
03FFF00780
007F800000
ENDCHAR
STARTCHAR 00E6
ENCODING 230
SWIDTH 785 0
DWIDTH 72 0
BBX 62 47 6 -1
BITMAP
0003FC00003FC000
003FFF0000FFF800
00FFFFC003FFFE00
03FFFFE007FFFF00
0FF003F01F801F80
3F8000F81F0007C0
1F0000783C0003E0
1C00003C780001F0
0000003CF00000F0
0000001CF00000F8
0000001FE0000078
0000001FC0000078
0000000FC0000038
0000000F8000003C
0000000F8000003C
0000000F8000003C
0000000F8000003C
0000000F0000003C
000001FF0000001C
00003FFF0000001C
0003FFFF0000001C
001FFF0FFFFFFFFC
007FE00FFFFFFFFC
01FE000FFFFFFFFC
07F0000F00000000
0FC0000F00000000
1F80000F00000000
3E00000F00000000
3C00000F00000000
7C00000F00000000
7800000780000000
F800000780000000
F000000780000000
F0000007C0000000
F0000003C0000000
F0000007E0000000
F000000FE0000000
F800001FF0000000
F800003EF8000000
780000787C000000
7C0001F07E000070
3E0007E03F0000F0
3F801F801FE007F8
1FFBFF0007FFFFE0
0FFFFC0003FFFF80
03FFF00000FFFE00
007F8000001FF000
ENDCHAR
STARTCHAR 00E7
ENCODING 231
SWIDTH 447 0
DWIDTH 41 0
BBX 34 66 5 -20
BITMAP
0000FF0000
000FFFE000
003FFFF800
007FFFFC00
00FE007F00
03F8001F80
03E0000F00
07C0000600
0F80000000
1F00000000
1F00000000
3E00000000
3C00000000
7C00000000
7C00000000
7800000000
7800000000
F800000000
F000000000
F000000000
F000000000
F000000000
F000000000
F000000000
F000000000
F000000000
F000000000
F000000000
F000000000
F800000000
F800000000
7800000000
7800000000
7C00000000
3C00000000
3E00000000
1E00000000
1F00000000
0F80000000
0FC0000300
07E0000780
03F0001FC0
01FC007F00
00FFFFFE00
003FFFF800
000FFFE000
0001FF0000
0000380000
0000780000
0000700000
0000F00000
0000E00000
0001F80000
0001FE0000
00003F0000
00000F8000
0000078000
000003C000
000003C000
0000038000
0000078000
00000F8000
00007F0000
000FFC0000
000FF00000
000F000000
ENDCHAR
STARTCHAR 00E8
ENCODING 232
SWIDTH 480 0
DWIDTH 44 0
BBX 36 70 5 -1
BITMAP
0010000000
0038000000
0078000000
007C000000
003E000000
001F000000
000F800000
0007C00000
0003E00000
0001F00000
0000F80000
00007C0000
00003C0000
00001E0000
00000E0000
0000040000
0000000000
0000000000
0000000000
0000000000
0000000000
0000000000
0000000000
0001FE0000
000FFFC000
003FFFF000
007FFFF800
00FC00FE00
03F0003E00
03E0001F00
07C0000F80
0F80000780
1F000003C0
1E000003C0
3E000003E0
3C000001E0
3C000001E0
78000001E0
78000000E0
78000000F0
F0000000F0
F0000000F0
F0000000F0
F0000000F0
FFFFFFFFF0
FFFFFFFFF0
FFFFFFFFF0
F000000000
F000000000
F000000000
F000000000
F000000000
F800000000
7800000000
7800000000
7800000000
7C00000000
3C00000000
3E00000000
1E00000000
1F00000000
0F80000000
07C0000000
07E0000180
03F8000780
01FE001FC0
007FF7FF80
003FFFFE00
000FFFF000
0000FF8000
ENDCHAR
STARTCHAR 00E9
ENCODING 233
SWIDTH 480 0
DWIDTH 44 0
BBX 36 70 5 -1
BITMAP
0000002000
0000007000
000000F800
000000F800
000001F000
000003E000
000007C000
00000F8000
00001F0000
00003E0000
00007C0000
0000F80000
0001F00000
0003E00000
0001C00000
0000800000
0000000000
0000000000
0000000000
0000000000
0000000000
0000000000
0000000000
0001FE0000
000FFFC000
003FFFF000
007FFFF800
00FC00FE00
03F0003E00
03E0001F00
07C0000F80
0F80000780
1F000003C0
1E000003C0
3E000003E0
3C000001E0
3C000001E0
78000001E0
78000000E0
78000000F0
F0000000F0
F0000000F0
F0000000F0
F0000000F0
FFFFFFFFF0
FFFFFFFFF0
FFFFFFFFF0
F000000000
F000000000
F000000000
F000000000
F000000000
F800000000
7800000000
7800000000
7800000000
7C00000000
3C00000000
3E00000000
1E00000000
1F00000000
0F80000000
07C0000000
07E0000180
03F8000780
01FE001FC0
007FF7FF80
003FFFFE00
000FFFF000
0000FF8000
ENDCHAR
STARTCHAR 00EA
ENCODING 234
SWIDTH 480 0
DWIDTH 44 0
BBX 36 70 5 -1
BITMAP
0000780000
0000FC0000
0001FE0000
0001FE0000
0003CF0000
00078F8000
000F07C000
001F03E000
003E01E000
003C00F000
0078007800
00F0003C00
01E0001E00
03C0000E00
0180000600
0000000400
0000000000
0000000000
0000000000
0000000000
0000000000
0000000000
0000000000
0001FE0000
000FFFC000
003FFFF000
007FFFF800
00FC00FE00
03F0003E00
03E0001F00
07C0000F80
0F80000780
1F000003C0
1E000003C0
3E000003E0
3C000001E0
3C000001E0
78000001E0
78000000E0
78000000F0
F0000000F0
F0000000F0
F0000000F0
F0000000F0
FFFFFFFFF0
FFFFFFFFF0
FFFFFFFFF0
F000000000
F000000000
F000000000
F000000000
F000000000
F800000000
7800000000
7800000000
7800000000
7C00000000
3C00000000
3E00000000
1E00000000
1F00000000
0F80000000
07C0000000
07E0000180
03F8000780
01FE001FC0
007FF7FF80
003FFFFE00
000FFFF000
0000FF8000
ENDCHAR
STARTCHAR 00EB
ENCODING 235
SWIDTH 480 0
DWIDTH 44 0
BBX 36 64 5 -1
BITMAP
0070003800
00F800FC00
00FC00FC00
01FC00FC00
01FC00FC00
00FC00FC00
0078007800
0000000000
0000000000
0000000000
0000000000
0000000000
0000000000
0000000000
0000000000
0000000000
0000000000
0001FE0000
000FFFC000
003FFFF000
007FFFF800
00FC00FE00
03F0003E00
03E0001F00
07C0000F80
0F80000780
1F000003C0
1E000003C0
3E000003E0
3C000001E0
3C000001E0
78000001E0
78000000E0
78000000F0
F0000000F0
F0000000F0
F0000000F0
F0000000F0
FFFFFFFFF0
FFFFFFFFF0
FFFFFFFFF0
F000000000
F000000000
F000000000
F000000000
F000000000
F800000000
7800000000
7800000000
7800000000
7C00000000
3C00000000
3E00000000
1E00000000
1F00000000
0F80000000
07C0000000
07E0000180
03F8000780
01FE001FC0
007FF7FF80
003FFFFE00
000FFFF000
0000FF8000
ENDCHAR
STARTCHAR 00EC
ENCODING 236
SWIDTH 229 0
DWIDTH 21 0
BBX 15 68 0 1
BITMAP
3000
F800
FC00
7E00
3F00
1F00
0F80
07C0
03E0
01F0
00F8
007C
003C
001E
000C
0000
0000
0000
0000
0000
0000
0000
0000
0000
00F0
00F0
00F0
00F0
00F0
00F0
00F0
00F0
00F0
00F0
00F0
00F0
00F0
00F0
00F0
00F0
00F0
00F0
00F0
00F0
00F0
00F0
00F0
00F0
00F0
00F0
00F0
00F0
00F0
00F0
00F0
00F0
00F0
00F0
00F0
00F0
00F0
00F0
00F0
00F0
00F0
00F0
00F0
00F0
ENDCHAR
STARTCHAR 00ED
ENCODING 237
SWIDTH 229 0
DWIDTH 21 0
BBX 15 68 6 1
BITMAP
0018
003C
007E
00FC
01F8
01F0
03E0
07C0
0F80
1F00
3E00
7C00
F800
F000
6000
0000
0000
0000
0000
0000
0000
0000
0000
0000
3C00
3C00
3C00
3C00
3C00
3C00
3C00
3C00
3C00
3C00
3C00
3C00
3C00
3C00
3C00
3C00
3C00
3C00
3C00
3C00
3C00
3C00
3C00
3C00
3C00
3C00
3C00
3C00
3C00
3C00
3C00
3C00
3C00
3C00
3C00
3C00
3C00
3C00
3C00
3C00
3C00
3C00
3C00
3C00
ENDCHAR
STARTCHAR 00EE
ENCODING 238
SWIDTH 229 0
DWIDTH 21 0
BBX 25 68 -2 0
BITMAP
003C0000
003E0000
007F0000
00FF8000
01F7C000
03E3E000
03C1E000
0780F000
0F007800
1E003C00
3C003E00
38001E00
78000F00
F0000780
60000300
00000000
00000000
00000000
00000000
00000000
00000000
00000000
00000000
00000000
003C0000
003C0000
003C0000
003C0000
003C0000
003C0000
003C0000
003C0000
003C0000
003C0000
003C0000
003C0000
003C0000
003C0000
003C0000
003C0000
003C0000
003C0000
003C0000
003C0000
003C0000
003C0000
003C0000
003C0000
003C0000
003C0000
003C0000
003C0000
003C0000
003C0000
003C0000
003C0000
003C0000
003C0000
003C0000
003C0000
003C0000
003C0000
003C0000
003C0000
003C0000
003C0000
003C0000
003C0000
ENDCHAR
STARTCHAR 00EF
ENCODING 239
SWIDTH 229 0
DWIDTH 21 0
BBX 23 62 -1 0
BITMAP
380038
7C007C
FE00FE
FE00FE
FE00FE
FC007C
780038
000000
000000
000000
000000
000000
000000
000000
000000
000000
000000
000000
007800
007800
007800
007800
007800
007800
007800
007800
007800
007800
007800
007800
007800
007800
007800
007800
007800
007800
007800
007800
007800
007800
007800
007800
007800
007800
007800
007800
007800
007800
007800
007800
007800
007800
007800
007800
007800
007800
007800
007800
007800
007800
007800
007800
ENDCHAR
STARTCHAR 00F0
ENCODING 240
SWIDTH 534 0
DWIDTH 49 0
BBX 37 67 6 -1
BITMAP
0060000000
0078000000
00FC000030
007F0000F0
001F8003F8
000FE007E0
0003F01F80
0001F87E00
00007DF800
00003FE000
00001F8000
00007FC000
0001FBC000
0007E1E000
001F81F000
007E00F800
01F8007C00
00E0003C00
0080001E00
0000001F00
0000000F00
0000000F80
0000000780
0000000780
00000003C0
00000003C0
000FFF03E0
003FFFC1E0
00FFFFF1E0
01FE01F9F0
03F0007CF0
07C0001EF0
0F80000FF0
1F000003F0
3E000003F8
3C000001F8
7C000000F8
7800000078
7800000078
F000000078
F000000078
F000000078
F000000078
F000000078
F000000078
F000000078
F000000078
F000000078
F000000078
F0000000F8
F0000000F0
F0000000F0
F8000000F0
78000001F0
78000001E0
7C000001E0
3E000003C0
3E000007C0
1F00000780
0F80000F80
07C0001F00
07F0003E00
03FC00FC00
00FFFFF800
007FFFE000
001FFFC000
0003FE0000
ENDCHAR
STARTCHAR 00F1
ENCODING 241
SWIDTH 534 0
DWIDTH 49 0
BBX 33 66 8 0
BITMAP
00FC000380
01FF000380
03FF800380
07CFC00780
0F03E00700
0E01F00700
0E00F80F00
1E007C0E00
1C003F3E00
1C001FFC00
1C000FF800
1C0003F000
0000000000
0000000000
0000000000
0000000000
0000000000
0000000000
0000000000
0000000000
0000FF0000
0007FFE000
F01FFFF000
F03FFFF800
F0FC01FC00
F1F0007E00
F3E0003E00
F780001F00
FF00001F00
FE00000F00
FC00000F00
F800000F80
F000000780
F000000780
F000000780
F000000780
F000000780
F000000780
F000000780
F000000780
F000000780
F000000780
F000000780
F000000780
F000000780
F000000780
F000000780
F000000780
F000000780
F000000780
F000000780
F000000780
F000000780
F000000780
F000000780
F000000780
F000000780
F000000780
F000000780
F000000780
F000000780
F000000780
F000000780
F000000780
F000000780
F000000780
ENDCHAR
STARTCHAR 00F2
ENCODING 242
SWIDTH 534 0
DWIDTH 49 0
BBX 39 69 5 0
BITMAP
0018000000
003C000000
007E000000
003F000000
001F800000
000FC00000
0007C00000
0001E00000
0000F00000
0000780000
00003C0000
00001E0000
00000F0000
0000070000
0000020000
0000000000
0000000000
0000000000
0000000000
0000000000
0000000000
0000000000
0001FF0000
000FFFE000
003FFFF800
007FFFFC00
01FC00FF00
03F0003F80
07E0000FC0
07C00007E0
0F800003E0
1F000001F0
1E000000F0
3E000000F8
3C00000078
7C0000007C
780000003C
780000003C
780000003E
F80000003E
F00000001E
F00000001E
F00000001E
F00000001E
F00000001E
F00000001E
F00000001E
F00000001E
F00000001E
F00000001E
F00000001E
F80000003E
780000003E
780000003C
780000003C
7C0000007C
3C00000078
3E000000F8
1E000000F0
1F000001F0
0F800003E0
07C00007E0
07E0000FC0
03F0001F80
01FE007F00
007FFFFC00
003FFFF800
000FFFE000
0001FF0000
ENDCHAR
STARTCHAR 00F3
ENCODING 243
SWIDTH 534 0
DWIDTH 49 0
BBX 39 69 5 0
BITMAP
0000003000
0000007800
000000FC00
000001F000
000003E000
000007C000
00000F8000
00000F0000
00001E0000
00003C0000
0000780000
0000F00000
0001E00000
0001C00000
0000800000
0000000000
0000000000
0000000000
0000000000
0000000000
0000000000
0000000000
0001FF0000
000FFFE000
003FFFF800
007FFFFC00
01FC00FF00
03F0003F80
07E0000FC0
07C00007E0
0F800003E0
1F000001F0
1E000000F0
3E000000F8
3C00000078
7C0000007C
780000003C
780000003C
780000003E
F80000003E
F00000001E
F00000001E
F00000001E
F00000001E
F00000001E
F00000001E
F00000001E
F00000001E
F00000001E
F00000001E
F00000001E
F80000003E
780000003E
780000003C
780000003C
7C0000007C
3C00000078
3E000000F8
1E000000F0
1F000001F0
0F800003E0
07C00007E0
07E0000FC0
03F0001F80
01FE007F00
007FFFFC00
003FFFF800
000FFFE000
0001FF0000
ENDCHAR
STARTCHAR 00F4
ENCODING 244
SWIDTH 534 0
DWIDTH 49 0
BBX 39 70 5 -1
BITMAP
0000780000
00007C0000
0000FE0000
0001FF0000
0003EF8000
0007C7C000
000783C000
000F01E000
001E00F000
003C007800
0078007C00
0078003C00
00F0001E00
01E0000F00
00C0000600
0000000000
0000000000
0000000000
0000000000
0000000000
0000000000
0000000000
0000000000
0001FF0000
000FFFE000
003FFFF800
007FFFFC00
01FC00FF00
03F0003F80
07E0000FC0
07C00007E0
0F800003E0
1F000001F0
1E000000F0
3E000000F8
3C00000078
7C0000007C
780000003C
780000003C
780000003E
F80000003E
F00000001E
F00000001E
F00000001E
F00000001E
F00000001E
F00000001E
F00000001E
F00000001E
F00000001E
F00000001E
F00000001E
F80000003E
780000003E
780000003C
780000003C
7C0000007C
3C00000078
3E000000F8
1E000000F0
1F000001F0
0F800003E0
07C00007E0
07E0000FC0
03F0001F80
01FE007F00
007FFFFC00
003FFFF800
000FFFE000
0001FF0000
ENDCHAR
STARTCHAR 00F5
ENCODING 245
SWIDTH 534 0
DWIDTH 49 0
BBX 39 67 5 -1
BITMAP
003E0001E0
00FF8001C0
01FFC001C0
01E3E001C0
03C0F001C0
03807803C0
07803C0380
07001E0780
07000F8F00
070007FF00
070003FE00
0F0000F800
0000000000
0000000000
0000000000
0000000000
0000000000
0000000000
0000000000
0000000000
0001FF0000
000FFFE000
003FFFF800
007FFFFC00
01FC00FF00
03F0003F80
07E0000FC0
07C00007E0
0F800003E0
1F000001F0
1E000000F0
3E000000F8
3C00000078
7C0000007C
780000003C
780000003C
780000003E
F80000003E
F00000001E
F00000001E
F00000001E
F00000001E
F00000001E
F00000001E
F00000001E
F00000001E
F00000001E
F00000001E
F00000001E
F80000003E
780000003E
780000003C
780000003C
7C0000007C
3C00000078
3E000000F8
1E000000F0
1F000001F0
0F800003E0
07C00007E0
07E0000FC0
03F0001F80
01FE007F00
007FFFFC00
003FFFF800
000FFFE000
0001FF0000
ENDCHAR
STARTCHAR 00F6
ENCODING 246
SWIDTH 534 0
DWIDTH 49 0
BBX 39 64 5 -1
BITMAP
0038003800
007C007C00
00FE00FE00
00FE00FE00
00FE00FE00
00FC007C00
0078003800
0000000000
0000000000
0000000000
0000000000
0000000000
0000000000
0000000000
0000000000
0000000000
0000000000
0001FF0000
000FFFE000
003FFFF800
007FFFFC00
01FC00FF00
03F0003F80
07E0000FC0
07C00007E0
0F800003E0
1F000001F0
1E000000F0
3E000000F8
3C00000078
7C0000007C
780000003C
780000003C
780000003E
F80000003E
F00000001E
F00000001E
F00000001E
F00000001E
F00000001E
F00000001E
F00000001E
F00000001E
F00000001E
F00000001E
F00000001E
F80000003E
780000003E
780000003C
780000003C
7C0000007C
3C00000078
3E000000F8
1E000000F0
1F000001F0
0F800003E0
07C00007E0
07E0000FC0
03F0001F80
01FE007F00
007FFFFC00
003FFFF800
000FFFE000
0001FF0000
ENDCHAR
STARTCHAR 00F7
ENCODING 247
SWIDTH 480 0
DWIDTH 44 0
BBX 38 40 3 10
BITMAP
0000780000
0000FC0000
0000FC0000
0001FC0000
0000FC0000
0000FC0000
0000780000
0000000000
0000000000
0000000000
0000000000
0000000000
0000000000
0000000000
0000000000
0000000000
0000000000
0000000000
FFFFFFFFFC
FFFFFFFFFC
FFFFFFFFFC
0000000000
0000000000
0000000000
0000000000
0000000000
0000000000
0000000000
0000000000
0000000000
0000000000
0000000000
0000000000
0000780000
0000FC0000
0000FC0000
0001FC0000
0000FC0000
0000FC0000
0000780000
ENDCHAR
STARTCHAR 00F8
ENCODING 248
SWIDTH 534 0
DWIDTH 49 0
BBX 39 49 5 -2
BITMAP
0000000004
0001FF000E
000FFFE00E
003FFFF81E
007FEFFE3E
01FC007F7C
03F0001FF8
07E0000FF0
07C00007E0
0F800003E0
1F000007E0
1E00000FF0
3E00001EF8
3C00001C78
7C00003C78
780000783C
780000F03C
780001E03C
F80001C03E
F00003C01E
F00007801E
F0000F001E
F0001E001E
F0003C001E
F00038001E
F00078001E
F000F0001E
F001E0001E
F003C0001E
F00380001E
F80780001E
780F00003E
781E00003C
783C00003C
7C7800007C
3C78000078
3EF00000F8
1FE00000F0
1FC00001F0
0F800003E0
0FC00007E0
0FE0000FC0
1FF0001F80
3DFC007F00
787FEFFC00
F03FFFF800
F00FFFE000
E001FF0000
4000000000
ENDCHAR
STARTCHAR 00F9
ENCODING 249
SWIDTH 534 0
DWIDTH 49 0
BBX 32 69 8 0
BITMAP
00C00000
03E00000
03F00000
01F00000
00F80000
007C0000
003E0000
001F0000
000F8000
0007C000
0003E000
0001E000
0000F000
00007800
00003000
00000000
00000000
00000000
00000000
00000000
00000000
00000000
00000000
00000000
F000000F
F000000F
F000000F
F000000F
F000000F
F000000F
F000000F
F000000F
F000000F
F000000F
F000000F
F000000F
F000000F
F000000F
F000000F
F000000F
F000000F
F000000F
F000000F
F000000F
F000000F
F000000F
F000000F
F000000F
F000000F
F000000F
F000000F
F000000F
F000000F
F000000F
F000000F
F000000F
F000000F
F000001F
F800003F
7800007F
780000FF
7C0001EF
3E0003CF
3F00078F
1F801F0F
0FFFFE0F
07FFF807
03FFF007
007F8000
ENDCHAR
STARTCHAR 00FA
ENCODING 250
SWIDTH 534 0
DWIDTH 49 0
BBX 32 69 8 0
BITMAP
00000180
000003C0
000007C0
00000F80
00001F00
00003E00
00007C00
00007800
0000F800
0001F000
0003E000
0007C000
000F8000
001F0000
000E0000
00000000
00000000
00000000
00000000
00000000
00000000
00000000
00000000
00000000
F000000F
F000000F
F000000F
F000000F
F000000F
F000000F
F000000F
F000000F
F000000F
F000000F
F000000F
F000000F
F000000F
F000000F
F000000F
F000000F
F000000F
F000000F
F000000F
F000000F
F000000F
F000000F
F000000F
F000000F
F000000F
F000000F
F000000F
F000000F
F000000F
F000000F
F000000F
F000000F
F000000F
F000001F
F800003F
7800007F
780000FF
7C0001EF
3E0003CF
3F00078F
1F801F0F
0FFFFE0F
07FFF807
03FFF007
007F8000
ENDCHAR
STARTCHAR 00FB
ENCODING 251
SWIDTH 534 0
DWIDTH 49 0
BBX 32 69 8 -1
BITMAP
0003C000
0003E000
0007F000
000FF800
001F7C00
003E3C00
007C1E00
00780F00
00F00780
01E007C0
03C003C0
078001E0
070000F0
0F000078
06000030
00000000
00000000
00000000
00000000
00000000
00000000
00000000
00000000
00000000
F000000F
F000000F
F000000F
F000000F
F000000F
F000000F
F000000F
F000000F
F000000F
F000000F
F000000F
F000000F
F000000F
F000000F
F000000F
F000000F
F000000F
F000000F
F000000F
F000000F
F000000F
F000000F
F000000F
F000000F
F000000F
F000000F
F000000F
F000000F
F000000F
F000000F
F000000F
F000000F
F000000F
F000001F
F800003F
7800007F
780000FF
7C0001EF
3E0003CF
3F00078F
1F801F0F
0FFFFE0F
07FFF807
03FFF007
007F8000
ENDCHAR
STARTCHAR 00FC
ENCODING 252
SWIDTH 534 0
DWIDTH 49 0
BBX 32 63 8 -1
BITMAP
01C001C0
03E003E0
07E007F0
07F007F0
07E007F0
07E003E0
03C001C0
00000000
00000000
00000000
00000000
00000000
00000000
00000000
00000000
00000000
00000000
00000000
F000000F
F000000F
F000000F
F000000F
F000000F
F000000F
F000000F
F000000F
F000000F
F000000F
F000000F
F000000F
F000000F
F000000F
F000000F
F000000F
F000000F
F000000F
F000000F
F000000F
F000000F
F000000F
F000000F
F000000F
F000000F
F000000F
F000000F
F000000F
F000000F
F000000F
F000000F
F000000F
F000000F
F000001F
F800003F
7800007F
780000FF
7C0001EF
3E0003CF
3F00078F
1F801F0F
0FFFFE0F
07FFF807
03FFF007
007F8000
ENDCHAR
STARTCHAR 00FD
ENCODING 253
SWIDTH 436 0
DWIDTH 40 0
BBX 38 89 1 -20
BITMAP
0000001000
0000003800
0000003C00
0000007C00
000000F800
000001F000
000003E000
000007C000
00000F8000
00001F0000
00001E0000
00003C0000
0000780000
0000F00000
0001E00000
0000C00000
0000000000
0000000000
0000000000
0000000000
0000000000
0000000000
0000000000
0000000000
0000000000
F80000003C
7800000078
7800000078
7C00000078
3C000000F0
3E000000F0
1E000000F0
1E000001E0
0F000001E0
0F000003E0
0F800003C0
07800003C0
0780000780
03C0000780
03C0000780
03C0000F00
01E0000F00
01E0000F00
00F0001E00
00F0001E00
00F0001E00
0078003C00
0078003C00
003C003C00
003C007800
003C007800
001E007800
001E00F000
000E00F000
000F00E000
000F01E000
000781E000
000781C000
000383C000
0003C3C000
0003C38000
0001E78000
0001E78000
0000E70000
0000FF0000
0000FF0000
00007E0000
00007E0000
00003E0000
00003C0000
00003C0000
0000380000
0000780000
0000780000
0000700000
0000F00000
0000F00000
0001E00000
0001E00000
0003C00000
0003C00000
0007800000
000F800000
001F000000
007E000000
3FFC000000
3FF8000000
7FE0000000
3F80000000
ENDCHAR
STARTCHAR 00FE
ENCODING 254
SWIDTH 545 0
DWIDTH 50 0
BBX 37 86 8 -20
BITMAP
F000000000
F000000000
F000000000
F000000000
F000000000
F000000000
F000000000
F000000000
F000000000
F000000000
F000000000
F000000000
F000000000
F000000000
F000000000
F000000000
F000000000
F000000000
F000000000
F000000000
F000FF0000
F007FFE000
F01FFFF800
F07FFFFC00
F1FC00FE00
F3F0003F00
F7C0001F80
FF80000FC0
FE000007C0
FC000003E0
F8000003E0
F0000001E0
F0000001F0
F0000000F0
F0000000F0
F0000000F8
F0000000F8
F0000000F8
F000000078
F000000078
F000000078
F000000078
F000000078
F000000078
F000000078
F000000078
F000000078
F0000000F8
F0000000F8
F0000000F0
F0000000F0
F0000000F0
F0000001F0
F0000001E0
F0000003E0
F0000003E0
F0000007C0
F000000780
FC00000F80
FE00001F00
FF80003E00
FFC000FC00
F3F801F800
F1FFFFF000
F07FFFE000
F01FFF8000
F003FC0000
F000000000
F000000000
F000000000
F000000000
F000000000
F000000000
F000000000
F000000000
F000000000
F000000000
F000000000
F000000000
F000000000
F000000000
F000000000
F000000000
F000000000
F000000000
F000000000
ENDCHAR
STARTCHAR 00FF
ENCODING 255
SWIDTH 436 0
DWIDTH 40 0
BBX 38 82 1 -20
BITMAP
0038001C00
007E003E00
007E007E00
00FE007F00
007E007E00
007E007E00
003C003C00
0000000000
0000000000
0000000000
0000000000
0000000000
0000000000
0000000000
0000000000
0000000000
0000000000
0000000000
F80000003C
7800000078
7800000078
7C00000078
3C000000F0
3E000000F0
1E000000F0
1E000001E0
0F000001E0
0F000003E0
0F800003C0
07800003C0
0780000780
03C0000780
03C0000780
03C0000F00
01E0000F00
01E0000F00
00F0001E00
00F0001E00
00F0001E00
0078003C00
0078003C00
003C003C00
003C007800
003C007800
001E007800
001E00F000
000E00F000
000F00E000
000F01E000
000781E000
000781C000
000383C000
0003C3C000
0003C38000
0001E78000
0001E78000
0000E70000
0000FF0000
0000FF0000
00007E0000
00007E0000
00003E0000
00003C0000
00003C0000
0000380000
0000780000
0000780000
0000700000
0000F00000
0000F00000
0001E00000
0001E00000
0003C00000
0003C00000
0007800000
000F800000
001F000000
007E000000
3FFC000000
3FF8000000
7FE0000000
3F80000000
ENDCHAR
STARTCHAR 0100
ENCODING 256
SWIDTH 523 0
DWIDTH 48 0
BBX 46 71 1 0
BITMAP
000FFFFFC000
000FFFFFC000
000FFFFFC000
000000000000
000000000000
000000000000
000000000000
000000000000
000000000000
000000000000
000000000000
000007800000
00000FC00000
00000FC00000
00000FC00000
00001FE00000
00001CE00000
00001CF00000
00003CF00000
00003C700000
000038780000
000078780000
000078380000
0000703C0000
0000F03C0000
0000F01C0000
0000E01E0000
0001E01E0000
0001E00E0000
0003C00F0000
0003C00F0000
0003C0078000
000780078000
000780078000
00078003C000
000F0003C000
000F0003C000
000F0001E000
001E0001E000
001E0001E000
001E0000F000
003C0000F000
003C0000F000
007C00007800
007800007800
007800007800
00F800003C00
00FFFFFFFC00
00FFFFFFFE00
01FFFFFFFE00
01FFFFFFFE00
01E000001F00
03C000000F00
03C000000F00
03C000000F80
078000000780
078000000780
0780000007C0
0F00000003C0
0F00000003C0
1F00000003E0
1E00000001E0
1E00000001E0
3E00000001F0
3C00000000F0
3C00000000F8
7C00000000F8
780000000078
78000000007C
F0000000003C
F0000000003C
ENDCHAR
STARTCHAR 0101
ENCODING 257
SWIDTH 490 0
DWIDTH 45 0
BBX 33 60 5 -1
BITMAP
01FFFFFC00
01FFFFFC00
01FFFFFC00
0000000000
0000000000
0000000000
0000000000
0000000000
0000000000
0000000000
0000000000
0000000000
0000000000
0003FE0000
001FFFC000
00FFFFE000
03FFFFF000
0FF001F800
1FC0007C00
1F00003E00
1C00003E00
0800001F00
0000001F00
0000000F00
0000000F00
0000000F00
0000000F80
0000000780
0000000780
0000000780
0000000780
000000FF80
00003FFF80
0003FFFF80
001FFF8780
007FE00780
01FF000780
03F8000780
0FE0000780
1F80000780
1F00000780
3E00000780
7C00000780
7800000780
7800000780
7800000780
F800000780
F000000780
F800000780
F800000F80
7800001F80
7800003F80
7C00007F80
7C0001F780
3E0007E780
1F801F8780
1FFBFF0780
07FFFC0780
03FFF00780
007F800000
ENDCHAR
STARTCHAR 0102
ENCODING 258
SWIDTH 523 0
DWIDTH 48 0
BBX 46 77 1 0
BITMAP
000C00004000
001C0000E000
001C0000E000
001E0000E000
000E0001E000
000F0001C000
00078003C000
0007C00F8000
0003F03F0000
0001FFFE0000
00007FF80000
00001FE00000
000000000000
000000000000
000000000000
000000000000
000000000000
000007800000
00000FC00000
00000FC00000
00000FC00000
00001FE00000
00001CE00000
00001CF00000
00003CF00000
00003C700000
000038780000
000078780000
000078380000
0000703C0000
0000F03C0000
0000F01C0000
0000E01E0000
0001E01E0000
0001E00E0000
0003C00F0000
0003C00F0000
0003C0078000
000780078000
000780078000
00078003C000
000F0003C000
000F0003C000
000F0001E000
001E0001E000
001E0001E000
001E0000F000
003C0000F000
003C0000F000
007C00007800
007800007800
007800007800
00F800003C00
00FFFFFFFC00
00FFFFFFFE00
01FFFFFFFE00
01FFFFFFFE00
01E000001F00
03C000000F00
03C000000F00
03C000000F80
078000000780
078000000780
0780000007C0
0F00000003C0
0F00000003C0
1F00000003E0
1E00000001E0
1E00000001E0
3E00000001F0
3C00000000F0
3C00000000F8
7C00000000F8
780000000078
78000000007C
F0000000003C
F0000000003C
ENDCHAR
STARTCHAR 0103
ENCODING 259
SWIDTH 490 0
DWIDTH 45 0
BBX 33 67 5 -1
BITMAP
0700000700
0700000700
0700000F00
0780000E00
0380000E00
03C0001E00
01E0003C00
01F0007800
00F800F800
007E03F000
003FFFE000
001FFF8000
0003FE0000
0000000000
0000000000
0000000000
0000000000
0000000000
0000000000
0000000000
0003FE0000
001FFFC000
00FFFFE000
03FFFFF000
0FF001F800
1FC0007C00
1F00003E00
1C00003E00
0800001F00
0000001F00
0000000F00
0000000F00
0000000F00
0000000F80
0000000780
0000000780
0000000780
0000000780
000000FF80
00003FFF80
0003FFFF80
001FFF8780
007FE00780
01FF000780
03F8000780
0FE0000780
1F80000780
1F00000780
3E00000780
7C00000780
7800000780
7800000780
7800000780
F800000780
F000000780
F800000780
F800000F80
7800001F80
7800003F80
7C00007F80
7C0001F780
3E0007E780
1F801F8780
1FFBFF0780
07FFFC0780
03FFF00780
007F800000
ENDCHAR
STARTCHAR 0104
ENCODING 260
SWIDTH 523 0
DWIDTH 48 0
BBX 50 79 1 -19
BITMAP
00000780000000
00000FC0000000
00000FC0000000
00000FC0000000
00001FE0000000
00001CE0000000
00001CF0000000
00003CF0000000
00003C70000000
00003878000000
00007878000000
00007838000000
0000703C000000
0000F03C000000
0000F01C000000
0000E01E000000
0001E01E000000
0001E00E000000
0003C00F000000
0003C00F000000
0003C007800000
00078007800000
00078007800000
00078003C00000
000F0003C00000
000F0003C00000
000F0001E00000
001E0001E00000
001E0001E00000
001E0000F00000
003C0000F00000
003C0000F00000
007C0000780000
00780000780000
00780000780000
00F800003C0000
00FFFFFFFC0000
00FFFFFFFE0000
01FFFFFFFE0000
01FFFFFFFE0000
01E000001F0000
03C000000F0000
03C000000F0000
03C000000F8000
07800000078000
07800000078000
0780000007C000
0F00000003C000
0F00000003C000
1F00000003E000
1E00000001E000
1E00000001E000
3E00000001F000
3C00000000F000
3C00000000F800
7C00000000F800
78000000007800
78000000007C00
F0000000003C00
F0000000003C00
00000000003C00
00000000007800
0000000000F000
0000000001E000
0000000003C000
00000000038000
00000000078000
00000000070000
00000000070000
000000000F0000
000000000F0000
000000000F0000
000000000F0000
000000000F0000
00000000078000
0000000007F780
0000000003FFC0
0000000001FF80
00000000007E00
ENDCHAR
STARTCHAR 0105
ENCODING 261
SWIDTH 490 0
DWIDTH 45 0
BBX 34 64 5 -18
BITMAP
0003FE0000
001FFFC000
00FFFFE000
03FFFFF000
0FF001F800
1FC0007C00
1F00003E00
1C00003E00
0800001F00
0000001F00
0000000F00
0000000F00
0000000F00
0000000F80
0000000780
0000000780
0000000780
0000000780
000000FF80
00003FFF80
0003FFFF80
001FFF8780
007FE00780
01FF000780
03F8000780
0FE0000780
1F80000780
1F00000780
3E00000780
7C00000780
7800000780
7800000780
7800000780
F800000780
F000000780
F800000780
F800000F80
7800001F80
7800003F80
7C00007F80
7C0001F780
3E0007E780
1F801F8780
1FFBFF0780
07FFFC0780
03FFF00780
007F800F00
0000003C00
0000007800
000000F000
000000E000
000001C000
000003C000
0000038000
0000038000
0000078000
0000078000
0000078000
0000078000
000003C000
000003E0C0
000001FFC0
000000FFC0
0000007F00
ENDCHAR
STARTCHAR 0106
ENCODING 262
SWIDTH 567 0
DWIDTH 52 0
BBX 43 79 5 0
BITMAP
000000018000
00000003C000
00000007E000
0000000FC000
0000001F0000
0000003E0000
0000007C0000
000000F80000
000001F00000
000003E00000
000007800000
000003000000
000002000000
000000000000
000000000000
000000000000
000007FC0000
00007FFFC000
0001FFFFF000
0007FFFFF800
001FF003FE00
003FC0007F00
007F00001F80
00FC00000F80
01F800000780
03F000000300
03E000000000
07C000000000
0F8000000000
0F8000000000
1F0000000000
1F0000000000
1E0000000000
3E0000000000
3C0000000000
3C0000000000
7C0000000000
7C0000000000
780000000000
780000000000
780000000000
F80000000000
F80000000000
F80000000000
F80000000000
F80000000000
F00000000000
F00000000000
F00000000000
F80000000000
F80000000000
F80000000000
F80000000000
F80000000000
780000000000
780000000000
780000000000
7C0000000000
7C0000000000
3C0000000000
3E0000000000
3E0000000000
1E0000000000
1F0000000000
1F0000000000
0F8000000000
0F8000000000
07C000000000
03E0000000C0
03F0000001E0
01F8000003E0
00FC000007C0
007F00001F80
003FC0007F00
001FF001FE00
0007FFFFFC00
0003FFFFF000
00007FFFC000
00000FFC0000
ENDCHAR
STARTCHAR 0107
ENCODING 263
SWIDTH 447 0
DWIDTH 41 0
BBX 33 70 5 -1
BITMAP
0000001000
0000003800
0000007C00
0000007C00
000000F800
000001F000
000003E000
000007C000
00000F8000
00001F0000
00003E0000
00007C0000
0000F80000
0001F00000
0000E00000
0000400000
0000000000
0000000000
0000000000
0000000000
0000000000
0000000000
0000000000
0000FF0000
000FFFE000
003FFFF800
007FFFFC00
00FE007F00
03F8001F80
03E0000F00
07C0000600
0F80000000
1F00000000
1F00000000
3E00000000
3C00000000
7C00000000
7C00000000
7800000000
7800000000
F800000000
F000000000
F000000000
F000000000
F000000000
F000000000
F000000000
F000000000
F000000000
F000000000
F000000000
F000000000
F800000000
F800000000
7800000000
7800000000
7C00000000
3C00000000
3E00000000
1E00000000
1F00000000
0F80000100
0FC0000380
07E0000780
03F8001F80
01FE007F00
00FFFFFE00
003FFFF800
000FFFE000
0001FF0000
ENDCHAR
STARTCHAR 0108
ENCODING 264
SWIDTH 567 0
DWIDTH 52 0
BBX 43 78 5 -1
BITMAP
000003E00000
000007F00000
00000FF80000
00001F7C0000
00003E1E0000
0000780F0000
0000F0078000
0001E003C000
0003C001E000
00078000F000
000700003800
000000000000
000000000000
000000000000
000000000000
000007FC0000
00007FFFC000
0001FFFFF000
0007FFFFF800
001FF003FE00
003FC0007F00
007F00001F80
00FC00000F80
01F800000780
03F000000300
03E000000000
07C000000000
0F8000000000
0F8000000000
1F0000000000
1F0000000000
1E0000000000
3E0000000000
3C0000000000
3C0000000000
7C0000000000
7C0000000000
780000000000
780000000000
780000000000
F80000000000
F80000000000
F80000000000
F80000000000
F80000000000
F00000000000
F00000000000
F00000000000
F80000000000
F80000000000
F80000000000
F80000000000
F80000000000
780000000000
780000000000
780000000000
7C0000000000
7C0000000000
3C0000000000
3E0000000000
3E0000000000
1E0000000000
1F0000000000
1F0000000000
0F8000000000
0F8000000000
07C000000000
03E0000000C0
03F0000001E0
01F8000003E0
00FC000007C0
007F00001F80
003FC0007F00
001FF001FE00
0007FFFFFC00
0003FFFFF000
00007FFFC000
00000FFC0000
ENDCHAR
STARTCHAR 0109
ENCODING 265
SWIDTH 447 0
DWIDTH 41 0
BBX 33 70 5 -1
BITMAP
00003C0000
00007E0000
0000FF0000
0000FF0000
0001E78000
0003C7C000
000783E000
000F81F000
001F00F000
001E007800
003C003C00
0078001E00
00F0000F00
01E0000700
00C0000300
0000000200
0000000000
0000000000
0000000000
0000000000
0000000000
0000000000
0000000000
0000FF0000
000FFFE000
003FFFF800
007FFFFC00
00FE007F00
03F8001F80
03E0000F00
07C0000600
0F80000000
1F00000000
1F00000000
3E00000000
3C00000000
7C00000000
7C00000000
7800000000
7800000000
F800000000
F000000000
F000000000
F000000000
F000000000
F000000000
F000000000
F000000000
F000000000
F000000000
F000000000
F000000000
F800000000
F800000000
7800000000
7800000000
7C00000000
3C00000000
3E00000000
1E00000000
1F00000000
0F80000100
0FC0000380
07E0000780
03F8001F80
01FE007F00
00FFFFFE00
003FFFF800
000FFFE000
0001FF0000
ENDCHAR
STARTCHAR 010A
ENCODING 266
SWIDTH 567 0
DWIDTH 52 0
BBX 43 75 5 -1
BITMAP
000001E00000
000003F00000
000007F00000
000007F00000
000007F00000
000007F00000
000003E00000
000000000000
000000000000
000000000000
000000000000
000000000000
000007FC0000
00007FFFC000
0001FFFFF000
0007FFFFF800
001FF003FE00
003FC0007F00
007F00001F80
00FC00000F80
01F800000780
03F000000300
03E000000000
07C000000000
0F8000000000
0F8000000000
1F0000000000
1F0000000000
1E0000000000
3E0000000000
3C0000000000
3C0000000000
7C0000000000
7C0000000000
780000000000
780000000000
780000000000
F80000000000
F80000000000
F80000000000
F80000000000
F80000000000
F00000000000
F00000000000
F00000000000
F80000000000
F80000000000
F80000000000
F80000000000
F80000000000
780000000000
780000000000
780000000000
7C0000000000
7C0000000000
3C0000000000
3E0000000000
3E0000000000
1E0000000000
1F0000000000
1F0000000000
0F8000000000
0F8000000000
07C000000000
03E0000000C0
03F0000001E0
01F8000003E0
00FC000007C0
007F00001F80
003FC0007F00
001FF001FE00
0007FFFFFC00
0003FFFFF000
00007FFFC000
00000FFC0000
ENDCHAR
STARTCHAR 010B
ENCODING 267
SWIDTH 447 0
DWIDTH 41 0
BBX 33 64 5 -1
BITMAP
00003C0000
00007E0000
00007E0000
0000FE0000
00007E0000
00007E0000
00003C0000
0000000000
0000000000
0000000000
0000000000
0000000000
0000000000
0000000000
0000000000
0000000000
0000000000
0000FF0000
000FFFE000
003FFFF800
007FFFFC00
00FE007F00
03F8001F80
03E0000F00
07C0000600
0F80000000
1F00000000
1F00000000
3E00000000
3C00000000
7C00000000
7C00000000
7800000000
7800000000
F800000000
F000000000
F000000000
F000000000
F000000000
F000000000
F000000000
F000000000
F000000000
F000000000
F000000000
F000000000
F800000000
F800000000
7800000000
7800000000
7C00000000
3C00000000
3E00000000
1E00000000
1F00000000
0F80000100
0FC0000380
07E0000780
03F8001F80
01FE007F00
00FFFFFE00
003FFFF800
000FFFE000
0001FF0000
ENDCHAR
STARTCHAR 010C
ENCODING 268
SWIDTH 567 0
DWIDTH 52 0
BBX 43 79 5 -1
BITMAP
000200001000
000F00007800
00078000F000
0003C001E000
0001E003C000
0000F0078000
00007C0F0000
00003E1E0000
00001F7C0000
00000FF80000
000007F00000
000003E00000
000000000000
000000000000
000000000000
000000000000
000007FC0000
00007FFFC000
0001FFFFF000
0007FFFFF800
001FF003FE00
003FC0007F00
007F00001F80
00FC00000F80
01F800000780
03F000000300
03E000000000
07C000000000
0F8000000000
0F8000000000
1F0000000000
1F0000000000
1E0000000000
3E0000000000
3C0000000000
3C0000000000
7C0000000000
7C0000000000
780000000000
780000000000
780000000000
F80000000000
F80000000000
F80000000000
F80000000000
F80000000000
F00000000000
F00000000000
F00000000000
F80000000000
F80000000000
F80000000000
F80000000000
F80000000000
780000000000
780000000000
780000000000
7C0000000000
7C0000000000
3C0000000000
3E0000000000
3E0000000000
1E0000000000
1F0000000000
1F0000000000
0F8000000000
0F8000000000
07C000000000
03E0000000C0
03F0000001E0
01F8000003E0
00FC000007C0
007F00001F80
003FC0007F00
001FF001FE00
0007FFFFFC00
0003FFFFF000
00007FFFC000
00000FFC0000
ENDCHAR
STARTCHAR 010D
ENCODING 269
SWIDTH 447 0
DWIDTH 41 0
BBX 33 69 5 -1
BITMAP
00C0000300
01E0000700
00F0000F00
0078001E00
003C003C00
001E007800
001F00F000
000F81F000
000783E000
0003C7C000
0001E78000
0001FF0000
0000FF0000
00007E0000
00003C0000
0000000000
0000000000
0000000000
0000000000
0000000000
0000000000
0000000000
0000FF0000
000FFFE000
003FFFF800
007FFFFC00
00FE007F00
03F8001F80
03E0000F00
07C0000600
0F80000000
1F00000000
1F00000000
3E00000000
3C00000000
7C00000000
7C00000000
7800000000
7800000000
F800000000
F000000000
F000000000
F000000000
F000000000
F000000000
F000000000
F000000000
F000000000
F000000000
F000000000
F000000000
F800000000
F800000000
7800000000
7800000000
7C00000000
3C00000000
3E00000000
1E00000000
1F00000000
0F80000100
0FC0000380
07E0000780
03F8001F80
01FE007F00
00FFFFFE00
003FFFF800
000FFFE000
0001FF0000
ENDCHAR
STARTCHAR 010E
ENCODING 270
SWIDTH 600 0
DWIDTH 55 0
BBX 41 77 9 0
BITMAP
008000040000
03C0000E0000
01E0003C0000
00F000780000
007800F00000
003C01E00000
001F03C00000
000F87800000
0007DF000000
0003FE000000
0001FC000000
0000F8000000
000000000000
000000000000
000000000000
000000000000
000000000000
FFFFF0000000
FFFFFF000000
FFFFFFE00000
FFFFFFF80000
F00007FE0000
F00000FF0000
F000003F8000
F000000FC000
F0000007E000
F0000003F000
F0000001F000
F0000000F800
F00000007C00
F00000007C00
F00000003E00
F00000003E00
F00000001E00
F00000001F00
F00000001F00
F00000000F00
F00000000F00
F00000000F80
F00000000F80
F00000000F80
F00000000780
F00000000780
F00000000780
F00000000780
F00000000780
F00000000780
F00000000780
F00000000780
F00000000780
F00000000780
F00000000780
F00000000780
F00000000F80
F00000000F80
F00000000F80
F00000000F00
F00000000F00
F00000001F00
F00000001F00
F00000001E00
F00000003E00
F00000003C00
F00000007C00
F0000000F800
F0000000F800
F0000001F000
F0000003F000
F0000007E000
F000000FC000
F000003F8000
F00000FF0000
F00007FC0000
FFFFFFF80000
FFFFFFE00000
FFFFFF000000
FFFFF0000000
ENDCHAR
STARTCHAR 010F
ENCODING 271
SWIDTH 545 0
DWIDTH 50 0
BBX 46 70 5 -1
BITMAP
00000000003C
00000000003C
00000000003C
00000000F03C
00000000F03C
00000000F03C
00000000F038
00000000F038
00000000F038
00000000F038
00000000F038
00000000F038
00000000F038
00000000F038
00000000F038
00000000F038
00000000F038
00000000F038
00000000F000
00000000F000
00000000F000
00000000F000
00000000F000
0001FF00F000
000FFFC0F000
003FFFF0F000
007FFFFC7000
00FE007E7000
03F8001FF000
03E00007F000
07C00003F000
0F800001F000
1F000000F000
1F000000F000
3E000000F000
3E000000F000
3C000000F000
7C000000F000
78000000F000
78000000F000
F8000000F000
F8000000F000
F0000000F000
F0000000F000
F0000000F000
F0000000F000
F0000000F000
F0000000F000
F0000000F000
F0000000F000
F0000000F000
F0000000F000
F8000000F000
F8000000F000
78000000F000
78000000F000
7C000000F000
7C000000F000
3C000000F000
3E000000F000
1F000001F000
1F000003F000
0F800007F000
0FC0001F7000
07F0003E7000
03FC00FC7000
01FFFFF07000
007FFFE07000
001FFF807000
0003FC000000
ENDCHAR
STARTCHAR 0110
ENCODING 272
SWIDTH 621 0
DWIDTH 57 0
BBX 49 60 3 0
BITMAP
00FFFFF0000000
00FFFFFF000000
00FFFFFFE00000
00FFFFFFF80000
00F00007FE0000
00F00000FF0000
00F000003F8000
00F000000FC000
00F0000007E000
00F0000003F000
00F0000001F000
00F0000000F800
00F0000000FC00
00F00000007C00
00F00000003E00
00F00000003E00
00F00000001E00
00F00000001F00
00F00000001F00
00F00000000F00
00F00000000F00
00F00000000F80
00F00000000F80
00F00000000F80
00F00000000780
00F00000000780
00F00000000780
FFFFFFE0000780
FFFFFFE0000780
FFFFFFE0000780
00F00000000780
00F00000000780
00F00000000780
00F00000000780
00F00000000780
00F00000000780
00F00000000F80
00F00000000F80
00F00000000F80
00F00000000F00
00F00000000F00
00F00000001F00
00F00000001F00
00F00000001E00
00F00000003E00
00F00000003C00
00F00000007C00
00F0000000F800
00F0000000F800
00F0000001F000
00F0000003F000
00F0000007E000
00F000000FC000
00F000003F8000
00F00000FF0000
00F00007FC0000
00FFFFFFF80000
00FFFFFFE00000
00FFFFFF000000
00FFFFF0000000
ENDCHAR
STARTCHAR 0111
ENCODING 273
SWIDTH 545 0
DWIDTH 50 0
BBX 43 67 5 -1
BITMAP
00000000F000
00000000F000
00000000F000
00000000F000
00000000F000
00000000F000
00000000F000
00000000F000
00000000F000
00000000F000
00007FFFFFE0
00007FFFFFE0
00007FFFFFE0
00000000F000
00000000F000
00000000F000
00000000F000
00000000F000
00000000F000
00000000F000
00000000F000
00000000F000
00000000F000
00000000F000
0001FF00F000
000FFFC0F000
003FFFF0F000
00FFFFFC7000
01FC007E7000
03F0001FF000
07E00007F000
0FC00003F000
0F800001F000
1F000000F000
3E000000F000
3E000000F000
7C000000F000
7C000000F000
78000000F000
78000000F000
F8000000F000
F0000000F000
F0000000F000
F0000000F000
F0000000F000
F0000000F000
F0000000F000
F0000000F000
F0000000F000
F0000000F000
F8000000F000
F8000000F000
F8000000F000
78000000F000
7C000000F000
7C000000F000
3E000000F000
3E000001F000
1F000003F000
1F800007F000
0FC0001FF000
07E0003E7000
03F800FC7000
01FFFFF07000
00FFFFE07000
003FFF807000
0007FC000000
ENDCHAR
STARTCHAR 0112
ENCODING 274
SWIDTH 512 0
DWIDTH 47 0
BBX 34 71 9 0
BITMAP
07FFFFF000
07FFFFF000
07FFFFF000
0000000000
0000000000
0000000000
0000000000
0000000000
0000000000
0000000000
0000000000
FFFFFFFF80
FFFFFFFF80
FFFFFFFF80
FFFFFFFF80
F000000000
F000000000
F000000000
F000000000
F000000000
F000000000
F000000000
F000000000
F000000000
F000000000
F000000000
F000000000
F000000000
F000000000
F000000000
F000000000
F000000000
F000000000
F000000000
F000000000
F000000000
F000000000
FFFFFFF000
FFFFFFF000
FFFFFFF000
FFFFFFF000
F000000000
F000000000
F000000000
F000000000
F000000000
F000000000
F000000000
F000000000
F000000000
F000000000
F000000000
F000000000
F000000000
F000000000
F000000000
F000000000
F000000000
F000000000
F000000000
F000000000
F000000000
F000000000
F000000000
F000000000
F000000000
F000000000
FFFFFFFFC0
FFFFFFFFC0
FFFFFFFFC0
FFFFFFFFC0
ENDCHAR
STARTCHAR 0113
ENCODING 275
SWIDTH 480 0
DWIDTH 44 0
BBX 36 60 5 -1
BITMAP
00FFFFFC00
00FFFFFC00
00FFFFFC00
0000000000
0000000000
0000000000
0000000000
0000000000
0000000000
0000000000
0000000000
0000000000
0000000000
0001FE0000
000FFFC000
003FFFF000
007FFFF800
00FC00FE00
03F0003E00
03E0001F00
07C0000F80
0F80000780
1F000003C0
1E000003C0
3E000003E0
3C000001E0
3C000001E0
78000001E0
78000000E0
78000000F0
F0000000F0
F0000000F0
F0000000F0
F0000000F0
FFFFFFFFF0
FFFFFFFFF0
FFFFFFFFF0
F000000000
F000000000
F000000000
F000000000
F000000000
F800000000
7800000000
7800000000
7800000000
7C00000000
3C00000000
3E00000000
1E00000000
1F00000000
0F80000000
07C0000000
07E0000180
03F8000780
01FE001FC0
007FF7FF80
003FFFFE00
000FFFF000
0000FF8000
ENDCHAR
STARTCHAR 0114
ENCODING 276
SWIDTH 512 0
DWIDTH 47 0
BBX 34 77 9 0
BITMAP
0600003000
0700003800
0700003800
0700007800
0780007000
03C000F000
03C001E000
01F003E000
00FC0FC000
007FFF8000
003FFE0000
0007F80000
0000000000
0000000000
0000000000
0000000000
0000000000
FFFFFFFF80
FFFFFFFF80
FFFFFFFF80
FFFFFFFF80
F000000000
F000000000
F000000000
F000000000
F000000000
F000000000
F000000000
F000000000
F000000000
F000000000
F000000000
F000000000
F000000000
F000000000
F000000000
F000000000
F000000000
F000000000
F000000000
F000000000
F000000000
F000000000
FFFFFFF000
FFFFFFF000
FFFFFFF000
FFFFFFF000
F000000000
F000000000
F000000000
F000000000
F000000000
F000000000
F000000000
F000000000
F000000000
F000000000
F000000000
F000000000
F000000000
F000000000
F000000000
F000000000
F000000000
F000000000
F000000000
F000000000
F000000000
F000000000
F000000000
F000000000
F000000000
F000000000
FFFFFFFFC0
FFFFFFFFC0
FFFFFFFFC0
FFFFFFFFC0
ENDCHAR
STARTCHAR 0115
ENCODING 277
SWIDTH 480 0
DWIDTH 44 0
BBX 36 67 5 -1
BITMAP
0700000780
0780000700
0380000700
0380000700
03C0000F00
01C0001E00
01E0001E00
00F0003C00
007C00F800
007F03F000
001FFFE000
000FFFC000
0003FE0000
0000000000
0000000000
0000000000
0000000000
0000000000
0000000000
0000000000
0001FE0000
000FFFC000
003FFFF000
007FFFF800
00FC00FE00
03F0003E00
03E0001F00
07C0000F80
0F80000780
1F000003C0
1E000003C0
3E000003E0
3C000001E0
3C000001E0
78000001E0
78000000E0
78000000F0
F0000000F0
F0000000F0
F0000000F0
F0000000F0
FFFFFFFFF0
FFFFFFFFF0
FFFFFFFFF0
F000000000
F000000000
F000000000
F000000000
F000000000
F800000000
7800000000
7800000000
7800000000
7C00000000
3C00000000
3E00000000
1E00000000
1F00000000
0F80000000
07C0000000
07E0000180
03F8000780
01FE001FC0
007FF7FF80
003FFFFE00
000FFFF000
0000FF8000
ENDCHAR
STARTCHAR 0116
ENCODING 278
SWIDTH 512 0
DWIDTH 47 0
BBX 34 73 9 0
BITMAP
0001E00000
0003F00000
0007F00000
0007F80000
0007F00000
0003F00000
0003E00000
0000000000
0000000000
0000000000
0000000000
0000000000
0000000000
FFFFFFFF80
FFFFFFFF80
FFFFFFFF80
FFFFFFFF80
F000000000
F000000000
F000000000
F000000000
F000000000
F000000000
F000000000
F000000000
F000000000
F000000000
F000000000
F000000000
F000000000
F000000000
F000000000
F000000000
F000000000
F000000000
F000000000
F000000000
F000000000
F000000000
FFFFFFF000
FFFFFFF000
FFFFFFF000
FFFFFFF000
F000000000
F000000000
F000000000
F000000000
F000000000
F000000000
F000000000
F000000000
F000000000
F000000000
F000000000
F000000000
F000000000
F000000000
F000000000
F000000000
F000000000
F000000000
F000000000
F000000000
F000000000
F000000000
F000000000
F000000000
F000000000
F000000000
FFFFFFFFC0
FFFFFFFFC0
FFFFFFFFC0
FFFFFFFFC0
ENDCHAR
STARTCHAR 0117
ENCODING 279
SWIDTH 480 0
DWIDTH 44 0
BBX 36 64 5 -1
BITMAP
0000780000
0000FC0000
0000FC0000
0001FC0000
0000FC0000
0000FC0000
0000780000
0000000000
0000000000
0000000000
0000000000
0000000000
0000000000
0000000000
0000000000
0000000000
0000000000
0001FE0000
000FFFC000
003FFFF000
007FFFF800
00FC00FE00
03F0003E00
03E0001F00
07C0000F80
0F80000780
1F000003C0
1E000003C0
3E000003E0
3C000001E0
3C000001E0
78000001E0
78000000E0
78000000F0
F0000000F0
F0000000F0
F0000000F0
F0000000F0
FFFFFFFFF0
FFFFFFFFF0
FFFFFFFFF0
F000000000
F000000000
F000000000
F000000000
F000000000
F800000000
7800000000
7800000000
7800000000
7C00000000
3C00000000
3E00000000
1E00000000
1F00000000
0F80000000
07C0000000
07E0000180
03F8000780
01FE001FC0
007FF7FF80
003FFFFE00
000FFFF000
0000FF8000
ENDCHAR
STARTCHAR 0118
ENCODING 280
SWIDTH 512 0
DWIDTH 47 0
BBX 35 79 9 -19
BITMAP
FFFFFFFF80
FFFFFFFF80
FFFFFFFF80
FFFFFFFF80
F000000000
F000000000
F000000000
F000000000
F000000000
F000000000
F000000000
F000000000
F000000000
F000000000
F000000000
F000000000
F000000000
F000000000
F000000000
F000000000
F000000000
F000000000
F000000000
F000000000
F000000000
F000000000
FFFFFFF000
FFFFFFF000
FFFFFFF000
FFFFFFF000
F000000000
F000000000
F000000000
F000000000
F000000000
F000000000
F000000000
F000000000
F000000000
F000000000
F000000000
F000000000
F000000000
F000000000
F000000000
F000000000
F000000000
F000000000
F000000000
F000000000
F000000000
F000000000
F000000000
F000000000
F000000000
F000000000
FFFFFFFFC0
FFFFFFFFC0
FFFFFFFFC0
FFFFFFFFC0
0000001F00
0000003C00
0000007800
000000F000
000000E000
000001C000
000001C000
000003C000
0000038000
0000038000
0000078000
0000078000
0000078000
000003C000
000003E040
000003FBC0
000001FFE0
000000FFC0
0000003F00
ENDCHAR
STARTCHAR 0119
ENCODING 281
SWIDTH 480 0
DWIDTH 44 0
BBX 36 64 5 -18
BITMAP
0001FE0000
000FFFC000
003FFFF000
007FFFF800
00FC00FE00
03F0003E00
03E0001F00
07C0000F80
0F80000780
1F000003C0
1E000003C0
3E000003E0
3C000001E0
3C000001E0
78000001E0
78000000E0
78000000F0
F0000000F0
F0000000F0
F0000000F0
F0000000F0
FFFFFFFFF0
FFFFFFFFF0
FFFFFFFFF0
F000000000
F000000000
F000000000
F000000000
F000000000
F800000000
7800000000
7800000000
7800000000
7C00000000
3C00000000
3E00000000
1E00000000
1F00000000
0F80000000
07C0000000
07E0000180
03F8000780
01FE001FC0
007FF7FF80
003FFFFF00
000FFFFC00
0000FFB800
0000007000
000000E000
000001C000
000003C000
0000038000
0000070000
0000070000
00000F0000
00000F0000
00000F0000
00000F0000
00000F0000
00000F8000
000007C180
000007FF80
000003FF80
000000FE00
ENDCHAR
STARTCHAR 011A
ENCODING 282
SWIDTH 512 0
DWIDTH 47 0
BBX 34 77 9 0
BITMAP
0200001000
0700003800
0780007000
03C001E000
01E003C000
00F8078000
007C0F0000
003E1E0000
001F3C0000
000FF80000
0007F00000
0003E00000
0000000000
0000000000
0000000000
0000000000
0000000000
FFFFFFFF80
FFFFFFFF80
FFFFFFFF80
FFFFFFFF80
F000000000
F000000000
F000000000
F000000000
F000000000
F000000000
F000000000
F000000000
F000000000
F000000000
F000000000
F000000000
F000000000
F000000000
F000000000
F000000000
F000000000
F000000000
F000000000
F000000000
F000000000
F000000000
FFFFFFF000
FFFFFFF000
FFFFFFF000
FFFFFFF000
F000000000
F000000000
F000000000
F000000000
F000000000
F000000000
F000000000
F000000000
F000000000
F000000000
F000000000
F000000000
F000000000
F000000000
F000000000
F000000000
F000000000
F000000000
F000000000
F000000000
F000000000
F000000000
F000000000
F000000000
F000000000
F000000000
FFFFFFFFC0
FFFFFFFFC0
FFFFFFFFC0
FFFFFFFFC0
ENDCHAR
STARTCHAR 011B
ENCODING 283
SWIDTH 480 0
DWIDTH 44 0
BBX 36 69 5 -1
BITMAP
0180000600
03C0000E00
01E0001E00
00F0003C00
0078007800
003C00F000
003E01E000
001F03E000
000F07C000
00078F8000
0003CF0000
0003FE0000
0001FE0000
0000FC0000
0000780000
0000000000
0000000000
0000000000
0000000000
0000000000
0000000000
0000000000
0001FE0000
000FFFC000
003FFFF000
007FFFF800
00FC00FE00
03F0003E00
03E0001F00
07C0000F80
0F80000780
1F000003C0
1E000003C0
3E000003E0
3C000001E0
3C000001E0
78000001E0
78000000E0
78000000F0
F0000000F0
F0000000F0
F0000000F0
F0000000F0
FFFFFFFFF0
FFFFFFFFF0
FFFFFFFFF0
F000000000
F000000000
F000000000
F000000000
F000000000
F800000000
7800000000
7800000000
7800000000
7C00000000
3C00000000
3E00000000
1E00000000
1F00000000
0F80000000
07C0000000
07E0000180
03F8000780
01FE001FC0
007FF7FF80
003FFFFE00
000FFFF000
0000FF8000
ENDCHAR
STARTCHAR 011C
ENCODING 284
SWIDTH 600 0
DWIDTH 55 0
BBX 44 78 5 -1
BITMAP
000000F80000
000001FC0000
000003FE0000
000007DF0000
00000F878000
00001F03C000
00003C01E000
00007800F000
0000F0007800
0001E0001E00
0001C0000E00
000080000400
000000000000
000000000000
000000000000
000003FF0000
00003FFFE000
0001FFFFF800
0007FFFFFE00
000FF800FF00
001FC0001F80
007F00000FE0
00FC000003E0
01F8000001C0
01F000000080
03E000000000
07C000000000
07C000000000
0F8000000000
0F0000000000
1F0000000000
1E0000000000
3E0000000000
3C0000000000
3C0000000000
7C0000000000
7C0000000000
780000000000
780000000000
780000000000
F80000000000
F80000000000
F80000000000
F80000000000
F80000000000
F00000000000
F00000000000
F000007FFFF0
F800007FFFF0
F800007FFFF0
F800007FFFF0
F800000000F0
F800000000F0
7800000000F0
7800000000F0
7800000000F0
7C00000000F0
7C00000000F0
3C00000000F0
3E00000000F0
3E00000000F0
1E00000000F0
1F00000000F0
1F00000000F0
0F80000000F0
0F80000000F0
07C0000000F0
03E0000000F0
03F0000000F0
01F8000000F0
00FC000001F0
007F000007E0
003FC0001FC0
001FF800FF80
0007FFFFFF00
0001FFFFFC00
00007FFFE000
000007FE0000
ENDCHAR
STARTCHAR 011D
ENCODING 285
SWIDTH 490 0
DWIDTH 45 0
BBX 39 89 5 -21
BITMAP
0000780000
0000FC0000
0001FE0000
0001FE0000
0003CF0000
00078F8000
000F07C000
001F03E000
003E01E000
003C00F000
0078007800
00F0003C00
01E0001E00
03C0000E00
0180000600
0000000400
0000000000
0000000000
0000000000
0000000000
0000000000
0000000000
0007F80000
003FFC0000
007FFFFFFC
01FFFFFFFC
03FE0FFFFC
07F003F000
07C000F800
0F80007C00
1F00003C00
1F00001E00
1E00001E00
3E00000F00
3C00000F00
3C00000F00
3C00000F00
3C00000700
3C00000700
3C00000700
3C00000F00
3C00000F00
3C00000F00
1E00000F00
1E00001E00
1F00001E00
0F00003C00
0780007C00
07E000F800
03F003F000
01FE0FE000
03FFFFC000
07BFFF0000
0F07F80000
0F00000000
1E00000000
1E00000000
1C00000000
3C00000000
3C00000000
1E00000000
1E00000000
1F00000000
0FC0000000
0FFFFFF800
03FFFFFF80
03FFFFFFE0
07BFFFFFF0
0F000007F8
1E000000FC
3C0000007C
780000003C
780000003E
F00000003E
F00000003E
F00000003E
F00000003C
F00000003C
F00000003C
F000000078
F8000000F8
7C000001F0
7E000003E0
3F00000FC0
1FC0003F80
0FFE07FE00
03FFFFFC00
00FFFFE000
000FFE0000
ENDCHAR
STARTCHAR 011E
ENCODING 286
SWIDTH 600 0
DWIDTH 55 0
BBX 44 79 5 -1
BITMAP
000180000C00
0003C0000E00
0001C0000E00
0001C0001E00
0001E0001C00
0000E0003C00
0000F0007800
00007800F800
00003F03F000
00001FFFE000
00000FFF8000
000001FE0000
000000000000
000000000000
000000000000
000000000000
000003FF0000
00003FFFE000
0001FFFFF800
0007FFFFFE00
000FF800FF00
001FC0001F80
007F00000FE0
00FC000003E0
01F8000001C0
01F000000080
03E000000000
07C000000000
07C000000000
0F8000000000
0F0000000000
1F0000000000
1E0000000000
3E0000000000
3C0000000000
3C0000000000
7C0000000000
7C0000000000
780000000000
780000000000
780000000000
F80000000000
F80000000000
F80000000000
F80000000000
F80000000000
F00000000000
F00000000000
F000007FFFF0
F800007FFFF0
F800007FFFF0
F800007FFFF0
F800000000F0
F800000000F0
7800000000F0
7800000000F0
7800000000F0
7C00000000F0
7C00000000F0
3C00000000F0
3E00000000F0
3E00000000F0
1E00000000F0
1F00000000F0
1F00000000F0
0F80000000F0
0F80000000F0
07C0000000F0
03E0000000F0
03F0000000F0
01F8000000F0
00FC000001F0
007F000007E0
003FC0001FC0
001FF800FF80
0007FFFFFF00
0001FFFFFC00
00007FFFE000
000007FE0000
ENDCHAR
STARTCHAR 011F
ENCODING 287
SWIDTH 490 0
DWIDTH 45 0
BBX 39 87 5 -21
BITMAP
0700000380
0780000700
0380000700
0380000700
03C0000F00
01C0000E00
01E0001E00
01F0003C00
00F8007C00
007C00F800
003F03F000
001FFFE000
000FFF8000
0001FE0000
0000000000
0000000000
0000000000
0000000000
0000000000
0000000000
0007F80000
003FFC0000
007FFFFFFC
01FFFFFFFC
03FE0FFFFC
07F003F000
07C000F800
0F80007C00
1F00003C00
1F00001E00
1E00001E00
3E00000F00
3C00000F00
3C00000F00
3C00000F00
3C00000700
3C00000700
3C00000700
3C00000F00
3C00000F00
3C00000F00
1E00000F00
1E00001E00
1F00001E00
0F00003C00
0780007C00
07E000F800
03F003F000
01FE0FE000
03FFFFC000
07BFFF0000
0F07F80000
0F00000000
1E00000000
1E00000000
1C00000000
3C00000000
3C00000000
1E00000000
1E00000000
1F00000000
0FC0000000
0FFFFFF800
03FFFFFF80
03FFFFFFE0
07BFFFFFF0
0F000007F8
1E000000FC
3C0000007C
780000003C
780000003E
F00000003E
F00000003E
F00000003E
F00000003C
F00000003C
F00000003C
F000000078
F8000000F8
7C000001F0
7E000003E0
3F00000FC0
1FC0003F80
0FFE07FE00
03FFFFFC00
00FFFFE000
000FFE0000
ENDCHAR
STARTCHAR 0120
ENCODING 288
SWIDTH 600 0
DWIDTH 55 0
BBX 44 75 5 -1
BITMAP
000000780000
000000FC0000
000001FC0000
000001FC0000
000001FC0000
000000FC0000
000000F80000
000000000000
000000000000
000000000000
000000000000
000000000000
000003FF0000
00003FFFE000
0001FFFFF800
0007FFFFFE00
000FF800FF00
001FC0001F80
007F00000FE0
00FC000003E0
01F8000001C0
01F000000080
03E000000000
07C000000000
07C000000000
0F8000000000
0F0000000000
1F0000000000
1E0000000000
3E0000000000
3C0000000000
3C0000000000
7C0000000000
7C0000000000
780000000000
780000000000
780000000000
F80000000000
F80000000000
F80000000000
F80000000000
F80000000000
F00000000000
F00000000000
F000007FFFF0
F800007FFFF0
F800007FFFF0
F800007FFFF0
F800000000F0
F800000000F0
7800000000F0
7800000000F0
7800000000F0
7C00000000F0
7C00000000F0
3C00000000F0
3E00000000F0
3E00000000F0
1E00000000F0
1F00000000F0
1F00000000F0
0F80000000F0
0F80000000F0
07C0000000F0
03E0000000F0
03F0000000F0
01F8000000F0
00FC000001F0
007F000007E0
003FC0001FC0
001FF800FF80
0007FFFFFF00
0001FFFFFC00
00007FFFE000
000007FE0000
ENDCHAR
STARTCHAR 0121
ENCODING 289
SWIDTH 490 0
DWIDTH 45 0
BBX 39 83 5 -21
BITMAP
0000780000
0000FC0000
0000FC0000
0001FC0000
0000FC0000
0000FC0000
0000780000
0000000000
0000000000
0000000000
0000000000
0000000000
0000000000
0000000000
0000000000
0000000000
0007F80000
003FFC0000
007FFFFFFC
01FFFFFFFC
03FE0FFFFC
07F003F000
07C000F800
0F80007C00
1F00003C00
1F00001E00
1E00001E00
3E00000F00
3C00000F00
3C00000F00
3C00000F00
3C00000700
3C00000700
3C00000700
3C00000F00
3C00000F00
3C00000F00
1E00000F00
1E00001E00
1F00001E00
0F00003C00
0780007C00
07E000F800
03F003F000
01FE0FE000
03FFFFC000
07BFFF0000
0F07F80000
0F00000000
1E00000000
1E00000000
1C00000000
3C00000000
3C00000000
1E00000000
1E00000000
1F00000000
0FC0000000
0FFFFFF800
03FFFFFF80
03FFFFFFE0
07BFFFFFF0
0F000007F8
1E000000FC
3C0000007C
780000003C
780000003E
F00000003E
F00000003E
F00000003E
F00000003C
F00000003C
F00000003C
F000000078
F8000000F8
7C000001F0
7E000003E0
3F00000FC0
1FC0003F80
0FFE07FE00
03FFFFFC00
00FFFFE000
000FFE0000
ENDCHAR
STARTCHAR 0122
ENCODING 290
SWIDTH 600 0
DWIDTH 55 0
BBX 44 82 5 -20
BITMAP
000003FF0000
00003FFFE000
0001FFFFF800
0007FFFFFE00
000FF800FF00
001FC0001F80
007F00000FE0
00FC000003E0
01F8000001C0
01F000000080
03E000000000
07C000000000
07C000000000
0F8000000000
0F0000000000
1F0000000000
1E0000000000
3E0000000000
3C0000000000
3C0000000000
7C0000000000
7C0000000000
780000000000
780000000000
780000000000
F80000000000
F80000000000
F80000000000
F80000000000
F80000000000
F00000000000
F00000000000
F000007FFFF0
F800007FFFF0
F800007FFFF0
F800007FFFF0
F800000000F0
F800000000F0
7800000000F0
7800000000F0
7800000000F0
7C00000000F0
7C00000000F0
3C00000000F0
3E00000000F0
3E00000000F0
1E00000000F0
1F00000000F0
1F00000000F0
0F80000000F0
0F80000000F0
07C0000000F0
03E0000000F0
03F0000000F0
01F8000000F0
00FC000001F0
007F000007E0
003FC0001FC0
001FF800FF80
0007FFFFFF00
0001FFFFFC00
00007FFFE000
000007FE0000
000000000000
000000000000
000000000000
000000000000
000000000000
000001F00000
000003FC0000
000000FE0000
0000001F0000
0000000F0000
000000070000
000000070000
000000070000
0000000F0000
0000001E0000
000000FE0000
00001FF80000
00001FE00000
00001E000000
ENDCHAR
STARTCHAR 0123
ENCODING 291
SWIDTH 490 0
DWIDTH 45 0
BBX 39 89 5 -21
BITMAP
000000C000
00001FC000
0000FFE000
0001FC0000
0003E00000
0007800000
0007800000
0007000000
0007000000
0007800000
0007C00000
0003F00000
0001FE0000
0000FE0000
00000C0000
0000000000
0000000000
0000000000
0000000000
0000000000
0000000000
0000000000
0007F80000
003FFC0000
007FFFFFFC
01FFFFFFFC
03FE0FFFFC
07F003F000
07C000F800
0F80007C00
1F00003C00
1F00001E00
1E00001E00
3E00000F00
3C00000F00
3C00000F00
3C00000F00
3C00000700
3C00000700
3C00000700
3C00000F00
3C00000F00
3C00000F00
1E00000F00
1E00001E00
1F00001E00
0F00003C00
0780007C00
07E000F800
03F003F000
01FE0FE000
03FFFFC000
07BFFF0000
0F07F80000
0F00000000
1E00000000
1E00000000
1C00000000
3C00000000
3C00000000
1E00000000
1E00000000
1F00000000
0FC0000000
0FFFFFF800
03FFFFFF80
03FFFFFFE0
07BFFFFFF0
0F000007F8
1E000000FC
3C0000007C
780000003C
780000003E
F00000003E
F00000003E
F00000003E
F00000003C
F00000003C
F00000003C
F000000078
F8000000F8
7C000001F0
7E000003E0
3F00000FC0
1FC0003F80
0FFE07FE00
03FFFFFC00
00FFFFE000
000FFE0000
ENDCHAR
STARTCHAR 0124
ENCODING 292
SWIDTH 643 0
DWIDTH 59 0
BBX 41 76 9 0
BITMAP
00003E000000
00007F000000
0000FF800000
0001E7C00000
0003C3E00000
000F81F00000
001F00780000
003E003C0000
007C001E0000
00F0000F0000
00E000070000
004000020000
000000000000
000000000000
000000000000
000000000000
F00000000F80
F00000000F80
F00000000F80
F00000000F80
F00000000F80
F00000000F80
F00000000F80
F00000000F80
F00000000F80
F00000000F80
F00000000F80
F00000000F80
F00000000F80
F00000000F80
F00000000F80
F00000000F80
F00000000F80
F00000000F80
F00000000F80
F00000000F80
F00000000F80
F00000000F80
F00000000F80
F00000000F80
F00000000F80
F00000000F80
FFFFFFFFFF80
FFFFFFFFFF80
FFFFFFFFFF80
FFFFFFFFFF80
F00000000F80
F00000000F80
F00000000F80
F00000000F80
F00000000F80
F00000000F80
F00000000F80
F00000000F80
F00000000F80
F00000000F80
F00000000F80
F00000000F80
F00000000F80
F00000000F80
F00000000F80
F00000000F80
F00000000F80
F00000000F80
F00000000F80
F00000000F80
F00000000F80
F00000000F80
F00000000F80
F00000000F80
F00000000F80
F00000000F80
F00000000F80
F00000000F80
F00000000F80
F00000000F80
ENDCHAR
STARTCHAR 0125
ENCODING 293
SWIDTH 523 0
DWIDTH 48 0
BBX 43 81 -2 0
BITMAP
003E00000000
007F00000000
00FF80000000
01F7C0000000
03E3E0000000
07C1F0000000
0F8078000000
1F003C000000
3C001E000000
78000F000000
F00007800000
600003000000
000000000000
000000000000
000000000000
003C00000000
003C00000000
003C00000000
003C00000000
003C00000000
003C00000000
003C00000000
003C00000000
003C00000000
003C00000000
003C00000000
003C00000000
003C00000000
003C00000000
003C00000000
003C00000000
003C00000000
003C00000000
003C00000000
003C00000000
003C003FC000
003C01FFF800
003C07FFFC00
003C0FFFFE00
003C3F007F00
003C7C001F80
003CF8000F80
003DE00007C0
003FC00007C0
003F800003C0
003F000003C0
003E000003E0
003C000001E0
003C000001E0
003C000001E0
003C000001E0
003C000001E0
003C000001E0
003C000001E0
003C000001E0
003C000001E0
003C000001E0
003C000001E0
003C000001E0
003C000001E0
003C000001E0
003C000001E0
003C000001E0
003C000001E0
003C000001E0
003C000001E0
003C000001E0
003C000001E0
003C000001E0
003C000001E0
003C000001E0
003C000001E0
003C000001E0
003C000001E0
003C000001E0
003C000001E0
003C000001E0
003C000001E0
003C000001E0
003C000001E0
003C000001E0
ENDCHAR
STARTCHAR 0126
ENCODING 294
SWIDTH 676 0
DWIDTH 62 0
BBX 55 60 3 0
BITMAP
00F00000000F80
00F00000000F80
00F00000000F80
00F00000000F80
00F00000000F80
00F00000000F80
00F00000000F80
00F00000000F80
00F00000000F80
00F00000000F80
00F00000000F80
00F00000000F80
FFFFFFFFFFFFFE
FFFFFFFFFFFFFE
FFFFFFFFFFFFFE
00F00000000F80
00F00000000F80
00F00000000F80
00F00000000F80
00F00000000F80
00F00000000F80
00F00000000F80
00F00000000F80
00F00000000F80
00F00000000F80
00F00000000F80
00FFFFFFFFFF80
00FFFFFFFFFF80
00FFFFFFFFFF80
00FFFFFFFFFF80
00F00000000F80
00F00000000F80
00F00000000F80
00F00000000F80
00F00000000F80
00F00000000F80
00F00000000F80
00F00000000F80
00F00000000F80
00F00000000F80
00F00000000F80
00F00000000F80
00F00000000F80
00F00000000F80
00F00000000F80
00F00000000F80
00F00000000F80
00F00000000F80
00F00000000F80
00F00000000F80
00F00000000F80
00F00000000F80
00F00000000F80
00F00000000F80
00F00000000F80
00F00000000F80
00F00000000F80
00F00000000F80
00F00000000F80
00F00000000F80
ENDCHAR
STARTCHAR 0127
ENCODING 295
SWIDTH 523 0
DWIDTH 48 0
BBX 40 66 1 0
BITMAP
01E0000000
01E0000000
01E0000000
01E0000000
01E0000000
01E0000000
01E0000000
01E0000000
01E0000000
01E0000000
FFFFFFF800
FFFFFFF800
FFFFFFF800
01E0000000
01E0000000
01E0000000
01E0000000
01E0000000
01E0000000
01E0000000
01E0000000
01E0000000
01E0000000
01E0000000
01E001FE00
01E00FFFC0
01E03FFFE0
01E07FFFF0
01E1F803F8
01E3E000FC
01E7C0007C
01EF00003E
01FE00003E
01FC00001E
01F800001E
01F000001F
01E000000F
01E000000F
01E000000F
01E000000F
01E000000F
01E000000F
01E000000F
01E000000F
01E000000F
01E000000F
01E000000F
01E000000F
01E000000F
01E000000F
01E000000F
01E000000F
01E000000F
01E000000F
01E000000F
01E000000F
01E000000F
01E000000F
01E000000F
01E000000F
01E000000F
01E000000F
01E000000F
01E000000F
01E000000F
01E000000F
ENDCHAR
STARTCHAR 0128
ENCODING 296
SWIDTH 240 0
DWIDTH 22 0
BBX 30 76 -4 0
BITMAP
07E0001C
0FF8001C
1FFE001C
3FFF003C
781F8038
7007C078
F003F0F8
E001FFF0
E000FFE0
E0003FC0
00000000
00000000
00000000
00000000
00000000
00000000
00078000
00078000
00078000
00078000
00078000
00078000
00078000
00078000
00078000
00078000
00078000
00078000
00078000
00078000
00078000
00078000
00078000
00078000
00078000
00078000
00078000
00078000
00078000
00078000
00078000
00078000
00078000
00078000
00078000
00078000
00078000
00078000
00078000
00078000
00078000
00078000
00078000
00078000
00078000
00078000
00078000
00078000
00078000
00078000
00078000
00078000
00078000
00078000
00078000
00078000
00078000
00078000
00078000
00078000
00078000
00078000
00078000
00078000
00078000
00078000
ENDCHAR
STARTCHAR 0129
ENCODING 297
SWIDTH 229 0
DWIDTH 21 0
BBX 30 65 -5 0
BITMAP
03E0001C
0FF8001C
1FFC001C
3E3E001C
3C0F001C
3807803C
7803C038
7001E078
7000F8F0
70007FF0
70003FE0
F0000F80
00000000
00000000
00000000
00000000
00000000
00000000
00000000
00000000
00000000
00078000
00078000
00078000
00078000
00078000
00078000
00078000
00078000
00078000
00078000
00078000
00078000
00078000
00078000
00078000
00078000
00078000
00078000
00078000
00078000
00078000
00078000
00078000
00078000
00078000
00078000
00078000
00078000
00078000
00078000
00078000
00078000
00078000
00078000
00078000
00078000
00078000
00078000
00078000
00078000
00078000
00078000
00078000
00078000
ENDCHAR
STARTCHAR 012A
ENCODING 298
SWIDTH 240 0
DWIDTH 22 0
BBX 22 71 0 0
BITMAP
FFFFFC
FFFFFC
FFFFFC
000000
000000
000000
000000
000000
000000
000000
000000
007800
007800
007800
007800
007800
007800
007800
007800
007800
007800
007800
007800
007800
007800
007800
007800
007800
007800
007800
007800
007800
007800
007800
007800
007800
007800
007800
007800
007800
007800
007800
007800
007800
007800
007800
007800
007800
007800
007800
007800
007800
007800
007800
007800
007800
007800
007800
007800
007800
007800
007800
007800
007800
007800
007800
007800
007800
007800
007800
007800
ENDCHAR
STARTCHAR 012B
ENCODING 299
SWIDTH 229 0
DWIDTH 21 0
BBX 23 59 -1 0
BITMAP
FFFFFE
FFFFFE
FFFFFE
000000
000000
000000
000000
000000
000000
000000
000000
000000
000000
000000
000000
007800
007800
007800
007800
007800
007800
007800
007800
007800
007800
007800
007800
007800
007800
007800
007800
007800
007800
007800
007800
007800
007800
007800
007800
007800
007800
007800
007800
007800
007800
007800
007800
007800
007800
007800
007800
007800
007800
007800
007800
007800
007800
007800
007800
ENDCHAR
STARTCHAR 012C
ENCODING 300
SWIDTH 240 0
DWIDTH 22 0
BBX 24 77 -1 0
BITMAP
600006
E00007
E00007
E00007
70000E
78001E
3C001C
3E007C
1F81F8
0FFFF0
03FFC0
00FF00
000000
000000
000000
000000
000000
003C00
003C00
003C00
003C00
003C00
003C00
003C00
003C00
003C00
003C00
003C00
003C00
003C00
003C00
003C00
003C00
003C00
003C00
003C00
003C00
003C00
003C00
003C00
003C00
003C00
003C00
003C00
003C00
003C00
003C00
003C00
003C00
003C00
003C00
003C00
003C00
003C00
003C00
003C00
003C00
003C00
003C00
003C00
003C00
003C00
003C00
003C00
003C00
003C00
003C00
003C00
003C00
003C00
003C00
003C00
003C00
003C00
003C00
003C00
003C00
ENDCHAR
STARTCHAR 012D
ENCODING 301
SWIDTH 229 0
DWIDTH 21 0
BBX 27 66 -3 0
BITMAP
E00000E0
E00000E0
F00000E0
F00001E0
700001C0
780003C0
380003C0
3C000780
1E000F00
1F801F00
0FE0FE00
03FFFC00
01FFF000
003F8000
00000000
00000000
00000000
00000000
00000000
00000000
00000000
00000000
001E0000
001E0000
001E0000
001E0000
001E0000
001E0000
001E0000
001E0000
001E0000
001E0000
001E0000
001E0000
001E0000
001E0000
001E0000
001E0000
001E0000
001E0000
001E0000
001E0000
001E0000
001E0000
001E0000
001E0000
001E0000
001E0000
001E0000
001E0000
001E0000
001E0000
001E0000
001E0000
001E0000
001E0000
001E0000
001E0000
001E0000
001E0000
001E0000
001E0000
001E0000
001E0000
001E0000
001E0000
ENDCHAR
STARTCHAR 012E
ENCODING 302
SWIDTH 240 0
DWIDTH 22 0
BBX 14 79 4 -19
BITMAP
0780
0780
0780
0780
0780
0780
0780
0780
0780
0780
0780
0780
0780
0780
0780
0780
0780
0780
0780
0780
0780
0780
0780
0780
0780
0780
0780
0780
0780
0780
0780
0780
0780
0780
0780
0780
0780
0780
0780
0780
0780
0780
0780
0780
0780
0780
0780
0780
0780
0780
0780
0780
0780
0780
0780
0780
0780
0780
0780
0780
0780
0F00
1E00
1C00
3C00
3800
7800
7000
F000
F000
F000
F000
F000
F000
7800
7F78
3FFC
1FF8
07C0
ENDCHAR
STARTCHAR 012F
ENCODING 303
SWIDTH 229 0
DWIDTH 21 0
BBX 14 81 3 -19
BITMAP
0380
0FC0
0FE0
0FE0
0FE0
0FE0
07C0
0000
0000
0000
0000
0000
0000
0000
0000
0000
0000
0000
0780
0780
0780
0780
0780
0780
0780
0780
0780
0780
0780
0780
0780
0780
0780
0780
0780
0780
0780
0780
0780
0780
0780
0780
0780
0780
0780
0780
0780
0780
0780
0780
0780
0780
0780
0780
0780
0780
0780
0780
0780
0780
0780
0780
0380
0700
0E00
1E00
1C00
3800
3800
7800
7000
7000
F000
F000
F000
7800
7800
7E38
3FFC
1FF8
07E0
ENDCHAR
STARTCHAR 0130
ENCODING 304
SWIDTH 240 0
DWIDTH 22 0
BBX 8 73 7 0
BITMAP
3C
7E
7F
FF
FF
7E
3C
00
00
00
00
00
00
3C
3C
3C
3C
3C
3C
3C
3C
3C
3C
3C
3C
3C
3C
3C
3C
3C
3C
3C
3C
3C
3C
3C
3C
3C
3C
3C
3C
3C
3C
3C
3C
3C
3C
3C
3C
3C
3C
3C
3C
3C
3C
3C
3C
3C
3C
3C
3C
3C
3C
3C
3C
3C
3C
3C
3C
3C
3C
3C
3C
ENDCHAR
STARTCHAR 0131
ENCODING 305
SWIDTH 229 0
DWIDTH 21 0
BBX 4 44 8 0
BITMAP
F0
F0
F0
F0
F0
F0
F0
F0
F0
F0
F0
F0
F0
F0
F0
F0
F0
F0
F0
F0
F0
F0
F0
F0
F0
F0
F0
F0
F0
F0
F0
F0
F0
F0
F0
F0
F0
F0
F0
F0
F0
F0
F0
F0
ENDCHAR
STARTCHAR 0132
ENCODING 306
SWIDTH 480 0
DWIDTH 44 0
BBX 26 74 9 -14
BITMAP
F00003C0
F00003C0
F00003C0
F00003C0
F00003C0
F00003C0
F00003C0
F00003C0
F00003C0
F00003C0
F00003C0
F00003C0
F00003C0
F00003C0
F00003C0
F00003C0
F00003C0
F00003C0
F00003C0
F00003C0
F00003C0
F00003C0
F00003C0
F00003C0
F00003C0
F00003C0
F00003C0
F00003C0
F00003C0
F00003C0
F00003C0
F00003C0
F00003C0
F00003C0
F00003C0
F00003C0
F00003C0
F00003C0
F00003C0
F00003C0
F00003C0
F00003C0
F00003C0
F00003C0
F00003C0
F00003C0
F00003C0
F00003C0
F00003C0
F00003C0
F00003C0
F00003C0
F00003C0
F00003C0
F00003C0
F00003C0
F00003C0
F00003C0
F00003C0
F00003C0
000003C0
000003C0
000003C0
000003C0
000003C0
000003C0
000007C0
00000780
00000F80
00101F80
001FFF00
001FFE00
001FFC00
000FF000
ENDCHAR
STARTCHAR 0133
ENCODING 307
SWIDTH 458 0
DWIDTH 42 0
BBX 28 83 7 -21
BITMAP
3C0001E0
7E0003F0
FE0007F0
FE0007F0
FE0007F0
FE0007F0
7C0003E0
00000000
00000000
00000000
00000000
00000000
00000000
00000000
00000000
00000000
00000000
00000000
780003E0
780003E0
780003E0
780003E0
780003E0
780003E0
780003E0
780003E0
780003E0
780003E0
780003E0
780003E0
780003E0
780003E0
780003E0
780003E0
780003E0
780003E0
780003E0
780003E0
780003E0
780003E0
780003E0
780003E0
780003E0
780003E0
780003E0
780003E0
780003E0
780003E0
780003E0
780003E0
780003E0
780003E0
780003E0
780003E0
780003E0
780003E0
780003E0
780003E0
780003E0
780003E0
780003E0
780003E0
000003E0
000003E0
000003E0
000003E0
000003E0
000003E0
000003E0
000003E0
000003E0
000003E0
000003C0
000003C0
000003C0
000003C0
000003C0
00000780
00000F80
000F7F00
001FFF00
001FFC00
0007F000
ENDCHAR
STARTCHAR 0134
ENCODING 308
SWIDTH 458 0
DWIDTH 42 0
BBX 39 77 4 -1
BITMAP
0000007C00
000000FE00
000001FF00
000003CF80
00000787C0
00000F03E0
00003E00F0
00007C0078
0000F8003C
0001E0001E
0001C0000E
0000800000
0000000000
0000000000
0000000000
0000000000
0000007C00
0000007C00
0000007C00
0000007C00
0000007C00
0000007C00
0000007C00
0000007C00
0000007C00
0000007C00
0000007C00
0000007C00
0000007C00
0000007C00
0000007C00
0000007C00
0000007C00
0000007C00
0000007C00
0000007C00
0000007C00
0000007C00
0000007C00
0000007C00
0000007C00
0000007C00
0000007C00
0000007C00
0000007C00
0000007C00
0000007C00
0000007C00
0000007C00
0000007C00
0000007C00
0000007C00
0000007C00
0000007C00
0000007C00
0000007C00
0000007C00
0000007C00
0000007C00
0000007C00
0000007C00
0000007C00
0000007C00
0000007800
0000007800
0000007800
2000007800
700000F800
F80000F000
7C0001F000
7E0003E000
3F0007E000
1FC01FC000
0FFFFF8000
07FFFF0000
01FFFC0000
003FE00000
ENDCHAR
STARTCHAR 0135
ENCODING 309
SWIDTH 229 0
DWIDTH 21 0
BBX 26 89 -3 -21
BITMAP
000F0000
001F0000
003F8000
007FC000
00FBE000
00F1F000
01E0F000
03C07800
07803C00
0F001E00
1E000F00
1E000F00
3C000780
780003C0
30000180
00000000
00000000
00000000
00000000
00000000
00000000
00000000
00000000
00000000
001F0000
001F0000
001F0000
001F0000
001F0000
001F0000
001F0000
001F0000
001F0000
001F0000
001F0000
001F0000
001F0000
001F0000
001F0000
001F0000
001F0000
001F0000
001F0000
001F0000
001F0000
001F0000
001F0000
001F0000
001F0000
001F0000
001F0000
001F0000
001F0000
001F0000
001F0000
001F0000
001F0000
001F0000
001F0000
001F0000
001F0000
001F0000
001F0000
001F0000
001F0000
001F0000
001F0000
001F0000
001F0000
001F0000
001F0000
001F0000
001F0000
001F0000
001F0000
001F0000
001F0000
001F0000
001E0000
001E0000
001E0000
001E0000
001E0000
003C0000
007C0000
7BF80000
FFF80000
FFE00000
3F800000
ENDCHAR
STARTCHAR 0136
ENCODING 310
SWIDTH 556 0
DWIDTH 51 0
BBX 41 80 9 -20
BITMAP
F00000007C00
F0000000F800
F0000001F000
F0000003F000
F0000003E000
F0000007C000
F000000F8000
F000001F0000
F000003E0000
F000007C0000
F00000F80000
F00001F80000
F00001F00000
F00003E00000
F00007C00000
F0000F800000
F0001F000000
F0003E000000
F0007E000000
F000FC000000
F000F8000000
F001F0000000
F003E0000000
F007F0000000
F00FF8000000
F01FF8000000
F03E7C000000
F07E3C000000
F07C3E000000
F0F81F000000
F1F01F000000
F3E00F800000
F7C00F800000
FF8007C00000
FF0003C00000
FF0003E00000
FE0001F00000
FC0001F00000
F80000F80000
F00000780000
F000007C0000
F000003E0000
F000003E0000
F000001F0000
F000001F0000
F000000F8000
F00000078000
F0000007C000
F0000003E000
F0000003E000
F0000001F000
F0000001F000
F0000000F800
F00000007800
F00000007C00
F00000003E00
F00000003E00
F00000001F00
F00000001F00
F00000000F80
000000000000
000000000000
000000000000
000000000000
000000000000
000000000000
00007C000000
0000FF000000
00003FC00000
000007C00000
000001E00000
000001E00000
000001E00000
000001E00000
000001C00000
000007C00000
00001F800000
0007FF000000
0007FC000000
000780000000
ENDCHAR
STARTCHAR 0137
ENCODING 311
SWIDTH 469 0
DWIDTH 43 0
BBX 33 86 8 -20
BITMAP
F000000000
F000000000
F000000000
F000000000
F000000000
F000000000
F000000000
F000000000
F000000000
F000000000
F000000000
F000000000
F000000000
F000000000
F000000000
F000000000
F000000000
F000000000
F000000000
F000000000
F000000000
F000000000
F000003E00
F000007C00
F00000F800
F00000F000
F00001E000
F00003E000
F00007C000
F0000F8000
F0001F0000
F0001E0000
F0003C0000
F0007C0000
F000F80000
F001F00000
F001E00000
F003C00000
F007C00000
F00F800000
F01F800000
F03FC00000
F03FE00000
F079E00000
F0F8F00000
F1F0F80000
F3E0780000
F3C07C0000
F7803C0000
FF001E0000
FE001F0000
FE000F0000
FC00078000
F80007C000
F00003C000
F00003E000
F00001E000
F00000F000
F00000F800
F000007800
F000003C00
F000003E00
F000001E00
F000001F00
F000000F00
F000000780
0000000000
0000000000
0000000000
0000000000
0000000000
0000000000
000F800000
001FE00000
0007F80000
0000F80000
00003C0000
00003C0000
00003C0000
00003C0000
0000380000
0000F80000
0003F00000
00FFE00000
00FF800000
00F8000000
ENDCHAR
STARTCHAR 0138
ENCODING 312
SWIDTH 469 0
DWIDTH 43 0
BBX 33 44 8 0
BITMAP
F000003E00
F000007C00
F00000F800
F00000F000
F00001E000
F00003E000
F00007C000
F0000F8000
F0001F0000
F0001E0000
F0003C0000
F0007C0000
F000F80000
F001F00000
F001E00000
F003C00000
F007C00000
F00F800000
F01F800000
F01FC00000
F03FE00000
F079E00000
F0F8F00000
F1F0F80000
F1E0780000
F3C07C0000
F7803C0000
FF001E0000
FF001F0000
FE000F0000
FC00078000
F80007C000
F00003C000
F00003E000
F00001E000
F00000F000
F00000F800
F000007800
F000003C00
F000003E00
F000001E00
F000001F00
F000000F00
F000000780
ENDCHAR
STARTCHAR 0139
ENCODING 313
SWIDTH 469 0
DWIDTH 43 0
BBX 33 77 8 1
BITMAP
0030000000
0078000000
00F8000000
01F0000000
03E0000000
07C0000000
0F80000000
1E00000000
3C00000000
7800000000
F000000000
E000000000
0000000000
0000000000
0000000000
0000000000
0000000000
7800000000
7800000000
7800000000
7800000000
7800000000
7800000000
7800000000
7800000000
7800000000
7800000000
7800000000
7800000000
7800000000
7800000000
7800000000
7800000000
7800000000
7800000000
7800000000
7800000000
7800000000
7800000000
7800000000
7800000000
7800000000
7800000000
7800000000
7800000000
7800000000
7800000000
7800000000
7800000000
7800000000
7800000000
7800000000
7800000000
7800000000
7800000000
7800000000
7800000000
7800000000
7800000000
7800000000
7800000000
7800000000
7800000000
7800000000
7800000000
7800000000
7800000000
7800000000
7800000000
7800000000
7800000000
7800000000
7800000000
7FFFFFFF80
7FFFFFFF80
7FFFFFFF80
7FFFFFFF80
ENDCHAR
STARTCHAR 013A
ENCODING 314
SWIDTH 240 0
DWIDTH 22 0
BBX 14 84 6 -1
BITMAP
0010
0038
007C
00FC
01F0
03E0
07C0
0F80
1F00
3E00
7800
F000
6000
0000
0000
0000
0000
3C00
3C00
3C00
3C00
3C00
3C00
3C00
3C00
3C00
3C00
3C00
3C00
3C00
3C00
3C00
3C00
3C00
3C00
3C00
3C00
3C00
3C00
3C00
3C00
3C00
3C00
3C00
3C00
3C00
3C00
3C00
3C00
3C00
3C00
3C00
3C00
3C00
3C00
3C00
3C00
3C00
3C00
3C00
3C00
3C00
3C00
3C00
3C00
3C00
3C00
3C00
3C00
3C00
3C00
3C00
3C00
3C00
3C00
3C00
3C00
3C00
3E00
1E00
1FC0
1FC0
0FE0
07E0
ENDCHAR
STARTCHAR 013B
ENCODING 315
SWIDTH 469 0
DWIDTH 43 0
BBX 32 80 9 -20
BITMAP
F0000000
F0000000
F0000000
F0000000
F0000000
F0000000
F0000000
F0000000
F0000000
F0000000
F0000000
F0000000
F0000000
F0000000
F0000000
F0000000
F0000000
F0000000
F0000000
F0000000
F0000000
F0000000
F0000000
F0000000
F0000000
F0000000
F0000000
F0000000
F0000000
F0000000
F0000000
F0000000
F0000000
F0000000
F0000000
F0000000
F0000000
F0000000
F0000000
F0000000
F0000000
F0000000
F0000000
F0000000
F0000000
F0000000
F0000000
F0000000
F0000000
F0000000
F0000000
F0000000
F0000000
F0000000
F0000000
F0000000
FFFFFFFF
FFFFFFFF
FFFFFFFF
FFFFFFFF
00000000
00000000
00000000
00000000
00000000
00000000
0003E000
0007F800
0001FC00
00003E00
00001E00
00000F00
00000F00
00000E00
00001E00
00003E00
0001FC00
003FF000
003FC000
003C0000
ENDCHAR
STARTCHAR 013C
ENCODING 316
SWIDTH 240 0
DWIDTH 22 0
BBX 14 86 5 -20
BITMAP
1E00
1E00
1E00
1E00
1E00
1E00
1E00
1E00
1E00
1E00
1E00
1E00
1E00
1E00
1E00
1E00
1E00
1E00
1E00
1E00
1E00
1E00
1E00
1E00
1E00
1E00
1E00
1E00
1E00
1E00
1E00
1E00
1E00
1E00
1E00
1E00
1E00
1E00
1E00
1E00
1E00
1E00
1E00
1E00
1E00
1E00
1E00
1E00
1E00
1E00
1E00
1E00
1E00
1E00
1E00
1E00
1E00
1E00
1E00
1E00
1E00
1F00
0F00
0FE0
0FE0
07F0
03F0
0000
0000
0000
0000
0000
0F80
0FF0
03F8
007C
003C
003C
003C
003C
003C
0078
03F0
FFE0
FF80
7800
ENDCHAR
STARTCHAR 013D
ENCODING 317
SWIDTH 469 0
DWIDTH 43 0
BBX 32 66 9 0
BITMAP
00000F00
00000F00
00000F00
00000F00
00000F00
00000F00
F0000F00
F0000F00
F0000F00
F0000E00
F0000E00
F0000E00
F0000E00
F0000E00
F0000E00
F0000E00
F0000E00
F0000E00
F0000E00
F0000000
F0000000
F0000000
F0000000
F0000000
F0000000
F0000000
F0000000
F0000000
F0000000
F0000000
F0000000
F0000000
F0000000
F0000000
F0000000
F0000000
F0000000
F0000000
F0000000
F0000000
F0000000
F0000000
F0000000
F0000000
F0000000
F0000000
F0000000
F0000000
F0000000
F0000000
F0000000
F0000000
F0000000
F0000000
F0000000
F0000000
F0000000
F0000000
F0000000
F0000000
F0000000
F0000000
FFFFFFFF
FFFFFFFF
FFFFFFFF
FFFFFFFF
ENDCHAR
STARTCHAR 013E
ENCODING 318
SWIDTH 240 0
DWIDTH 22 0
BBX 14 70 8 -1
BITMAP
003C
003C
003C
F03C
F03C
F03C
F03C
F03C
F03C
F038
F038
F038
F038
F038
F038
F038
F038
F038
F018
F000
F000
F000
F000
F000
F000
F000
F000
F000
F000
F000
F000
F000
F000
F000
F000
F000
F000
F000
F000
F000
F000
F000
F000
F000
F000
F000
F000
F000
F000
F000
F000
F000
F000
F000
F000
F000
F000
F000
F000
F000
F000
F000
F000
F000
F800
7800
7F00
7F00
3F80
1F80
ENDCHAR
STARTCHAR 013F
ENCODING 319
SWIDTH 469 0
DWIDTH 43 0
BBX 32 60 9 0
BITMAP
F0000000
F0000000
F0000000
F0000000
F0000000
F0000000
F0000000
F0000000
F0000000
F0000000
F0000000
F0000000
F0000000
F0000000
F0000000
F0000000
F0000000
F0000000
F0000000
F0000000
F0000000
F0000000
F0000000
F0000000
F0000000
F0000000
F0000000
F00007C0
F00007E0
F0000FF0
F0000FF0
F0000FF0
F0000FE0
F00007E0
F00003C0
F0000000
F0000000
F0000000
F0000000
F0000000
F0000000
F0000000
F0000000
F0000000
F0000000
F0000000
F0000000
F0000000
F0000000
F0000000
F0000000
F0000000
F0000000
F0000000
F0000000
F0000000
FFFFFFFF
FFFFFFFF
FFFFFFFF
FFFFFFFF
ENDCHAR
STARTCHAR 0140
ENCODING 320
SWIDTH 305 0
DWIDTH 28 0
BBX 20 67 8 -1
BITMAP
F00000
F00000
F00000
F00000
F00000
F00000
F00000
F00000
F00000
F00000
F00000
F00000
F00000
F00000
F00000
F00000
F00000
F00000
F00000
F00000
F00000
F00000
F00000
F00000
F00000
F00000
F00000
F00000
F00000
F00000
F00000
F00000
F001C0
F003F0
F007F0
F007F0
F007F0
F007F0
F007F0
F003E0
F00000
F00000
F00000
F00000
F00000
F00000
F00000
F00000
F00000
F00000
F00000
F00000
F00000
F00000
F00000
F00000
F00000
F00000
F00000
F00000
F00000
F80000
780000
7F0000
7F0000
3F8000
1F8000
ENDCHAR
STARTCHAR 0141
ENCODING 321
SWIDTH 469 0
DWIDTH 43 0
BBX 40 60 1 0
BITMAP
00F0000000
00F0000000
00F0000000
00F0000000
00F0000000
00F0000000
00F0000000
00F0000000
00F0000000
00F0000000
00F0000000
00F0000000
00F0000000
00F0000000
00F0000000
00F0000000
00F0000000
00F0000000
00F0000000
00F0000000
00F0000000
00F0000000
00F0000400
00F0001C00
00F0007E00
00F001FC00
00F007F000
00F01FC000
00F07F0000
00F1FC0000
00F3F80000
00FFE00000
00FF800000
01FE000000
07F8000000
1FF0000000
7FF0000000
FEF0000000
F8F0000000
60F0000000
00F0000000
00F0000000
00F0000000
00F0000000
00F0000000
00F0000000
00F0000000
00F0000000
00F0000000
00F0000000
00F0000000
00F0000000
00F0000000
00F0000000
00F0000000
00F0000000
00FFFFFFFF
00FFFFFFFF
00FFFFFFFF
00FFFFFFFF
ENDCHAR
STARTCHAR 0142
ENCODING 322
SWIDTH 240 0
DWIDTH 22 0
BBX 18 67 1 -1
BITMAP
00F000
00F000
00F000
00F000
00F000
00F000
00F000
00F000
00F000
00F000
00F000
00F000
00F000
00F000
00F000
00F000
00F000
00F000
00F000
00F000
00F000
00F000
00F000
00F080
00F3C0
00F7C0
00FF80
00FF00
00FC00
03F800
07F000
1FF000
3FF000
FCF000
F0F000
60F000
00F000
00F000
00F000
00F000
00F000
00F000
00F000
00F000
00F000
00F000
00F000
00F000
00F000
00F000
00F000
00F000
00F000
00F000
00F000
00F000
00F000
00F000
00F000
00F000
00F000
00F000
00F000
00FE00
00FE00
007F00
003F00
ENDCHAR
STARTCHAR 0143
ENCODING 323
SWIDTH 632 0
DWIDTH 58 0
BBX 40 77 9 1
BITMAP
0000001800
0000003C00
0000007E00
000000FC00
000001F000
000003E000
000007C000
00000F8000
00001F0000
00003C0000
0000780000
0000300000
0000200000
0000000000
0000000000
0000000000
0000000000
F80000000F
F80000000F
FC0000000F
FC0000000F
FE0000000F
FF0000000F
EF0000000F
E78000000F
F78000000F
F3C000000F
F3E000000F
F1E000000F
F0F000000F
F0F000000F
F07800000F
F07C00000F
F03C00000F
F03E00000F
F01E00000F
F00F00000F
F00F80000F
F00780000F
F007C0000F
F003C0000F
F001E0000F
F001F0000F
F000F0000F
F000F8000F
F00078000F
F0003C000F
F0003E000F
F0001E000F
F0001F000F
F0000F000F
F00007800F
F00007C00F
F00003C00F
F00003E00F
F00001E00F
F00000F00F
F00000F80F
F00000780F
F000007C07
F000003C07
F000001E07
F000001F07
F000000F07
F000000F87
F000000787
F0000003C7
F0000003C7
F0000001E7
F0000001F7
F0000000F7
F00000007F
F00000007F
F00000003F
F00000003F
F00000001F
F00000000F
ENDCHAR
STARTCHAR 0144
ENCODING 324
SWIDTH 534 0
DWIDTH 49 0
BBX 33 69 8 0
BITMAP
0000004000
000000E000
000001F000
000001F000
000003E000
000007C000
00000F8000
00001F0000
00003E0000
00007C0000
0000780000
0000F00000
0001E00000
0003C00000
0007800000
0003000000
0000000000
0000000000
0000000000
0000000000
0000000000
0000000000
0000000000
0000FF0000
0007FFE000
F01FFFF000
F03FFFF800
F0FC01FC00
F1F0007E00
F3E0003E00
F780001F00
FF00001F00
FE00000F00
FC00000F00
F800000F80
F000000780
F000000780
F000000780
F000000780
F000000780
F000000780
F000000780
F000000780
F000000780
F000000780
F000000780
F000000780
F000000780
F000000780
F000000780
F000000780
F000000780
F000000780
F000000780
F000000780
F000000780
F000000780
F000000780
F000000780
F000000780
F000000780
F000000780
F000000780
F000000780
F000000780
F000000780
F000000780
F000000780
F000000780
ENDCHAR
STARTCHAR 0145
ENCODING 325
SWIDTH 632 0
DWIDTH 58 0
BBX 40 80 9 -20
BITMAP
F80000000F
F80000000F
FC0000000F
FC0000000F
FE0000000F
FF0000000F
EF0000000F
E78000000F
F78000000F
F3C000000F
F3E000000F
F1E000000F
F0F000000F
F0F000000F
F07800000F
F07C00000F
F03C00000F
F03E00000F
F01E00000F
F00F00000F
F00F80000F
F00780000F
F007C0000F
F003C0000F
F001E0000F
F001F0000F
F000F0000F
F000F8000F
F00078000F
F0003C000F
F0003E000F
F0001E000F
F0001F000F
F0000F000F
F00007800F
F00007C00F
F00003C00F
F00003E00F
F00001E00F
F00000F00F
F00000F80F
F00000780F
F000007C07
F000003C07
F000001E07
F000001F07
F000000F07
F000000F87
F000000787
F0000003C7
F0000003C7
F0000001E7
F0000001F7
F0000000F7
F00000007F
F00000007F
F00000003F
F00000003F
F00000001F
F00000000F
0000000000
0000000000
0000000000
0000000000
0000000000
0000000000
00007C0000
0000FF0000
00003F8000
000007C000
000003C000
000001C000
000001C000
000001C000
000003C000
000007C000
00003F8000
0007FE0000
0007F80000
0007800000
ENDCHAR
STARTCHAR 0146
ENCODING 326
SWIDTH 534 0
DWIDTH 49 0
BBX 33 66 8 -20
BITMAP
0000FF0000
0007FFE000
F01FFFF000
F03FFFF800
F0FC01FC00
F1F0007E00
F3E0003E00
F780001F00
FF00001F00
FE00000F00
FC00000F00
F800000F80
F000000780
F000000780
F000000780
F000000780
F000000780
F000000780
F000000780
F000000780
F000000780
F000000780
F000000780
F000000780
F000000780
F000000780
F000000780
F000000780
F000000780
F000000780
F000000780
F000000780
F000000780
F000000780
F000000780
F000000780
F000000780
F000000780
F000000780
F000000780
F000000780
F000000780
F000000780
F000000780
F000000780
F000000780
0000000000
0000000000
0000000000
0000000000
0000000000
0000000000
0007C00000
0007F80000
0003FC0000
00003E0000
00001E0000
00001E0000
00000E0000
00001E0000
00001E0000
00003C0000
0001F80000
007FF00000
003FC00000
003C000000
ENDCHAR
STARTCHAR 0147
ENCODING 327
SWIDTH 632 0
DWIDTH 58 0
BBX 40 77 9 0
BITMAP
0020000100
00F0000780
0078000F00
003C001E00
001E003C00
000F007800
0007C0F000
0003E1E000
0001F7C000
0000FF8000
00007F0000
00003E0000
0000000000
0000000000
0000000000
0000000000
0000000000
F80000000F
F80000000F
FC0000000F
FC0000000F
FE0000000F
FF0000000F
EF0000000F
E78000000F
F78000000F
F3C000000F
F3E000000F
F1E000000F
F0F000000F
F0F000000F
F07800000F
F07C00000F
F03C00000F
F03E00000F
F01E00000F
F00F00000F
F00F80000F
F00780000F
F007C0000F
F003C0000F
F001E0000F
F001F0000F
F000F0000F
F000F8000F
F00078000F
F0003C000F
F0003E000F
F0001E000F
F0001F000F
F0000F000F
F00007800F
F00007C00F
F00003C00F
F00003E00F
F00001E00F
F00000F00F
F00000F80F
F00000780F
F000007C07
F000003C07
F000001E07
F000001F07
F000000F07
F000000F87
F000000787
F0000003C7
F0000003C7
F0000001E7
F0000001F7
F0000000F7
F00000007F
F00000007F
F00000003F
F00000003F
F00000001F
F00000000F
ENDCHAR
STARTCHAR 0148
ENCODING 328
SWIDTH 534 0
DWIDTH 49 0
BBX 33 68 8 0
BITMAP
0300000C00
0780001E00
03C0003C00
01E0007800
00F000F000
007801E000
007C03C000
003E07C000
001E0F8000
000F1F0000
00079E0000
0003FC0000
0003FC0000
0001F80000
0000F00000
0000000000
0000000000
0000000000
0000000000
0000000000
0000000000
0000000000
0000FF0000
0007FFE000
F01FFFF000
F03FFFF800
F0FC01FC00
F1F0007E00
F3E0003E00
F780001F00
FF00001F00
FE00000F00
FC00000F00
F800000F80
F000000780
F000000780
F000000780
F000000780
F000000780
F000000780
F000000780
F000000780
F000000780
F000000780
F000000780
F000000780
F000000780
F000000780
F000000780
F000000780
F000000780
F000000780
F000000780
F000000780
F000000780
F000000780
F000000780
F000000780
F000000780
F000000780
F000000780
F000000780
F000000780
F000000780
F000000780
F000000780
F000000780
F000000780
ENDCHAR
STARTCHAR 0149
ENCODING 329
SWIDTH 730 0
DWIDTH 67 0
BBX 52 65 6 0
BITMAP
1E000000000000
3F000000000000
7F000000000000
7F800000000000
7F800000000000
3F800000000000
1F800000000000
07800000000000
07800000000000
07800000000000
07000000000000
07000000000000
07000000000000
0E000000000000
1E000000000000
1C000000000000
3C000000000000
78000000000000
F0000000000000
E00000001FE000
C0000000FFFC00
00000E01FFFE00
00000E07FFFF80
00000E0FC01F80
00000E1F000FC0
00000F7C0007C0
00000FF80003E0
00000FF00001E0
00000FC00001F0
00000F800001F0
00000F000000F0
00000F000000F0
00000F000000F0
00000F000000F0
00000F000000F0
00000F000000F0
00000F000000F0
00000F000000F0
00000F000000F0
00000F000000F0
00000F000000F0
00000F000000F0
00000F000000F0
00000F000000F0
00000F000000F0
00000F000000F0
00000F000000F0
00000F000000F0
00000F000000F0
00000F000000F0
00000F000000F0
00000F000000F0
00000F000000F0
00000F000000F0
00000F000000F0
00000F000000F0
00000F000000F0
00000F000000F0
00000F000000F0
00000F000000F0
00000F000000F0
00000F000000F0
00000F000000F0
00000F000000F0
00000F000000F0
ENDCHAR
STARTCHAR 014A
ENCODING 330
SWIDTH 621 0
DWIDTH 57 0
BBX 43 63 9 -1
BITMAP
00003FE00000
F001FFFC0000
F007FFFF0000
F01FFFFF8000
F07F803FC000
F0FC0007E000
F1F00003F000
F3E00001F800
F7800000FC00
FF0000007C00
FE0000003E00
FC0000001E00
F80000001F00
F00000001F00
F00000000F00
F00000000F80
F00000000F80
F00000000780
F00000000780
F000000007C0
F000000007C0
F000000003C0
F000000003C0
F000000003C0
F000000003C0
F000000003C0
F000000003C0
F000000003C0
F000000003E0
F000000003E0
F000000003E0
F000000003E0
F000000003E0
F000000003E0
F000000003E0
F000000003C0
F000000003C0
F000000003C0
F000000003C0
F000000003C0
F000000003C0
F000000003C0
F000000003C0
F000000007C0
F000000007C0
F00000000780
F00000000780
F00000000780
F00000000F80
F00000000F80
F00000000F00
F00000000F00
F00000001F00
F00000001E00
F00000003E00
F00000003E00
F00000007C00
F0000000F800
F0000383F800
F00003FFF000
F00003FFE000
F00007FF8000
000001FE0000
ENDCHAR
STARTCHAR 014B
ENCODING 331
SWIDTH 534 0
DWIDTH 49 0
BBX 33 63 8 -17
BITMAP
0000FF0000
0007FFE000
F01FFFF000
F03FFFF800
F0FC01FC00
F1F0007E00
F3E0003E00
F780001F00
FF00001F00
FE00000F00
FC00000F00
F800000F80
F000000780
F000000780
F000000780
F000000780
F000000780
F000000780
F000000780
F000000780
F000000780
F000000780
F000000780
F000000780
F000000780
F000000780
F000000780
F000000780
F000000780
F000000780
F000000780
F000000780
F000000780
F000000780
F000000780
F000000780
F000000780
F000000780
F000000780
F000000780
F000000780
F000000780
F000000780
F000000780
F000000780
F000000780
0000000780
0000000780
0000000780
0000000780
0000000780
0000000780
0000000780
0000000780
0000000780
0000000F00
0000000F00
0000001F00
0000303E00
00003FFE00
00003FFC00
00003FF000
0000030000
ENDCHAR
STARTCHAR 014C
ENCODING 332
SWIDTH 654 0
DWIDTH 60 0
BBX 50 73 5 -1
BITMAP
0003FFFFF00000
0003FFFFF00000
0003FFFFF00000
00000000000000
00000000000000
00000000000000
00000000000000
00000000000000
00000000000000
00000000000000
00000FFC000000
00007FFF800000
0003FFFFF00000
0007FFFFF80000
001FF003FE0000
003F80007F0000
007E00001F8000
00FC00000FC000
01F8000007E000
03F0000003F000
03E0000001F000
07C0000000F800
0F800000007C00
0F800000007C00
1F000000003E00
1F000000003E00
1E000000001E00
3E000000001F00
3C000000001F00
3C000000000F00
7C000000000F80
7C000000000F80
78000000000780
78000000000780
78000000000780
F80000000007C0
F80000000007C0
F80000000007C0
F80000000007C0
F80000000007C0
F00000000007C0
F00000000007C0
F00000000007C0
F80000000007C0
F80000000007C0
F80000000007C0
F80000000007C0
F8000000000780
78000000000780
78000000000780
78000000000F80
7C000000000F80
7C000000000F80
3C000000000F00
3E000000001F00
3E000000001F00
1E000000001E00
1F000000003E00
1F000000003C00
0F800000007C00
0F80000000F800
07C0000000F800
03E0000001F000
03F0000003E000
01F8000007E000
00FC00000FC000
007E00001F8000
003F80007F0000
001FF003FE0000
0007FFFFF80000
0003FFFFE00000
00007FFF800000
00000FFC000000
ENDCHAR
STARTCHAR 014D
ENCODING 333
SWIDTH 534 0
DWIDTH 49 0
BBX 39 60 5 -1
BITMAP
00FFFFFE00
00FFFFFE00
00FFFFFE00
0000000000
0000000000
0000000000
0000000000
0000000000
0000000000
0000000000
0000000000
0000000000
0000000000
0001FF0000
000FFFE000
003FFFF800
007FFFFC00
01FC00FF00
03F0003F80
07E0000FC0
07C00007E0
0F800003E0
1F000001F0
1E000000F0
3E000000F8
3C00000078
7C0000007C
780000003C
780000003C
780000003E
F80000003E
F00000001E
F00000001E
F00000001E
F00000001E
F00000001E
F00000001E
F00000001E
F00000001E
F00000001E
F00000001E
F00000001E
F80000003E
780000003E
780000003C
780000003C
7C0000007C
3C00000078
3E000000F8
1E000000F0
1F000001F0
0F800003E0
07C00007E0
07E0000FC0
03F0001F80
01FE007F00
007FFFFC00
003FFFF800
000FFFE000
0001FF0000
ENDCHAR
ENDFONT
